<?xml version="1.0" encoding="utf-8"?>
<!-- Generator: Adobe Illustrator 23.0.1, SVG Export Plug-In . SVG Version: 6.00 Build 0)  -->
<svg version="1.1" id="Capa_1" xmlns="http://www.w3.org/2000/svg" xmlns:xlink="http://www.w3.org/1999/xlink" x="0px" y="0px"
	 viewBox="0 0 960 120" style="enable-background:new 0 0 960 120;" xml:space="preserve">
<style type="text/css">
	.st0{fill:#1E1E1E;}
	.st1{fill:#910417;}
	.st2{fill:#FF003D;}
	.st3{fill:#262626;}
	.st4{enable-background:new    ;}
	.st5{fill:#F9F9F9;}
</style>
<path class="st0" d="M0,0.5v122.2l960-1.3c0,0,0-93.4,0-121.4L0,0.5z"/>
<g>
	<polygon class="st1" points="986,78.8 634.7,262.7 843.6,26.9 	"/>
	<polygon class="st2" points="824.6,-56.8 718.3,-12.3 986,78.8 	"/>
	<polygon class="st2" points="701.5,187.3 867.3,252.2 634.7,262.7 	"/>
</g>
<g>
	<path class="st3" d="M-39.7,183.8c-3-7.9-6.4-15.6-10.4-22.9c-9.9-17.7-22.9-33.5-38.3-46.4l-1.2-1l20-62l1.5-0.2
		c28.9-2,56.7-11.6,80.5-27.7l1.8-1.3l30.4,42.2l-1.7,1.3c-8.4,6.9-15.6,15.3-21.5,24.5c4.9-2.5,10.4-4,16.1-4
		c18.5,0,34,15.1,34.1,33.6v0.5c0,18.8-15.3,34.1-34.1,34.1c-12.6,0-24.4-6.9-30.3-18.2c-0.2-0.3-0.5-0.8-0.7-1.2
		c0,0.7-0.2,1.3-0.2,2v0.2c-0.2,1.8-0.2,3.5-0.2,5.4c0,8.2,1,16.6,3,24.7l0.7,2.2L-38.7,186L-39.7,183.8z"/>
	<path class="st3" d="M-34.8,282.3l0.3-1.5c3.2-12.9,4.9-26.4,4.9-40c0-15.3-2.2-30.4-6.2-44.7l-0.7-2.2l49.1-16.1l0.8,2.2
		c4,10.1,9.4,19.3,16.5,27.6c-0.3-1.8-0.5-3.9-0.5-5.7c0-18.8,15.3-34.1,34.1-34.1s34.1,15.3,34.1,34.1c0,17.3-12.9,31.6-29.8,34
		c10.1,4.2,20.8,6.7,32.1,7.4l2.2,0.2v51.3l-2.2,0.2c-28.9,1-57,9.8-81.2,24.9l-1.3,0.8L-34.8,282.3z"/>
	<path class="st3" d="M194.1,319.3c-24.4-15.3-52.3-23.9-80.9-24.9l-2.2-0.2V243l2.2-0.2c11.3-0.7,22-3.2,32.3-7.4
		c-17-2.2-29.9-16.5-29.9-34c0-18.8,15.3-34.1,34.1-34.1s34.1,15.3,34.1,34.1c0,2.2-0.2,4.2-0.7,6.2c6.9-8.2,12.8-17.7,16.8-27.7
		l0.8-2.2l48.8,16.1l-0.7,2.2c-1.7,6.1-3,12.3-4,18.5c-1.3,8.6-2,17.2-2,25.9c0,13.5,1.7,26.9,5,40.2l0.3,1.5l-52.6,38.2
		L194.1,319.3z"/>
	<path class="st3" d="M203.3,169.8l0.7-2.2c2-8.1,3-16.5,3-24.9c0-2.5-0.2-5.2-0.2-7.7c-5.5,11.6-17.3,19.5-30.9,19.5
		c-18.8,0-34.1-15.3-34.1-34.1c0-3,0.3-5.4,1-7.7c3.5-15.6,17.3-26.4,33.3-26.4c5.7,0,11.4,1.3,16.5,4.2
		c-5.7-9.4-12.9-17.7-21.7-24.7l-1.7-1.3l30.4-42.2l1.8,1.3c23.7,16.1,51.5,25.7,80.2,27.7l1.5,0.2l20,61.7l-1.2,1
		c-8.1,6.9-15.6,14.5-22.4,22.9c-11.4,14.3-20.5,30.1-26.6,47.1l-0.8,2.2L203.3,169.8z"/>
	<path class="st3" d="M106.8,104.3C88,104.3,72.7,89,72.7,70.1c0-9.4,3.7-18,9.9-24.2c-10.3,2.5-20,6.7-29.1,12.6l-1.8,1.2
		L21.2,17.3L23,16C45.2-1.7,62.7-25,73.3-51.3l0.7-1.3h65.9l0.7,1.3C151.3-25,168.7-1.7,191,16l1.8,1.3l-30.4,42.4l-1.8-1.2
		c-9.1-5.7-18.8-9.9-29.3-12.4c6.2,6.2,9.9,15,9.9,24.2C140.9,89,125.6,104.3,106.8,104.3z"/>
</g>
<g class="st4">
	<path class="st5" d="M55.1,59.6c0,6.8,5.6,12.4,12.4,12.4h19.2v6.9H67.5c-10.6,0-19.2-8.6-19.2-19.2c0-10.6,8.6-19.2,19.2-19.2
		h19.2v6.9H67.5C60.6,47.2,55.1,52.8,55.1,59.6z"/>
	<path class="st5" d="M123.3,72.1l3.5,6.9h-7.7l-3.5-6.9l-3.7-7.2l-0.2-0.3c-1.2-2-3.4-3.3-5.8-3.3H99v17.7h-6.9V40.4h24.3
		c2.9,0,5.4,1.2,7.3,3s3,4.5,3,7.3c0,4.2-2.5,7.8-6,9.5c-0.9,0.4-1.9,0.7-3,0.8L123.3,72.1z M116.5,54.3c0.5,0,1-0.1,1.4-0.3
		c1.3-0.5,2.1-1.8,2.1-3.2c0-1.3-0.7-2.1-1-2.5c-0.4-0.4-1.3-1-2.5-1H99v7.1L116.5,54.3z"/>
	<path class="st5" d="M139.2,50.7v3.6H164v6.9h-24.7v7.3c0,1.9,1.6,3.5,3.5,3.5h28.1v6.9h-28.1c-5.7,0-10.3-4.7-10.3-10.4V50.7
		c0-5.7,4.6-10.4,10.3-10.4h28.1v6.9h-28.1C140.8,47.2,139.2,48.8,139.2,50.7z"/>
	<path class="st5" d="M195.6,40.4c10.6,0,19.2,8.6,19.2,19.2c0,4.7-1.7,9.1-4.6,12.4c-0.3,0.4-0.7,0.8-1.1,1.2
		c-3.5,3.5-8.2,5.7-13.5,5.7h-19.2V40.3L195.6,40.4L195.6,40.4z M207.9,59.6c0-6.8-5.6-12.4-12.4-12.4h-12.4V72h12.4
		C202.4,72,207.9,66.4,207.9,59.6z"/>
	<path class="st5" d="M227.2,50.7v3.6H252v6.9h-24.7v7.3c0,1.9,1.6,3.5,3.5,3.5h28.1v6.9h-28.1c-5.7,0-10.3-4.7-10.3-10.4V50.7
		c0-5.7,4.6-10.4,10.3-10.4h28.1v6.9h-28.1C228.8,47.2,227.2,48.8,227.2,50.7z"/>
	<path class="st5" d="M302.9,40.4v38.5l-6.9-5.3l-24.7-19.1v24.4h-6.9V40.5l6.9,5.3L296,64.9V40.3L302.9,40.4z"/>
	<path class="st5" d="M314.7,59.6c0,6.8,5.6,12.4,12.4,12.4h19.2v6.9h-19.2c-10.6,0-19.2-8.6-19.2-19.2c0-10.6,8.6-19.2,19.2-19.2
		h19.2v6.9h-19.2C320.2,47.2,314.7,52.8,314.7,59.6z"/>
	<path class="st5" d="M351.8,78.8V40.3h6.9v38.5H351.8z"/>
	<path class="st5" d="M401.2,78.8h-7.7l-3.5-6.9l-8.4-16.5l-8.4,16.5l-3.5,6.9H362l3.5-6.9l16.1-31.6l16.1,31.6L401.2,78.8z"/>
	<path class="st5" d="M434.9,72v6.9h-19.5c-1.9,0-3.7-0.4-5.4-1.3c-2.4-1.2-4.4-3.2-5.6-5.6c-0.8-1.6-1.3-3.5-1.3-5.4V40.4h6.9v26.9
		c0.3,2.4,2.3,4.3,4.7,4.7L434.9,72z"/>
	<path class="st5" d="M440.4,78.8V40.3h6.9v38.5H440.4z"/>
	<path class="st5" d="M491.4,71.9v6.9h-29.8l-0.1,0.1h-8.7l0.1-0.1l5.3-6.9l9.5-12.3l4.3-5.6l5.3-6.8h-24.5v-6.9h29.8h8.6l-5.3,6.9
		l-9.6,12.4l-4.3,5.6l-5.2,6.7H491.4z"/>
	<path class="st5" d="M533.8,78.8h-7.7l-3.5-6.9l-8.4-16.5l-8.4,16.5l-3.5,6.9h-7.7l3.5-6.9l16.1-31.6l16.1,31.6L533.8,78.8z"/>
	<path class="st5" d="M538.6,59.6c0,6.8,5.6,12.4,12.4,12.4h19.2v6.9H551c-10.6,0-19.2-8.6-19.2-19.2c0-10.6,8.6-19.2,19.2-19.2
		h19.2v6.9H551C544.1,47.2,538.6,52.8,538.6,59.6z"/>
	<path class="st5" d="M575.7,78.8V40.3h6.9v38.5H575.7z"/>
	<path class="st5" d="M625.3,59.6c0,10.6-8.6,19.2-19.2,19.2c-10.6,0-19.2-8.6-19.2-19.2c0-10.6,8.6-19.2,19.2-19.2
		C616.6,40.3,625.3,49,625.3,59.6z M618.4,59.6c0-6.8-5.6-12.4-12.4-12.4c-6.8,0-12.4,5.6-12.4,12.4c0,6.8,5.6,12.4,12.4,12.4
		C612.8,71.9,618.4,66.4,618.4,59.6z"/>
	<path class="st5" d="M667.9,40.4v38.5l-6.9-5.3l-24.7-19.1v24.4h-6.9V40.5l6.9,5.3l24.7,19.1V40.3L667.9,40.4z"/>
</g>
</svg>
