<?xml version="1.0" encoding="utf-8"?>
<!-- Generator: Adobe Illustrator 23.0.1, SVG Export Plug-In . SVG Version: 6.00 Build 0)  -->
<svg version="1.1" id="Capa_1" xmlns="http://www.w3.org/2000/svg" xmlns:xlink="http://www.w3.org/1999/xlink" x="0px" y="0px"
	 viewBox="0 0 1920 1080" style="enable-background:new 0 0 1920 1080;" xml:space="preserve">
<style type="text/css">
	.st0{fill:url(#SVGID_1_);}
	.st1{opacity:0.4;}
	.st2{fill:url(#SVGID_2_);}
	.st3{fill:url(#SVGID_3_);}
	.st4{fill:url(#SVGID_4_);}
	.st5{fill:url(#SVGID_5_);}
	.st6{fill:url(#SVGID_6_);}
	.st7{fill:url(#SVGID_7_);}
	.st8{fill:url(#SVGID_8_);}
	.st9{fill:url(#SVGID_9_);}
	.st10{fill:url(#SVGID_10_);}
	.st11{fill:url(#SVGID_11_);}
	.st12{fill:#B1001B;}
</style>
<radialGradient id="SVGID_1_" cx="494.9546" cy="579.1309" r="1501.8225" gradientTransform="matrix(1 0 0 -1 0 1080)" gradientUnits="userSpaceOnUse">
	<stop  offset="0" style="stop-color:#1C1C1E"/>
	<stop  offset="1" style="stop-color:#000000"/>
</radialGradient>
<rect y="-135" class="st0" width="1970.7" height="1289.7"/>
<g class="st1">
	
		<radialGradient id="SVGID_2_" cx="512.154" cy="2272.6396" r="892.2783" gradientTransform="matrix(1 0 0 -1 0 1080)" gradientUnits="userSpaceOnUse">
		<stop  offset="0" style="stop-color:#1C1C1E"/>
		<stop  offset="1" style="stop-color:#000000"/>
	</radialGradient>
	<path class="st2" d="M99-1518.1c-55.4,78.3-146.7,129.4-250,129.4c-103.3,0-194.6-51.1-250-129.4c-10.7-15.2-20.1-31.4-28-48.4
		c-18-39-28-82.4-28-128.1c0-29.6,4.2-58.3,12.1-85.3c6.1-21.1,14.5-41.3,24.8-60.2c51.8-95.6,152.9-160.4,269.2-160.4
		c116.3,0,217.5,64.9,269.3,160.4c10.3,18.9,18.6,39.1,24.7,60.2c9.5,2.2,19,4.4,28.5,6.8c9.4,2.4,18.7,4.8,28,7.3
		c9.3,2.5,18.5,5.2,27.7,7.9c9.1,2.7,18.3,5.5,27.3,8.4c9,2.9,18,5.9,27,9c9,3.1,17.9,6.3,26.7,9.6c8.9,3.3,17.7,6.7,26.5,10.1
		c104.5,41.3,202.5,95.5,292,160.6c89.6,65,171.5,141.5,243,228.1c19.8-5.3,39.6-9.3,59.5-12c228.8-31.5,454.4,104.3,528.3,331.7
		c73.9,227.4-28.8,469.8-232.4,578.9c0.4-10,0.7-20,0.9-30c0.2-10.1,0.3-20.1,0.3-30.2c0-10.2-0.2-20.3-0.4-30.5
		c-0.3-10.3-0.6-20.5-1.1-30.8c-0.5-10.4-1.1-20.9-1.9-31.3c109.7-90.7,158.9-242.5,112.2-386.2
		c-46.7-143.7-175.7-237.6-317.8-246.5c-20.7-1.3-41.8-0.8-62.8,1.6c-23.3,2.7-46.7,7.7-69.9,15.3c-48.1,15.6-90.6,40.5-126.2,72
		c-13.8,12.2-26.5,25.3-38.1,39.3c-75.8,91.2-104.5,218.1-65.2,339.2C694.2-630.5,792.1-544.8,907-515.5c0.2,8.9,0.3,17.7,0.3,26.6
		c0,8.8-0.1,17.6-0.3,26.3c-0.2,8.7-0.6,17.4-1,26.1c-0.4,8.7-1,17.3-1.6,26c-0.7,8.6-1.4,17.2-2.3,25.8
		c-167.7-32.8-313.1-153.2-369.7-327.2c-56.6-174.1-9.7-356.9,106.7-482c12.2-13.1,25.1-25.6,38.8-37.3
		c-53-59.2-111.9-112.1-175.4-158.2c-63.5-46.2-132-85.8-204.6-117.9c-7.8-3.5-15.8-6.8-23.7-10.1c-7.9-3.3-15.9-6.5-23.9-9.6
		s-16.1-6.1-24.2-9c-8.1-2.9-16.2-5.8-24.4-8.5c-8.2-2.7-16.4-5.4-24.6-7.9c-8.3-2.5-16.6-5-24.9-7.4c-8.4-2.4-16.8-4.6-25.2-6.8
		C119.1-1549.5,109.7-1533.3,99-1518.1L99-1518.1z"/>
	
		<radialGradient id="SVGID_3_" cx="685.9114" cy="1178.4069" r="872.5977" gradientTransform="matrix(1 0 0 -1 0 1080)" gradientUnits="userSpaceOnUse">
		<stop  offset="0" style="stop-color:#1C1C1E"/>
		<stop  offset="1" style="stop-color:#000000"/>
	</radialGradient>
	<path class="st3" d="M904.2-569.8c-91.6-28.5-168.5-99.5-200.4-197.7c-31.9-98.2-11.5-200.8,45.9-277.8
		c11.1-14.9,23.6-28.9,37.4-41.6c31.5-29.1,69.7-52.1,113.2-66.3c28.2-9.1,56.7-14,84.9-14.9c22-0.7,43.7,1,64.9,4.9
		c106.8,19.7,199.8,95.9,235.8,206.5c35.9,110.6,5.5,226.9-69.3,305.7c-14.9,15.6-31.5,29.8-49.7,42.1c0.9,9.7,1.6,19.5,2.3,29.2
		c0.7,9.6,1.2,19.3,1.7,28.9c0.4,9.6,0.8,19.2,1,28.7c0.2,9.6,0.4,19.1,0.4,28.6c0,9.5,0,19-0.2,28.5c-0.2,9.5-0.4,18.9-0.8,28.4
		c-0.4,9.5-0.9,18.9-1.5,28.3c-6.9,112.2-28.2,222.1-62.5,327.4c-34.1,105.3-81.6,206.8-141.9,301.6c11.2,17.2,21.1,34.9,29.8,52.9
		c100.7,207.9,41.2,464.4-152.2,604.9C649.6,1019,387.3,996.3,220.7,836.3c9.6-2.7,19.2-5.5,28.8-8.4c9.6-2.9,19.2-6,28.8-9.1
		c9.6-3.2,19.3-6.4,28.9-9.8c9.7-3.4,19.4-7,29-10.6c9.8-3.7,19.5-7.5,29.2-11.5c120.2,76.3,279.8,76.2,402-12.6
		C889.6,685.5,939,533.8,903.6,395.9c-5.2-20.1-12.1-40-21-59.3c-9.8-21.4-21.8-42.1-36.1-61.8C816.7,234,780,201.2,739,177.1
		c-15.8-9.3-32.3-17.4-49.2-24.1c-110.2-43.9-239.7-32-342.8,42.9c-103,74.8-154.4,194.4-146.7,312.7c-8.4,3-16.8,5.8-25.2,8.5
		c-8.4,2.7-16.8,5.3-25.2,7.8c-8.4,2.5-16.8,4.9-25.2,7.1c-8.4,2.3-16.8,4.4-25.2,6.5c-8.4,2-16.8,4-25.3,5.8
		c-20.6-169.6,48.9-345.1,197-452.7C419.4-16,607.8-27.9,762.7,44.2c16.2,7.5,32.1,16,47.5,25.4c39.9-68.7,72-141,96.2-215.7
		c24.3-74.6,40.8-152.1,48.9-231.1c0.9-8.5,1.6-17.1,2.3-25.7c0.7-8.5,1.2-17.1,1.7-25.7c0.5-8.6,0.9-17.1,1.1-25.8
		c0.3-8.6,0.4-17.2,0.5-25.8c0.1-8.6,0-17.3-0.1-25.9c-0.1-8.6-0.4-17.3-0.7-26c-0.3-8.7-0.8-17.4-1.3-26.1
		C940.3-560.3,922-564.3,904.2-569.8L904.2-569.8z"/>
	
		<radialGradient id="SVGID_4_" cx="-241.1894" cy="594.9632" r="853.3375" gradientTransform="matrix(1 0 0 -1 0 1080)" gradientUnits="userSpaceOnUse">
		<stop  offset="0" style="stop-color:#1C1C1E"/>
		<stop  offset="1" style="stop-color:#000000"/>
	</radialGradient>
	<path class="st4" d="M737.1,732.6C643,801,523,808,425,761.1c-19.5-9.3-38.1-20.7-55.4-34.2c-9,3.9-18,7.6-27,11.2
		c-9,3.6-18,7.1-27,10.5c-9,3.4-18,6.7-27,9.9c-9,3.2-18,6.2-27.1,9.2c-9,3-18.1,5.8-27.2,8.6c-9.1,2.8-18.1,5.4-27.3,8
		c-9.1,2.6-18.2,5-27.4,7.4c-108.8,28-219.9,41.8-330.7,41.7c-110.7,0.1-221.9-13.7-330.7-41.7c-12.9,15.9-26.6,30.8-41,44.7
		c-166.7,160-428.9,182.7-622.4,42.2c-193.4-140.5-252.9-397-152.2-604.9c5.5,8.3,11.2,16.6,16.9,24.8c5.8,8.3,11.6,16.4,17.6,24.6
		c6,8.2,12.1,16.4,18.3,24.4c6.2,8.2,12.6,16.3,19,24.3c6.5,8.1,13.2,16.2,19.9,24.2c-35.4,137.9,14,289.6,136.2,378.4
		s281.8,89,402,12.6c17.5-11.1,34.2-23.9,49.9-38.3c17.3-15.9,33.3-33.7,47.6-53.4c29.7-40.9,49.5-86,59.8-132.4
		c4-18,6.6-36.1,7.7-54.3c7.7-118.3-43.7-237.9-146.6-312.8c-103-74.8-232.6-86.7-342.8-42.8c-5.4-7.1-10.7-14.2-15.9-21.3
		c-5.2-7.1-10.2-14.3-15.2-21.5c-4.9-7.2-9.8-14.4-14.5-21.7c-4.7-7.3-9.4-14.6-13.9-22c-4.5-7.4-9-14.8-13.3-22.2
		c155-72,343.3-60.1,491.4,47.5c148.1,107.6,217.6,283,197,452.7c-2.2,17.8-5.3,35.4-9.4,53c77.6,16.7,156.4,24.9,234.9,24.9
		c78.5,0.1,157.3-8.2,234.9-24.9c8.4-1.8,16.8-3.7,25.1-5.7c8.3-2,16.7-4.1,25-6.3c8.3-2.2,16.6-4.5,24.8-6.9
		c8.3-2.4,16.5-4.9,24.7-7.5c8.2-2.6,16.4-5.3,24.6-8.1c8.2-2.8,16.3-5.7,24.5-8.7c8.1-3,16.3-6.1,24.4-9.3
		c-3.7-18.4-5.6-37-5.8-55.6c-1.2-95.9,42.6-191,126.1-251.7c83.5-60.7,187.5-73,278.3-42.2c17.6,6,34.8,13.6,51.2,22.7
		c37.5,21,71.1,50.2,98,87.2c17.4,24,30.8,49.6,40.4,76.1c7.5,20.7,12.6,41.9,15.4,63.3C874.9,552.3,831.2,664.3,737.1,732.6
		L737.1,732.6z"/>
	
		<radialGradient id="SVGID_5_" cx="-1168.323" cy="1358.7545" r="872.6104" gradientTransform="matrix(1 0 0 -1 0 1080)" gradientUnits="userSpaceOnUse">
		<stop  offset="0" style="stop-color:#1C1C1E"/>
		<stop  offset="1" style="stop-color:#000000"/>
	</radialGradient>
	<path class="st5" d="M-727,761.1c-98.1,46.8-218,39.9-312.1-28.5c-94.1-68.4-137.8-180.3-123.5-288c2.8-21.4,8-42.6,15.4-63.3
		c-6.4-7.4-12.8-14.8-19-22.2c-6.2-7.4-12.3-14.9-18.4-22.4c-6-7.5-11.9-15-17.7-22.6c-5.8-7.6-11.5-15.2-17.1-22.9
		c-5.6-7.7-11.1-15.4-16.6-23.2c-5.4-7.8-10.8-15.6-16-23.5c-5.2-7.9-10.4-15.8-15.5-23.8c-60.3-94.8-107.7-196.3-141.9-301.6
		c-34.3-105.3-55.6-215.2-62.5-327.4c-19.1-7.4-37.5-15.8-55.2-25.2c-203.6-109.1-306.3-351.5-232.4-578.9
		c73.9-227.4,299.4-363.2,528.3-331.7c-6.2,7.8-12.3,15.7-18.4,23.7c-6.1,8-12.1,16.1-18,24.3c-5.9,8.2-11.8,16.6-17.6,24.9
		c-5.8,8.5-11.6,17-17.2,25.6c-5.7,8.7-11.4,17.5-16.9,26.4c-142.1,8.9-271.1,102.8-317.8,246.5c-46.7,143.7,2.5,295.5,112.2,386.2
		c16,13.3,33.3,25.2,51.8,35.6c20.4,11.5,42.3,21.2,65.5,28.7c48.1,15.6,97.1,20.5,144.4,16c18.3-1.8,36.3-4.9,54-9.4
		c114.9-29.3,212.8-115,252.1-236.2c39.4-121.1,10.6-248-65.2-339.2c5-7.3,10.2-14.5,15.4-21.7c5.2-7.1,10.4-14.2,15.8-21.1
		c5.3-6.9,10.7-13.8,16.2-20.5c5.5-6.8,11-13.4,16.6-20.1c5.6-6.6,11.3-13.1,17-19.6c116.4,125.1,163.3,307.9,106.7,482
		c-56.6,174.1-202,294.4-369.7,327.2c-17.6,3.4-35.3,5.9-53.3,7.4c8.1,79,24.6,156.4,48.9,231.1c24.2,74.7,56.4,147,96.2,215.7
		c4.3,7.4,8.7,14.8,13.2,22.1c4.5,7.3,9.1,14.6,13.7,21.8c4.6,7.2,9.4,14.4,14.2,21.5c4.8,7.1,9.7,14.2,14.8,21.2
		c5,7,10.1,14,15.3,20.9c5.2,6.9,10.5,13.8,15.8,20.6s10.8,13.6,16.4,20.3c16.4-9.2,33.5-16.8,51.1-22.7
		c90.9-30.8,194.8-18.5,278.3,42.2c83.5,60.7,127.3,155.7,126.2,251.7c-0.2,18.6-2.1,37.2-5.8,55.6c-8.3,42.1-25.7,83.1-52.6,120.1
		c-17.4,24-37.6,44.7-59.9,62C-688.9,740.4-707.5,751.8-727,761.1L-727,761.1z"/>
	
		<radialGradient id="SVGID_6_" cx="-637.6912" cy="2448.4844" r="892.2223" gradientTransform="matrix(1 0 0 -1 0 1080)" gradientUnits="userSpaceOnUse">
		<stop  offset="0" style="stop-color:#1C1C1E"/>
		<stop  offset="1" style="stop-color:#000000"/>
	</radialGradient>
	<path class="st6" d="M-1206.3-569.8c-17.8,5.5-36.1,9.5-54.7,11.7c-42.6,5.1-87,1.2-130.5-12.9c-28.2-9.2-54.1-22-77.4-37.9
		c-18.2-12.3-34.8-26.5-49.7-42.1c-74.9-78.8-105.3-195-69.4-305.6c35.9-110.6,128.9-186.8,235.8-206.5c21.2-3.9,43-5.6,64.9-4.9
		c5-8.4,10.1-16.7,15.3-25c5.1-8.2,10.3-16.3,15.6-24.4c5.3-8,10.6-16,16.1-23.8c5.4-7.9,10.9-15.6,16.5-23.4
		c5.6-7.7,11.2-15.3,16.9-22.9c5.7-7.6,11.5-15.1,17.4-22.5c5.9-7.4,11.8-14.8,17.8-22.1c71.6-86.6,153.4-163.1,243-228.1
		c89.5-65.2,187.5-119.4,292-160.6c1.1-20.5,3.4-40.6,7-60.3C-589-2008.5-390.1-2181-151-2181c239.1,0,437.9,172.5,478.7,399.9
		c-9.4-3.5-18.8-6.8-28.2-10.1c-9.5-3.3-19.1-6.5-28.7-9.6c-9.7-3.1-19.4-6.1-29.1-9c-9.9-2.9-19.8-5.8-29.7-8.5
		c-10.1-2.7-20.2-5.4-30.4-7.9C129.2-1958.6,0-2052.2-151-2052.2c-151.1,0-280.2,93.6-332.6,226.1c-7.7,19.3-13.7,39.5-17.9,60.3
		c-4.7,23-7.1,46.8-7.1,71.2c0,50.6,10.5,98.7,29.5,142.3c7.3,16.8,15.9,33.1,25.6,48.4c63.3,100.2,175.1,166.8,302.5,166.8
		c127.3,0,239.2-66.6,302.5-166.8c8.5,2.5,17,5.2,25.4,7.9c8.4,2.7,16.7,5.6,24.9,8.5c8.2,2.9,16.4,5.9,24.6,9
		c8.1,3.1,16.2,6.3,24.2,9.6c8,3.3,15.9,6.7,23.9,10.1c-83,149.4-242.4,250.5-425.4,250.5c-183,0-342.4-101.1-425.4-250.5
		c-8.7-15.6-16.5-31.8-23.5-48.4c-72.6,32.1-141.2,71.7-204.7,117.9c-63.5,46.1-122.4,99-175.4,158.2c-5.7,6.4-11.4,12.9-17,19.4
		c-5.6,6.5-11.1,13.1-16.5,19.8c-5.4,6.6-10.8,13.4-16.1,20.2c-5.3,6.8-10.5,13.7-15.6,20.6c-5.1,6.9-10.2,13.9-15.1,21
		c-5,7.1-9.9,14.2-14.7,21.4c-4.8,7.2-9.6,14.5-14.3,21.9c13.8,12.8,26.3,26.7,37.4,41.6c57.4,76.9,77.8,179.6,45.9,277.8
		C-1037.8-669.3-1114.7-598.3-1206.3-569.8L-1206.3-569.8L-1206.3-569.8z"/>
</g>
<g class="st1">
	
		<radialGradient id="SVGID_7_" cx="1974.2732" cy="73.3075" r="421.3262" gradientTransform="matrix(1 0 0 -1 0 1080)" gradientUnits="userSpaceOnUse">
		<stop  offset="0" style="stop-color:#1C1C1E"/>
		<stop  offset="1" style="stop-color:#000000"/>
	</radialGradient>
	<path class="st7" d="M1779.2,853c-26.2,37-69.3,61.1-118,61.1c-48.8,0-91.9-24.1-118-61.1c-5.1-7.2-9.5-14.8-13.2-22.9
		c-8.5-18.4-13.2-38.9-13.2-60.5c0-14,2-27.5,5.7-40.3c2.9-10,6.8-19.5,11.7-28.4c24.4-45.1,72.2-75.7,127.1-75.7
		c54.9,0,102.7,30.6,127.1,75.7c4.9,8.9,8.8,18.5,11.7,28.4c4.5,1,9,2.1,13.4,3.2c4.4,1.1,8.8,2.3,13.2,3.5
		c4.4,1.2,8.7,2.4,13.1,3.7c4.3,1.3,8.6,2.6,12.9,4c4.3,1.4,8.5,2.8,12.7,4.3c4.2,1.5,8.4,3,12.6,4.5c4.2,1.5,8.4,3.1,12.5,4.8
		c49.4,19.5,95.6,45.1,137.9,75.8c42.3,30.7,81,66.8,114.8,107.7c9.3-2.5,18.7-4.4,28.1-5.7c108-14.9,214.6,49.2,249.4,156.6
		c34.9,107.4-13.6,221.8-109.7,273.3c0.2-4.7,0.3-9.4,0.4-14.2c0.1-4.8,0.1-9.5,0.1-14.3c0-4.8-0.1-9.6-0.2-14.4
		c-0.1-4.8-0.3-9.7-0.5-14.6c-0.2-4.9-0.5-9.9-0.9-14.8c51.8-42.9,75-114.5,53-182.4c-22-67.8-82.9-112.2-150.1-116.4
		c-9.8-0.6-19.7-0.4-29.7,0.8c-11,1.3-22.1,3.6-33,7.2c-22.7,7.4-42.8,19.1-59.6,34c-6.5,5.7-12.5,12-18,18.6
		c-35.8,43.1-49.4,103-30.8,160.2c18.6,57.2,64.8,97.7,119,111.5c0.1,4.2,0.2,8.4,0.1,12.6c0,4.2,0,8.3-0.2,12.4
		c-0.1,4.1-0.3,8.2-0.5,12.3c-0.2,4.1-0.5,8.2-0.8,12.3c-0.3,4.1-0.7,8.1-1.1,12.2c-79.2-15.5-147.9-72.3-174.6-154.5
		c-26.7-82.2-4.6-168.5,50.4-227.6c5.8-6.2,11.9-12.1,18.3-17.6c-25-27.9-52.8-52.9-82.8-74.7c-30-21.8-62.3-40.5-96.6-55.7
		c-3.7-1.6-7.4-3.2-11.2-4.8c-3.7-1.5-7.5-3.1-11.3-4.5c-3.8-1.5-7.6-2.9-11.4-4.3c-3.8-1.4-7.7-2.7-11.5-4
		c-3.9-1.3-7.7-2.5-11.6-3.7c-3.9-1.2-7.8-2.4-11.8-3.5c-3.9-1.1-7.9-2.2-11.9-3.2C1788.7,838.2,1784.2,845.8,1779.2,853L1779.2,853
		z"/>
	
		<radialGradient id="SVGID_8_" cx="2056.3198" cy="-443.3797" r="412.0331" gradientTransform="matrix(1 0 0 -1 0 1080)" gradientUnits="userSpaceOnUse">
		<stop  offset="0" style="stop-color:#1C1C1E"/>
		<stop  offset="1" style="stop-color:#000000"/>
	</radialGradient>
	<path class="st8" d="M2159.4,1300.8c-43.3-13.5-79.5-47-94.6-93.4c-15.1-46.4-5.4-94.8,21.7-131.2c5.2-7,11.2-13.6,17.7-19.7
		c14.9-13.8,32.9-24.6,53.4-31.3c13.3-4.3,26.8-6.6,40.1-7c10.4-0.3,20.6,0.5,30.7,2.3c50.5,9.3,94.4,45.3,111.3,97.5
		c17,52.2,2.6,107.1-32.7,144.3c-7,7.4-14.9,14.1-23.4,19.9c0.4,4.6,0.8,9.2,1.1,13.8c0.3,4.6,0.6,9.1,0.8,13.7
		c0.2,4.5,0.4,9.1,0.5,13.6c0.1,4.5,0.2,9,0.2,13.5c0,4.5,0,9-0.1,13.4c-0.1,4.5-0.2,8.9-0.4,13.4c-0.2,4.5-0.4,8.9-0.7,13.4
		c-3.3,53-13.3,104.9-29.5,154.6c-16.1,49.7-38.5,97.6-67,142.4c5.3,8.1,10,16.5,14.1,25c47.5,98.2,19.5,219.3-71.9,285.6
		c-91.3,66.4-215.2,55.6-293.9-19.9c4.5-1.3,9.1-2.6,13.6-4c4.5-1.4,9.1-2.8,13.6-4.3c4.6-1.5,9.1-3,13.6-4.6
		c4.6-1.6,9.1-3.3,13.7-5c4.6-1.8,9.2-3.6,13.8-5.4c56.8,36,132.1,36,189.8-6c57.7-41.9,81-113.6,64.3-178.7
		c-2.4-9.5-5.7-18.9-9.9-28c-4.6-10.1-10.3-19.9-17-29.2c-14-19.3-31.4-34.8-50.7-46.2c-7.5-4.4-15.3-8.2-23.2-11.4
		c-52-20.7-113.2-15.1-161.8,20.2c-48.6,35.3-72.9,91.8-69.3,147.7c-4,1.4-7.9,2.7-11.9,4c-3.9,1.3-7.9,2.5-11.9,3.7
		c-4,1.2-7.9,2.3-11.9,3.4c-4,1.1-7.9,2.1-11.9,3.1c-4,1-7.9,1.9-11.9,2.7c-9.7-80.1,23.1-163,93-213.8
		c69.9-50.8,158.9-56.4,232-22.4c7.7,3.6,15.1,7.5,22.4,12c18.8-32.4,34-66.6,45.4-101.9c11.5-35.2,19.3-71.8,23.1-109.1
		c0.4-4,0.8-8.1,1.1-12.1c0.3-4,0.6-8.1,0.8-12.1c0.2-4,0.4-8.1,0.5-12.2c0.1-4.1,0.2-8.1,0.2-12.2c0-4.1,0-8.1,0-12.2
		c-0.1-4.1-0.2-8.2-0.3-12.3c-0.2-4.1-0.4-8.2-0.6-12.3C2176.5,1305.3,2167.8,1303.4,2159.4,1300.8L2159.4,1300.8z"/>
	
		<radialGradient id="SVGID_9_" cx="1618.5509" cy="-718.8768" r="402.9386" gradientTransform="matrix(1 0 0 -1 0 1080)" gradientUnits="userSpaceOnUse">
		<stop  offset="0" style="stop-color:#1C1C1E"/>
		<stop  offset="1" style="stop-color:#000000"/>
	</radialGradient>
	<path class="st9" d="M2080.5,1915.8c-44.4,32.3-101.1,35.6-147.4,13.5c-9.2-4.4-18-9.8-26.2-16.2c-4.2,1.8-8.5,3.6-12.8,5.3
		c-4.2,1.7-8.5,3.4-12.7,5c-4.2,1.6-8.5,3.2-12.8,4.7c-4.2,1.5-8.5,2.9-12.8,4.4c-4.3,1.4-8.5,2.7-12.8,4c-4.3,1.3-8.6,2.6-12.9,3.8
		c-4.3,1.2-8.6,2.4-12.9,3.5c-51.4,13.2-103.9,19.7-156.1,19.7c-52.3,0-104.8-6.5-156.1-19.7c-6.1,7.5-12.6,14.5-19.4,21.1
		c-78.7,75.5-202.5,86.3-293.9,19.9c-91.3-66.4-119.4-187.5-71.9-285.6c2.6,3.9,5.3,7.8,8,11.7c2.7,3.9,5.5,7.8,8.3,11.6
		c2.8,3.9,5.7,7.7,8.6,11.5c2.9,3.9,5.9,7.7,9,11.5c3.1,3.8,6.2,7.7,9.4,11.4c-16.7,65.1,6.6,136.8,64.3,178.7
		c57.7,41.9,133,42,189.8,6c8.3-5.3,16.2-11.3,23.5-18.1c8.2-7.5,15.7-15.9,22.5-25.2c14-19.3,23.4-40.6,28.3-62.5
		c1.9-8.5,3.1-17,3.6-25.6c3.6-55.9-20.6-112.3-69.2-147.7c-48.7-35.3-109.8-40.9-161.9-20.2c-2.5-3.3-5.1-6.7-7.5-10.1
		c-2.4-3.4-4.8-6.8-7.2-10.2c-2.3-3.4-4.6-6.8-6.9-10.3c-2.2-3.4-4.4-6.9-6.6-10.4c-2.1-3.5-4.2-7-6.3-10.5
		c73.2-34,162.1-28.4,232,22.4c69.9,50.8,102.8,133.6,93,213.7c-1,8.4-2.5,16.7-4.5,25c36.6,7.9,73.8,11.8,110.9,11.8
		c37.1,0,74.3-3.9,110.9-11.8c4-0.9,7.9-1.8,11.9-2.7c3.9-0.9,7.9-1.9,11.8-3c3.9-1,7.8-2.1,11.7-3.3c3.9-1.1,7.8-2.3,11.7-3.5
		c3.9-1.2,7.7-2.5,11.6-3.8c3.9-1.3,7.7-2.7,11.6-4.1c3.8-1.4,7.7-2.9,11.5-4.4c-1.7-8.7-2.6-17.5-2.7-26.3
		c-0.6-45.3,20.1-90.2,59.6-118.8c39.5-28.7,88.5-34.5,131.4-19.9c8.3,2.8,16.4,6.4,24.2,10.7c17.7,9.9,33.6,23.7,46.3,41.2
		c8.2,11.3,14.6,23.4,19.1,35.9c3.5,9.8,5.9,19.8,7.3,29.9C2145.5,1830.6,2124.9,1883.5,2080.5,1915.8L2080.5,1915.8z"/>
	
		<radialGradient id="SVGID_10_" cx="1180.7664" cy="-358.2212" r="412.0392" gradientTransform="matrix(1 0 0 -1 0 1080)" gradientUnits="userSpaceOnUse">
		<stop  offset="0" style="stop-color:#1C1C1E"/>
		<stop  offset="1" style="stop-color:#000000"/>
	</radialGradient>
	<path class="st10" d="M1389.2,1929.2c-46.3,22.1-103,18.8-147.4-13.5c-44.4-32.3-65.1-85.1-58.3-136c1.3-10.1,3.8-20.1,7.3-29.9
		c-3-3.5-6-7-9-10.5c-2.9-3.5-5.8-7-8.7-10.6c-2.8-3.5-5.6-7.1-8.4-10.7c-2.7-3.6-5.4-7.2-8.1-10.8c-2.7-3.6-5.3-7.3-7.8-10.9
		c-2.6-3.7-5.1-7.4-7.6-11.1c-2.5-3.7-4.9-7.4-7.3-11.2c-28.5-44.8-50.9-92.7-67-142.4c-16.2-49.7-26.2-101.6-29.5-154.6
		c-9-3.5-17.7-7.5-26.1-11.9c-96.2-51.5-144.6-166-109.7-273.3c34.9-107.4,141.4-171.5,249.4-156.6c-2.9,3.7-5.8,7.4-8.7,11.2
		c-2.9,3.8-5.7,7.6-8.5,11.5c-2.8,3.9-5.6,7.8-8.3,11.8c-2.8,4-5.5,8-8.1,12.1c-2.7,4.1-5.4,8.3-8,12.5
		c-67.1,4.2-128,48.5-150.1,116.4c-22,67.8,1.2,139.5,53,182.4c7.6,6.3,15.7,11.9,24.5,16.8c9.7,5.4,20,10,30.9,13.6
		c22.7,7.4,45.8,9.7,68.2,7.6c8.6-0.8,17.2-2.3,25.5-4.4c54.3-13.8,100.5-54.3,119-111.5c18.6-57.2,5-117.1-30.8-160.2
		c2.4-3.5,4.8-6.9,7.3-10.2c2.4-3.4,4.9-6.7,7.4-10c2.5-3.3,5.1-6.5,7.6-9.7c2.6-3.2,5.2-6.3,7.8-9.5c2.6-3.1,5.3-6.2,8-9.2
		c55,59.1,77.1,145.4,50.4,227.6c-26.7,82.2-95.4,139-174.6,154.5c-8.3,1.6-16.7,2.8-25.2,3.5c3.8,37.3,11.6,73.9,23.1,109.1
		c11.4,35.3,26.6,69.4,45.4,101.8c2,3.5,4.1,7,6.2,10.4c2.1,3.5,4.3,6.9,6.5,10.3c2.2,3.4,4.4,6.8,6.7,10.2c2.3,3.4,4.6,6.7,7,10
		c2.4,3.3,4.8,6.6,7.2,9.9c2.4,3.3,4.9,6.5,7.5,9.7c2.5,3.2,5.1,6.4,7.7,9.6c7.7-4.3,15.8-7.9,24.1-10.7
		c42.9-14.5,92-8.7,131.4,19.9c39.4,28.7,60.1,73.5,59.6,118.8c-0.1,8.8-1,17.6-2.7,26.3c-3.9,19.9-12.2,39.2-24.8,56.7
		c-8.2,11.3-17.8,21.1-28.3,29.3C1407.1,1919.4,1398.3,1924.8,1389.2,1929.2L1389.2,1929.2z"/>
	
		<radialGradient id="SVGID_11_" cx="1431.3262" cy="156.34" r="421.2997" gradientTransform="matrix(1 0 0 -1 0 1080)" gradientUnits="userSpaceOnUse">
		<stop  offset="0" style="stop-color:#1C1C1E"/>
		<stop  offset="1" style="stop-color:#000000"/>
	</radialGradient>
	<path class="st11" d="M1162.8,1300.8c-8.4,2.6-17,4.5-25.8,5.5c-20.1,2.4-41.1,0.6-61.6-6.1c-13.3-4.3-25.5-10.4-36.6-17.9
		c-8.6-5.8-16.4-12.5-23.5-19.9c-35.3-37.2-49.7-92.1-32.8-144.3c17-52.2,60.9-88.2,111.3-97.5c10-1.8,20.3-2.6,30.7-2.3
		c2.4-4,4.8-7.9,7.2-11.8c2.4-3.9,4.9-7.7,7.4-11.5c2.5-3.8,5-7.5,7.6-11.3c2.6-3.7,5.2-7.4,7.8-11c2.6-3.6,5.3-7.2,8-10.8
		c2.7-3.6,5.4-7.1,8.2-10.6c2.8-3.5,5.6-7,8.4-10.4c33.8-40.9,72.4-77,114.7-107.7c42.3-30.8,88.5-56.4,137.9-75.8
		c0.5-9.7,1.6-19.1,3.3-28.5c19.2-107.4,113.1-188.8,226-188.8c112.9,0,206.8,81.5,226,188.8c-4.4-1.6-8.9-3.2-13.3-4.8
		c-4.5-1.6-9-3-13.5-4.5c-4.6-1.5-9.2-2.9-13.8-4.2c-4.7-1.4-9.3-2.7-14-4c-4.8-1.3-9.5-2.5-14.3-3.7
		c-24.7-62.5-85.7-106.7-157.1-106.7c-71.3,0-132.3,44.2-157.1,106.7c-3.6,9.1-6.5,18.6-8.4,28.5c-2.2,10.9-3.4,22.1-3.4,33.6
		c0,23.9,5,46.6,13.9,67.2c3.5,8,7.5,15.6,12.1,22.9c29.9,47.3,82.7,78.8,142.8,78.8c60.1,0,112.9-31.4,142.8-78.8
		c4,1.2,8,2.4,12,3.7c3.9,1.3,7.9,2.6,11.8,4c3.9,1.4,7.8,2.8,11.6,4.3c3.8,1.5,7.6,3,11.4,4.5c3.8,1.6,7.5,3.1,11.3,4.8
		c-39.2,70.5-114.5,118.3-200.9,118.3c-86.4,0-161.7-47.7-200.9-118.3c-4.1-7.4-7.8-15-11.1-22.9c-34.3,15.2-66.7,33.9-96.6,55.7
		c-30,21.8-57.8,46.8-82.8,74.7c-2.7,3-5.4,6.1-8,9.2c-2.6,3.1-5.2,6.2-7.8,9.3c-2.6,3.1-5.1,6.3-7.6,9.5c-2.5,3.2-4.9,6.5-7.4,9.7
		c-2.4,3.3-4.8,6.6-7.2,9.9c-2.3,3.3-4.7,6.7-6.9,10.1c-2.3,3.4-4.5,6.9-6.7,10.3c6.5,6,12.4,12.6,17.7,19.7
		c27.1,36.3,36.7,84.8,21.7,131.2C1242.4,1253.8,1206.1,1287.3,1162.8,1300.8L1162.8,1300.8L1162.8,1300.8z"/>
</g>
<g>
	<path class="st12" d="M1998.2-469.4c-21.6,30.5-57.1,50.4-97.2,50.4s-75.7-19.9-97.2-50.4c-4.2-5.9-7.8-12.2-10.9-18.8
		c-7-15.2-10.9-32-10.9-49.8c0-11.5,1.6-22.7,4.7-33.2c2.4-8.2,5.6-16.1,9.6-23.4c20.1-37.2,59.5-62.4,104.7-62.4
		c45.2,0,84.6,25.2,104.7,62.4c4,7.4,7.2,15.2,9.6,23.4c3.7,0.8,7.4,1.7,11.1,2.6c3.6,0.9,7.3,1.9,10.9,2.9c3.6,1,7.2,2,10.8,3.1
		c3.6,1.1,7.1,2.2,10.6,3.3c3.5,1.1,7,2.3,10.5,3.5c3.5,1.2,7,2.4,10.4,3.7c3.4,1.3,6.9,2.6,10.3,3.9
		c40.7,16.1,78.8,37.1,113.6,62.5c34.9,25.3,66.7,55,94.5,88.7c7.7-2.1,15.4-3.6,23.1-4.7c89-12.3,176.8,40.6,205.5,129
		c28.7,88.5-11.2,182.8-90.4,225.2c0.2-3.9,0.3-7.8,0.4-11.7c0.1-3.9,0.1-7.8,0.1-11.8c0-4-0.1-7.9-0.2-11.9c-0.1-4-0.3-8-0.4-12
		c-0.2-4.1-0.4-8.1-0.7-12.2c42.7-35.3,61.8-94.3,43.6-150.2c-18.2-55.9-68.3-92.4-123.6-95.9c-8.1-0.5-16.2-0.3-24.4,0.6
		c-9.1,1-18.2,3-27.2,5.9c-18.7,6.1-35.3,15.7-49.1,28c-5.4,4.7-10.3,9.9-14.8,15.3c-29.5,35.5-40.7,84.8-25.3,132
		c15.3,47.1,53.4,80.5,98.1,91.9c0.1,3.5,0.1,6.9,0.1,10.3c0,3.4,0,6.8-0.1,10.2c-0.1,3.4-0.2,6.8-0.4,10.2
		c-0.2,3.4-0.4,6.7-0.6,10.1c-0.3,3.3-0.6,6.7-0.9,10c-65.2-12.8-121.8-59.6-143.8-127.3c-22-67.7-3.8-138.8,41.5-187.5
		c4.7-5.1,9.8-9.9,15.1-14.5c-20.6-23-43.5-43.6-68.2-61.5c-24.7-18-51.4-33.4-79.6-45.9c-3.1-1.3-6.1-2.7-9.2-3.9
		c-3.1-1.3-6.2-2.5-9.3-3.7c-3.1-1.2-6.3-2.4-9.4-3.5c-3.2-1.1-6.3-2.2-9.5-3.3c-3.2-1.1-6.4-2.1-9.6-3.1c-3.2-1-6.4-1.9-9.7-2.9
		c-3.3-0.9-6.5-1.8-9.8-2.6C2006-481.7,2002.4-475.3,1998.2-469.4L1998.2-469.4z"/>
	<path class="st12" d="M2311.4-100.5c-35.6-11.1-65.5-38.7-77.9-76.9c-12.4-38.2-4.5-78.1,17.8-108.1c4.3-5.8,9.2-11.2,14.6-16.2
		c12.3-11.3,27.1-20.3,44-25.8c11-3.6,22.1-5.4,33-5.8c8.5-0.3,17,0.4,25.3,1.9c41.6,7.7,77.7,37.3,91.7,80.3
		c14,43,2.1,88.3-27,118.9c-5.8,6.1-12.2,11.6-19.3,16.4c0.3,3.8,0.6,7.6,0.9,11.3c0.3,3.8,0.5,7.5,0.6,11.3
		c0.2,3.7,0.3,7.5,0.4,11.2c0.1,3.7,0.1,7.4,0.2,11.1c0,3.7,0,7.4-0.1,11.1c-0.1,3.7-0.2,7.4-0.3,11c-0.1,3.7-0.3,7.3-0.6,11
		c-2.7,43.6-11,86.4-24.3,127.4c-13.3,41-31.7,80.4-55.2,117.3c4.3,6.7,8.2,13.6,11.6,20.6c39.2,80.9,16,180.6-59.2,235.3
		c-75.2,54.7-177.3,45.8-242.1-16.4c3.7-1,7.5-2.1,11.2-3.3c3.7-1.1,7.5-2.3,11.2-3.5c3.7-1.2,7.5-2.5,11.2-3.8
		c3.8-1.3,7.5-2.7,11.3-4.1c3.8-1.4,7.6-2.9,11.4-4.5c46.8,29.7,108.8,29.6,156.4-4.9c47.5-34.5,66.8-93.5,53-147.2
		c-2-7.8-4.7-15.5-8.2-23.1c-3.8-8.3-8.5-16.4-14-24c-11.6-15.9-25.9-28.7-41.8-38.1c-6.2-3.6-12.6-6.8-19.2-9.4
		c-42.9-17.1-93.3-12.5-133.3,16.7c-40.1,29.1-60,75.6-57.1,121.7c-3.3,1.1-6.5,2.3-9.8,3.3c-3.3,1-6.5,2.1-9.8,3
		c-3.3,1-6.5,1.9-9.8,2.8c-3.3,0.9-6.5,1.7-9.8,2.5c-3.3,0.8-6.5,1.5-9.8,2.3c-8-66,19-134.2,76.6-176.1
		c57.6-41.8,130.9-46.5,191.1-18.4c6.3,2.9,12.5,6.2,18.5,9.9c15.5-26.7,28-54.9,37.4-83.9c9.5-29,15.9-59.2,19-89.9
		c0.3-3.3,0.6-6.6,0.9-10c0.3-3.3,0.5-6.7,0.7-10c0.2-3.3,0.3-6.7,0.4-10c0.1-3.3,0.2-6.7,0.2-10c0-3.4,0-6.7,0-10.1
		c-0.1-3.4-0.1-6.7-0.3-10.1c-0.1-3.4-0.3-6.8-0.5-10.1C2325.5-96.9,2318.3-98.4,2311.4-100.5L2311.4-100.5z"/>
	<path class="st12" d="M2246.4,406.1c-36.6,26.6-83.3,29.3-121.4,11.1c-7.6-3.6-14.8-8.1-21.6-13.3c-3.5,1.5-7,3-10.5,4.4
		c-3.5,1.4-7,2.8-10.5,4.1c-3.5,1.3-7,2.6-10.5,3.8c-3.5,1.2-7,2.4-10.5,3.6c-3.5,1.1-7,2.3-10.6,3.3c-3.5,1.1-7.1,2.1-10.6,3.1
		c-3.5,1-7.1,2-10.7,2.9c-42.3,10.9-85.6,16.3-128.6,16.2c-43.1,0-86.3-5.3-128.6-16.2c-5,6.2-10.4,12-16,17.4
		c-64.8,62.2-166.8,71.1-242.1,16.4c-75.2-54.7-98.4-154.4-59.2-235.3c2.2,3.2,4.3,6.4,6.6,9.6c2.2,3.2,4.5,6.4,6.8,9.6
		c2.3,3.2,4.7,6.4,7.1,9.5c2.4,3.2,4.9,6.3,7.4,9.5c2.5,3.2,5.1,6.3,7.7,9.4c-13.8,53.6,5.4,112.7,53,147.2
		c47.5,34.5,109.6,34.6,156.4,4.9c6.8-4.3,13.3-9.3,19.4-14.9c6.7-6.2,12.9-13.1,18.5-20.8c11.6-15.9,19.3-33.5,23.3-51.5
		c1.5-7,2.6-14,3-21.1c3-46-17-92.5-57-121.7c-40.1-29.1-90.5-33.7-133.3-16.7c-2.1-2.7-4.2-5.5-6.2-8.3c-2-2.8-4-5.6-5.9-8.4
		c-1.9-2.8-3.8-5.6-5.7-8.4c-1.8-2.8-3.6-5.7-5.4-8.6c-1.8-2.9-3.5-5.7-5.2-8.6c60.3-28,133.5-23.4,191.1,18.5
		c57.6,41.8,84.7,110.1,76.6,176.1c-0.8,6.9-2.1,13.8-3.7,20.6c30.2,6.5,60.8,9.7,91.4,9.7c30.5,0,61.2-3.2,91.4-9.7
		c3.3-0.7,6.5-1.4,9.8-2.2c3.2-0.8,6.5-1.6,9.7-2.5c3.2-0.9,6.5-1.7,9.7-2.7c3.2-0.9,6.4-1.9,9.6-2.9c3.2-1,6.4-2.1,9.6-3.1
		c3.2-1.1,6.4-2.2,9.5-3.4c3.2-1.2,6.3-2.4,9.5-3.6c-1.4-7.2-2.2-14.4-2.3-21.6c-0.5-37.3,16.6-74.3,49.1-97.9
		c32.5-23.6,72.9-28.4,108.3-16.4c6.9,2.3,13.5,5.3,19.9,8.8c14.6,8.2,27.6,19.5,38.1,33.9c6.8,9.3,12,19.3,15.7,29.6
		c2.9,8,4.9,16.3,6,24.6C2300,335.9,2283,379.5,2246.4,406.1L2246.4,406.1z"/>
	<path class="st12" d="M1676.9,417.2c-38.1,18.2-84.8,15.5-121.4-11.1c-36.6-26.6-53.6-70.1-48.1-112c1.1-8.3,3.1-16.6,6-24.6
		c-2.5-2.9-5-5.7-7.4-8.6c-2.4-2.9-4.8-5.8-7.1-8.7c-2.3-2.9-4.6-5.9-6.9-8.8c-2.3-3-4.5-5.9-6.7-8.9c-2.2-3-4.3-6-6.4-9
		c-2.1-3-4.2-6.1-6.2-9.1c-2-3.1-4-6.1-6-9.2c-23.5-36.9-41.9-76.3-55.2-117.3c-13.3-40.9-21.6-83.7-24.3-127.4
		c-7.4-2.9-14.6-6.1-21.5-9.8c-79.2-42.4-119.2-136.7-90.4-225.2c28.7-88.5,116.5-141.3,205.5-129c-2.4,3-4.8,6.1-7.1,9.2
		c-2.4,3.1-4.7,6.3-7,9.4c-2.3,3.2-4.6,6.4-6.8,9.7c-2.3,3.3-4.5,6.6-6.7,10c-2.2,3.4-4.4,6.8-6.6,10.3
		c-55.3,3.5-105.5,40-123.6,95.9c-18.2,55.9,1,114.9,43.6,150.2c6.2,5.2,13,9.8,20.2,13.9c7.9,4.5,16.5,8.3,25.5,11.2
		c18.7,6.1,37.8,8,56.2,6.2c7.1-0.7,14.1-1.9,21-3.7c44.7-11.4,82.8-44.7,98.1-91.9c15.3-47.1,4.1-96.5-25.3-132c2-2.8,4-5.7,6-8.4
		c2-2.8,4.1-5.5,6.1-8.2c2.1-2.7,4.2-5.4,6.3-8c2.1-2.6,4.3-5.2,6.4-7.8c2.2-2.6,4.4-5.1,6.6-7.6c45.3,48.7,63.5,119.8,41.5,187.5
		c-22,67.7-78.6,114.5-143.8,127.3c-6.8,1.3-13.8,2.3-20.7,2.9c3.1,30.7,9.6,60.8,19,89.9c9.4,29,21.9,57.2,37.4,83.9
		c1.7,2.9,3.4,5.8,5.1,8.6c1.7,2.9,3.5,5.7,5.3,8.5c1.8,2.8,3.7,5.6,5.5,8.4c1.9,2.8,3.8,5.5,5.7,8.2c1.9,2.7,3.9,5.4,5.9,8.1
		c2,2.7,4.1,5.4,6.2,8c2.1,2.7,4.2,5.3,6.4,7.9c6.4-3.6,13-6.5,19.9-8.8c35.3-12,75.8-7.2,108.3,16.4c32.5,23.6,49.5,60.6,49.1,97.9
		c-0.1,7.2-0.8,14.5-2.3,21.6c-3.2,16.4-10,32.3-20.5,46.7c-6.8,9.3-14.6,17.4-23.3,24.1C1691.7,409.1,1684.5,413.5,1676.9,417.2
		L1676.9,417.2z"/>
	<path class="st12" d="M1490.4-100.5c-6.9,2.2-14,3.7-21.3,4.5c-16.6,2-33.8,0.5-50.8-5c-11-3.6-21-8.6-30.1-14.7
		c-7.1-4.8-13.5-10.3-19.3-16.4c-29.1-30.6-41-75.9-27-118.9c14-43,50.1-72.7,91.7-80.3c8.3-1.5,16.7-2.2,25.3-1.9
		c1.9-3.3,3.9-6.5,5.9-9.7c2-3.2,4-6.4,6.1-9.5c2.1-3.1,4.1-6.2,6.2-9.3c2.1-3.1,4.2-6.1,6.4-9.1c2.2-3,4.4-6,6.6-8.9
		c2.2-2.9,4.5-5.9,6.8-8.7c2.3-2.9,4.6-5.7,6.9-8.6c27.8-33.7,59.7-63.5,94.5-88.7c34.8-25.3,72.9-46.4,113.6-62.5
		c0.4-8,1.3-15.8,2.7-23.4c15.9-88.4,93.2-155.6,186.2-155.6c93,0,170.4,67.1,186.2,155.6c-3.6-1.3-7.3-2.7-11-3.9
		c-3.7-1.3-7.4-2.5-11.2-3.7c-3.8-1.2-7.5-2.4-11.3-3.5c-3.8-1.1-7.7-2.2-11.6-3.3c-3.9-1.1-7.9-2.1-11.8-3.1
		c-20.4-51.5-70.6-87.9-129.4-87.9c-58.8,0-109,36.4-129.4,87.9c-3,7.5-5.3,15.4-7,23.4c-1.8,9-2.8,18.2-2.8,27.7
		c0,19.7,4.1,38.4,11.5,55.4c2.8,6.6,6.2,12.9,10,18.8c24.6,39,68.1,64.9,117.7,64.9c49.5,0,93-25.9,117.7-64.9c3.3,1,6.6,2,9.9,3.1
		c3.3,1.1,6.5,2.2,9.7,3.3c3.2,1.1,6.4,2.3,9.6,3.5c3.2,1.2,6.3,2.4,9.4,3.7c3.1,1.3,6.2,2.6,9.3,3.9
		c-32.3,58.1-94.3,97.4-165.5,97.4c-71.2,0-133.2-39.3-165.5-97.4c-3.4-6.1-6.4-12.4-9.1-18.8c-28.3,12.5-54.9,27.9-79.6,45.9
		c-24.7,17.9-47.6,38.5-68.2,61.5c-2.2,2.5-4.4,5-6.6,7.5c-2.2,2.5-4.3,5.1-6.4,7.7c-2.1,2.6-4.2,5.2-6.2,7.9
		c-2.1,2.6-4.1,5.3-6.1,8c-2,2.7-4,5.4-5.9,8.2c-1.9,2.8-3.8,5.5-5.7,8.3c-1.9,2.8-3.7,5.6-5.5,8.5c5.4,5,10.2,10.4,14.6,16.2
		c22.3,29.9,30.3,69.8,17.8,108.1C1556-139.3,1526.1-111.6,1490.4-100.5L1490.4-100.5L1490.4-100.5z"/>
</g>
</svg>
