<?xml version="1.0" encoding="utf-8"?>
<!-- Generator: Adobe Illustrator 16.0.0, SVG Export Plug-In . SVG Version: 6.00 Build 0)  -->
<!DOCTYPE svg PUBLIC "-//W3C//DTD SVG 1.1//EN" "http://www.w3.org/Graphics/SVG/1.1/DTD/svg11.dtd">
<svg version="1.1" id="Layer_1" xmlns="http://www.w3.org/2000/svg" xmlns:xlink="http://www.w3.org/1999/xlink" x="0px" y="0px"
	 width="1366px" height="768px" viewBox="0 0 1366 768" enable-background="new 0 0 1366 768" xml:space="preserve">
<g display="none">
	<path display="inline" fill="#F0F1F2" d="M996.779,94.105c-40.065,6.414-78.216,20.317-115.065,33.538
		c-172.647,61.94-320.475,152.908-513.656,175.218c-106.266,12.283-208.908-8.601-298.033-53.563
		c-23.604-11.91-69.534-41.391-69.534-41.391L0.499-8.212H1366l0.008,144.887C1201.362,38.855,996.779,94.105,996.779,94.105z"/>
	
		<radialGradient id="SVGID_1_" cx="-1266.9316" cy="490.4805" r="702.8612" gradientTransform="matrix(1.1389 0 0 -1.4436 2329.5786 1328.5023)" gradientUnits="userSpaceOnUse">
		<stop  offset="0" style="stop-color:#FFFFFF"/>
		<stop  offset="1" style="stop-color:#9F9F9F;stop-opacity:0.4355"/>
	</radialGradient>
	<path display="inline" fill="url(#SVGID_1_)" d="M994.375,72.549c-40.064,6.615-80.691,14.256-117.537,27.889
		c-172.647,63.869-315.39,176.536-508.572,199.542c-106.265,12.665-209.534-23.076-298.658-69.439
		c-23.606-12.281-69.118-49.46-69.118-49.46L0.499-8.212H1366l0.008,163.546C1266.722,49.7,994.375,72.549,994.375,72.549z"/>
	
		<radialGradient id="SVGID_2_" cx="-1207.4702" cy="806.7061" r="602.8517" gradientTransform="matrix(1.1383 4.973244e-005 -9.255301e-005 -1.5188 2329.9219 1351.6826)" gradientUnits="userSpaceOnUse">
		<stop  offset="0" style="stop-color:#FF5D3A"/>
		<stop  offset="1" style="stop-color:#F50136"/>
	</radialGradient>
	<path display="inline" fill="url(#SVGID_2_)" d="M992.036,78.428c-40.998,5.999-80.401,21.261-118.452,35.75
		c-178.275,67.875-332.714,172.465-529.98,190.83c-108.511,10.115-211.781-20.237-300.183-79.473
		c-23.414-15.688-42.282-35.246-42.282-35.246L0.499-8.212H1366l-0.031,150.576C1242.63,43.17,992.036,78.428,992.036,78.428z"/>
	
		<radialGradient id="SVGID_3_" cx="-1620.7271" cy="1335.3594" r="725.5842" gradientTransform="matrix(1.137 0 0 -0.9633 2330.7097 1357.9087)" gradientUnits="userSpaceOnUse">
		<stop  offset="0" style="stop-color:#FFFFFF"/>
		<stop  offset="1" style="stop-color:#9F9F9F;stop-opacity:0.4355"/>
	</radialGradient>
	<path display="inline" fill="url(#SVGID_3_)" d="M66.498,192.358c86.838,47.793,188.376,72.887,295.184,66.02
		c194.165-12.479,346.399-93.626,522-145.478c6.339-1.867,12.729-3.757,19.147-5.63c-6.419,2.208-12.807,4.43-19.145,6.638
		c-172.741,60.091-320.648,148.347-513.942,169.996c-106.326,11.919-209.017-8.344-298.197-51.967
		c-23.618-11.555-50.256-24.987-71.042-41.297v-40.538C20.022,166.347,44.559,180.288,66.498,192.358z"/>
	<path display="inline" fill="#FFFFFF" d="M996.779,85.513c-40.065,5.907-78.216,18.713-115.065,30.891
		c-172.645,57.05-320.473,140.839-513.656,161.388c-106.266,11.314-208.908-7.925-298.033-49.337
		C46.42,217.486,0.491,190.332,0.491,190.332L0.499-8.212H1366l0.008,132.936C1201.362,34.625,996.779,85.513,996.779,85.513z"/>
	<path display="inline" fill="#F0F1F2" d="M369.719,666.388c40.066-6.413,78.216-20.316,115.065-33.537
		C657.432,570.909,805.26,479.942,998.44,457.632c106.266-12.283,208.908,8.602,298.033,53.563
		c23.604,11.91,69.534,41.392,69.534,41.392l-0.009,216.118H0.499L0.491,623.818C165.136,721.638,369.719,666.388,369.719,666.388z"
		/>
	
		<radialGradient id="SVGID_4_" cx="203.5679" cy="-244.4565" r="702.8604" gradientTransform="matrix(-1.1389 0 0 1.4436 711.6686 492.9137)" gradientUnits="userSpaceOnUse">
		<stop  offset="0" style="stop-color:#FFFFFF"/>
		<stop  offset="1" style="stop-color:#9F9F9F;stop-opacity:0.4355"/>
	</radialGradient>
	<path display="inline" fill="url(#SVGID_4_)" d="M372.123,687.944c40.065-6.615,80.693-14.257,117.538-27.89
		c172.648-63.869,315.389-176.534,508.573-199.542c106.265-12.664,209.533,23.077,298.657,69.44
		c23.606,12.281,69.118,49.46,69.118,49.46L1366,768.705H0.499L0.491,605.159C99.776,710.793,372.123,687.944,372.123,687.944z"/>
	
		<radialGradient id="SVGID_5_" cx="263.7036" cy="108.2207" r="602.851" gradientTransform="matrix(-1.1383 -4.973244e-005 9.255301e-005 1.5188 711.3203 469.7334)" gradientUnits="userSpaceOnUse">
		<stop  offset="0" style="stop-color:#FF5D3A"/>
		<stop  offset="1" style="stop-color:#F50136"/>
	</radialGradient>
	<path display="inline" fill="url(#SVGID_5_)" d="M374.462,682.064c40.998-5.998,80.402-21.261,118.452-35.748
		c178.276-67.875,332.714-172.466,529.98-190.831c108.511-10.114,211.78,20.238,300.184,79.474
		c23.413,15.688,42.282,35.246,42.282,35.246l0.641,198.5H0.499L0.529,618.13C123.869,717.323,374.462,682.064,374.462,682.064z"/>
	
		<radialGradient id="SVGID_6_" cx="-147.7271" cy="233.9795" r="725.5831" gradientTransform="matrix(-1.137 0 0 0.9633 710.5369 463.5089)" gradientUnits="userSpaceOnUse">
		<stop  offset="0" style="stop-color:#FFFFFF"/>
		<stop  offset="1" style="stop-color:#9F9F9F;stop-opacity:0.4355"/>
	</radialGradient>
	<path display="inline" fill="url(#SVGID_6_)" d="M1300.002,568.136c-86.838-47.794-188.378-72.888-295.185-66.021
		c-194.165,12.479-346.399,93.625-522,145.477c-6.339,1.867-12.73,3.758-19.147,5.63c6.418-2.207,12.806-4.43,19.144-6.638
		c172.741-60.091,320.648-148.346,513.942-169.996c106.325-11.919,209.018,8.345,298.197,51.968
		c23.618,11.555,50.256,24.987,71.041,41.297v40.539C1346.478,594.146,1321.94,580.204,1300.002,568.136z"/>
	<path display="inline" fill="#FFFFFF" d="M369.719,664.196c40.066-5.907,78.216-18.713,115.065-30.891
		c172.646-57.05,320.474-140.839,513.656-161.389c106.266-11.314,208.908,7.924,298.033,49.337
		c23.604,10.97,69.534,38.123,69.534,38.123l-0.009,198.545H0.499L0.491,624.986C165.136,715.084,369.719,664.196,369.719,664.196z"
		/>
</g>
<g>
	<path fill="none" d="M1566.322,512.019v88.572H-309.393v-88.572c327.225,48.778,644.777,73.166,952.668,73.166
		C951.156,585.186,1258.842,560.797,1566.322,512.019z"/>
	
		<radialGradient id="FONDO_1_" cx="800.4648" cy="84.0107" r="688.9945" gradientTransform="matrix(0.9769 0 0 -1.2256 -153.537 483.703)" gradientUnits="userSpaceOnUse">
		<stop  offset="0" style="stop-color:#FFFFFF"/>
		<stop  offset="1" style="stop-color:#D7D7D7"/>
	</radialGradient>
	<path id="FONDO" fill="url(#FONDO_1_)" d="M1566.322,176.295v335.727c-307.48,48.776-615.166,73.164-923.047,73.164
		c-307.891,0.003-625.443-24.388-952.668-73.164V176.295H1566.322z"/>
	<g>
		
			<linearGradient id="SVGID_7_" gradientUnits="userSpaceOnUse" x1="1168.9883" y1="128.2212" x2="3124.8096" y2="128.2212" gradientTransform="matrix(-1 0 0 -1 2880 473)">
			<stop  offset="0" style="stop-color:#D6D7DB"/>
			<stop  offset="0.2937" style="stop-color:#DADBDE"/>
			<stop  offset="0.587" style="stop-color:#E6E6E9"/>
			<stop  offset="0.8304" style="stop-color:#F6F6F7"/>
		</linearGradient>
		<rect x="-244.81" y="-111.999" fill="url(#SVGID_7_)" width="1955.821" height="913.556"/>
		<rect x="-244.81" y="-111.999" fill="none" width="1955.821" height="911.285"/>
		<path opacity="0.02" fill="#202020" enable-background="new    " d="M1846.389,887.588
			c38.54-0.685-1447.929,26.439-2062.588-864.166l1831.553-160.394L1846.389,887.588z"/>
		
			<linearGradient id="SVGID_8_" gradientUnits="userSpaceOnUse" x1="1014.0801" y1="105.3408" x2="3076.6719" y2="105.3408" gradientTransform="matrix(-1 0 0 -1 2880 473)">
			<stop  offset="0" style="stop-color:#D6D7DB"/>
			<stop  offset="0.2937" style="stop-color:#DADBDE"/>
			<stop  offset="0.587" style="stop-color:#E6E6E9"/>
			<stop  offset="0.8304" style="stop-color:#F6F6F7"/>
		</linearGradient>
		<path fill="url(#SVGID_8_)" d="M1865.92,879.901c0,0-1448.41,25.754-2062.592-864.167L1634.881-144.66L1865.92,879.901z"/>
		
			<linearGradient id="SVGID_9_" gradientUnits="userSpaceOnUse" x1="812.9434" y1="150.1963" x2="3563.7002" y2="150.1963" gradientTransform="matrix(-1 0 0 -1 2880 473)">
			<stop  offset="0" style="stop-color:#D6D7DB"/>
			<stop  offset="0.2937" style="stop-color:#DADBDE"/>
			<stop  offset="0.587" style="stop-color:#E6E6E9"/>
			<stop  offset="0.8304" style="stop-color:#F6F6F7"/>
		</linearGradient>
		<ellipse fill="url(#SVGID_9_)" cx="691.679" cy="322.803" rx="1375.378" ry="410.857"/>
		
			<linearGradient id="SVGID_10_" gradientUnits="userSpaceOnUse" x1="1008.7939" y1="140.3945" x2="3001.0332" y2="140.3945" gradientTransform="matrix(-1 0 0 -1 2880 473)">
			<stop  offset="0" style="stop-color:#D6D7DB"/>
			<stop  offset="0.2937" style="stop-color:#DADBDE"/>
			<stop  offset="0.587" style="stop-color:#E6E6E9"/>
			<stop  offset="0.8304" style="stop-color:#F6F6F7"/>
		</linearGradient>
		<path fill="url(#SVGID_10_)" d="M1751.193,44.438l120.013,532.208c-216.257,86.766-544.442,147.162-920.705,162.12
			C559.973,619.748,142.615,406.467-121.033,24.462L998.227-73.555C1291.052-58.767,1552.422-16.34,1751.193,44.438z"/>
		
			<linearGradient id="SVGID_11_" gradientUnits="userSpaceOnUse" x1="1016.5713" y1="180.6089" x2="3608.3965" y2="180.6089" gradientTransform="matrix(-1 0 0 -1 2880 473)">
			<stop  offset="0" style="stop-color:#D6D7DB"/>
			<stop  offset="0.2937" style="stop-color:#DADBDE"/>
			<stop  offset="0.587" style="stop-color:#E6E6E9"/>
			<stop  offset="0.8304" style="stop-color:#F6F6F7"/>
		</linearGradient>
		<ellipse fill="url(#SVGID_11_)" cx="567.516" cy="292.391" rx="1295.913" ry="370.991"/>
		
			<linearGradient id="SVGID_12_" gradientUnits="userSpaceOnUse" x1="1104.6133" y1="244.0269" x2="3044.2324" y2="244.0269" gradientTransform="matrix(-1 0 0 -1 2880 473)">
			<stop  offset="0" style="stop-color:#D6D7DB"/>
			<stop  offset="0.2937" style="stop-color:#DADBDE"/>
			<stop  offset="0.587" style="stop-color:#E6E6E9"/>
			<stop  offset="0.8304" style="stop-color:#F6F6F7"/>
		</linearGradient>
		<path fill="url(#SVGID_12_)" d="M877.152-136.972c344.854,21.839,638.072,82.998,819.322,166.219l78.912,349.958
			c-189.834,118.992-592.922,204.252-1069.379,215.713c-326.53-126.35-650.74-325.841-870.24-640.693L877.152-136.972z"/>
		
			<linearGradient id="SVGID_13_" gradientUnits="userSpaceOnUse" x1="1230.042" y1="140.3936" x2="2448.3291" y2="140.3936" gradientTransform="matrix(-1 0 0 -1 2880 473)">
			<stop  offset="0" style="stop-color:#D6D7DB"/>
			<stop  offset="0.2937" style="stop-color:#DADBDE"/>
			<stop  offset="0.587" style="stop-color:#E6E6E9"/>
			<stop  offset="0.8304" style="stop-color:#F6F6F7"/>
		</linearGradient>
		<path fill="url(#SVGID_13_)" d="M1520.47,0.193c16.798,3.719,33.307,7.554,49.509,11.493c0.43,0.103,0.866,0.208,1.299,0.315
			c5.155,1.256,10.281,2.521,15.373,3.8c0.124,0.032,0.248,0.062,0.371,0.092c10.476,2.633,20.814,5.31,31.02,8.033
			c0.753,0.201,1.5,0.403,2.252,0.604c4.239,1.135,8.45,2.28,12.641,3.428c0.9,0.249,1.799,0.493,2.696,0.742
			c4.806,1.328,9.586,2.661,14.328,4.007l0,0l-107.905,613.016c-0.905,0.213-1.809,0.427-2.717,0.638
			c-5.978,1.402-11.986,2.789-18.044,4.16c-1.203,0.271-2.423,0.54-3.631,0.813c-5.612,1.26-11.257,2.51-16.935,3.744
			c-1.283,0.28-2.561,0.561-3.851,0.84c-6.504,1.405-13.046,2.791-19.636,4.163c-1.174,0.246-2.356,0.484-3.533,0.733
			c-6.866,1.418-13.762,2.823-20.716,4.205c-234.427-32.58-887.496-167.156-1021.32-664.827H1520.47z"/>
		
			<linearGradient id="SVGID_14_" gradientUnits="userSpaceOnUse" x1="1241.3408" y1="165.2275" x2="2448.3301" y2="165.2275" gradientTransform="matrix(-1 0 0 -1 2880 473)">
			<stop  offset="0" style="stop-color:#D6D7DB"/>
			<stop  offset="0.2937" style="stop-color:#DADBDE"/>
			<stop  offset="0.587" style="stop-color:#E6E6E9"/>
			<stop  offset="0.8304" style="stop-color:#F6F6F7"/>
		</linearGradient>
		<path fill="url(#SVGID_14_)" d="M1309.619,0.193c129.179,26.205,240.847,59.012,329.04,96.711l-76.253,433.2
			c-99.762,34.185-220.609,63.144-356.83,85.248C917.505,539.427,531.146,370.117,431.67,0.194L1309.619,0.193L1309.619,0.193z"/>
		<path fill="none" d="M212.278,252.478V681.27c0,16.101,23.147,29.149,51.7,29.149h1430.653c28.555,0,51.697-13.049,51.697-29.149
			V252.478c0-16.095-23.143-29.146-51.697-29.146H263.979C235.425,223.331,212.278,236.384,212.278,252.478z"/>
	</g>
</g>
</svg>
