<?xml version="1.0" encoding="utf-8"?>
<!-- Generator: Adobe Illustrator 23.0.1, SVG Export Plug-In . SVG Version: 6.00 Build 0)  -->
<svg version="1.1" id="abd5c76d-7219-42bc-94fd-ab97f702b65a"
	 xmlns="http://www.w3.org/2000/svg" xmlns:xlink="http://www.w3.org/1999/xlink" x="0px" y="0px" viewBox="0 0 567.2 517.3"
	 style="enable-background:new 0 0 567.2 517.3;" xml:space="preserve">
<style type="text/css">
	.st0{fill:#FFFFFF;stroke:#E6E6E6;stroke-width:7;stroke-miterlimit:10;}
	.st1{fill:#E6E6E6;}
	.st2{fill:#3F3D56;}
	.st3{font-family:'Roboto-Medium';}
	.st4{font-size:18.6365px;}
	.st5{opacity:0.1;enable-background:new    ;}
	.st6{enable-background:new    ;}
</style>
<path class="st0" d="M413.8,491.3L176.6,428c-8.5-2.3-13.6-11-11.3-19.6L269.5,17.9c2.3-8.5,11-13.6,19.6-11.3l237.2,63.3
	c8.5,2.3,13.6,11,11.3,19.6L433.4,479.9C431.1,488.5,422.4,493.5,413.8,491.3z"/>
<path class="st1" d="M361.3,461.6l-116.6-20.7c-3-0.5-5-3.4-4.5-6.4s3.4-5,6.4-4.5l116.6,20.7c3,0.5,5,3.4,4.5,6.4
	C367.2,460.1,364.3,462.1,361.3,461.6z"/>
<path class="st1" d="M325.9,439.9l-40.5-7.2c-2.9-0.5-4.9-3.3-4.3-6.2c0.5-2.9,3.3-4.9,6.2-4.3l40.5,7.2c2.9,0.5,4.9,3.3,4.3,6.2
	C331.6,438.5,328.8,440.5,325.9,439.9z"/>
<g>
	
		<rect x="385.6" y="164.5" transform="matrix(0.2578 -0.9662 0.9662 0.2578 129.5501 502.8735)" class="st2" width="13" height="5.2"/>
	
		<rect x="395.5" y="167.2" transform="matrix(0.2578 -0.9662 0.9662 0.2578 134.3466 514.4673)" class="st2" width="13" height="5.2"/>
	
		<rect x="385.7" y="178.3" transform="matrix(0.2578 -0.9662 0.9662 0.2578 113.4443 509.471)" class="st2" width="5.2" height="5.2"/>
	
		<rect x="395.8" y="181" transform="matrix(0.2578 -0.9662 0.9662 0.2578 118.2877 521.1774)" class="st2" width="5.2" height="5.2"/>
	
		<rect x="365.6" y="183.6" transform="matrix(0.2578 -0.9662 0.9662 0.2578 93.3207 493.9687)" class="st2" width="5.2" height="5.2"/>
	
		<rect x="339.7" y="230.4" transform="matrix(0.2578 -0.9662 0.9662 0.2578 28.9288 503.7024)" class="st2" width="5.2" height="5.2"/>
	
		<rect x="393.1" y="191" transform="matrix(0.2578 -0.9662 0.9662 0.2578 106.5814 526.0208)" class="st2" width="5.2" height="5.2"/>
	
		<rect x="380.4" y="198.4" transform="matrix(0.2578 -0.9662 0.9662 0.2578 90.0784 519.2701)" class="st2" width="5.2" height="5.2"/>
	
		<rect x="390.5" y="201.1" transform="matrix(0.2578 -0.9662 0.9662 0.2578 94.9217 530.9766)" class="st2" width="5.2" height="5.2"/>
	<path class="st2" d="M315,83.6l7.5,2l1.3-5l-10-2.7c-1.4-0.4-2.8,0.5-3.2,1.8l-2.7,10l5,1.3L315,83.6z"/>
	<path class="st2" d="M469.2,119.3l-10-2.7l-1.3,5l7.5,2l-2,7.5l5,1.3l2.7-10C471.4,121.1,470.6,119.7,469.2,119.3z"/>
	<path class="st2" d="M276.9,226.4l-5-1.3l-2.7,10c-0.4,1.4,0.5,2.8,1.8,3.2l10,2.7l1.3-5l-7.5-2L276.9,226.4z"/>
	<path class="st2" d="M425.3,274l-7.5-2l-1.3,5l10,2.7c1.4,0.4,2.8-0.5,3.2-1.8l2.7-10l-5-1.3L425.3,274z"/>
	<path class="st2" d="M318.1,92.4l-8,30.1c-0.4,1.4,0.5,2.8,1.8,3.2l30.1,8c1.4,0.4,2.8-0.5,3.2-1.8l8-30.1c0.4-1.4-0.5-2.8-1.8-3.2
		l-30.1-8C319.8,90.2,318.4,91,318.1,92.4z M322.4,96.3l25.1,6.7l-6.7,25.1l-25.1-6.7L322.4,96.3z"/>
	<path class="st2" d="M338.6,105.9l-10-2.7c-1.4-0.4-2.8,0.5-3.2,1.8l-2.7,10c-0.4,1.4,0.5,2.8,1.8,3.2l10,2.7
		c1.4,0.4,2.8-0.5,3.2-1.8l2.7-10C340.8,107.7,340,106.3,338.6,105.9z M333.4,115.3l-5-1.3l1.3-5l5,1.3L333.4,115.3z"/>
	<path class="st2" d="M417.1,153.7l30.1,8c1.4,0.4,2.8-0.5,3.2-1.8l8-30.1c0.4-1.4-0.5-2.8-1.8-3.2l-30.1-8
		c-1.4-0.4-2.8,0.5-3.2,1.8l-8,30.1C414.9,151.9,415.7,153.4,417.1,153.7z M427.6,124.3l25.1,6.7l-6.7,25.1l-25.1-6.7L427.6,124.3z"
		/>
	<path class="st2" d="M443.8,134l-10-2.7c-1.4-0.4-2.8,0.5-3.2,1.8l-2.7,10c-0.4,1.4,0.5,2.8,1.8,3.2l10,2.7
		c1.4,0.4,2.8-0.5,3.2-1.8l2.7-10C446,135.8,445.2,134.4,443.8,134z M438.6,143.4l-5-1.3l1.3-5l5,1.3L438.6,143.4z"/>
	<path class="st2" d="M323.2,203.8l-30.1-8c-1.4-0.4-2.8,0.5-3.2,1.8l-8,30.1c-0.4,1.4,0.5,2.8,1.8,3.2l30.1,8
		c1.4,0.4,2.8-0.5,3.2-1.8l8-30.1C325.4,205.6,324.6,204.2,323.2,203.8z M312.7,233.2l-25.1-6.7l6.7-25.1l25.1,6.7L312.7,233.2z"/>
	<path class="st2" d="M296.5,223.5l10,2.7c1.4,0.4,2.8-0.5,3.2-1.8l2.7-10c0.4-1.4-0.5-2.8-1.8-3.2l-10-2.7
		c-1.4-0.4-2.8,0.5-3.2,1.8l-2.7,10C294.3,221.7,295.1,223.2,296.5,223.5z M301.7,214.2l5,1.3l-1.3,5l-5-1.3L301.7,214.2z"/>
	<path class="st2" d="M408.9,154.2l-17.5-4.7l8-30.1l-5-1.3l-8.7,32.6c-0.4,1.4,0.5,2.8,1.8,3.2l20,5.3L408.9,154.2z"/>
	
		<rect x="364" y="117.7" transform="matrix(0.2578 -0.9662 0.9662 0.2578 149.5579 448.2744)" class="st2" width="5.2" height="18.2"/>
	
		<rect x="376.7" y="110.3" transform="matrix(0.2578 -0.9662 0.9662 0.2578 166.1075 455.1375)" class="st2" width="5.2" height="18.2"/>
	
		<rect x="296.5" y="136.9" transform="matrix(0.2578 -0.9662 0.9662 0.2578 93.9676 401.2565)" class="st2" width="23.3" height="5.2"/>
	<path class="st2" d="M339.8,151.9l-25.1-6.7l-1.3,5l22.5,6l-2.7,10l5,1.3l3.3-12.5C342,153.7,341.1,152.2,339.8,151.9z"/>
	
		<rect x="319.8" y="133.9" transform="matrix(0.2578 -0.9662 0.9662 0.2578 107.3968 412.805)" class="st2" width="5.2" height="5.2"/>
	
		<rect x="341.4" y="144.5" transform="matrix(0.2578 -0.9662 0.9662 0.2578 118.9816 449.0109)" class="st2" width="20.7" height="5.2"/>
	
		<rect x="353.2" y="155.2" transform="matrix(0.2578 -0.9662 0.9662 0.2578 102.8681 467.6573)" class="st2" width="5.2" height="23.3"/>
	<path class="st2" d="M444.8,190.6l-5-1.3l-6.7,25.1l-7.5-2l-1.3,5l10,2.7c1.4,0.4,2.8-0.5,3.2-1.8L444.8,190.6z"/>
	
		<rect x="363.8" y="140.3" transform="matrix(0.2578 -0.9662 0.9662 0.2578 133.8554 460.0279)" class="st2" width="5.2" height="5.2"/>
	
		<rect x="288.9" y="170.7" transform="matrix(0.2578 -0.9662 0.9662 0.2578 54.6552 417.7189)" class="st2" width="20.7" height="5.2"/>
	
		<rect x="301.3" y="179" transform="matrix(0.2578 -0.9662 0.9662 0.2578 41.3371 435.077)" class="st2" width="5.2" height="23.3"/>
	<path class="st2" d="M417.9,180.8l5,1.3l2.7-10c0.4-1.4-0.5-2.8-1.8-3.2l-12.5-3.3l-1.3,5l10,2.7L417.9,180.8z"/>
	
		<rect x="311.1" y="166.5" transform="matrix(0.2578 -0.9662 0.9662 0.2578 69.4821 428.6232)" class="st2" width="5.2" height="5.2"/>
	
		<rect x="329.5" y="178.9" transform="matrix(0.2578 -0.9662 0.9662 0.2578 76.8896 463.097)" class="st2" width="20.7" height="5.2"/>
	
		<rect x="341.4" y="189.7" transform="matrix(0.2578 -0.9662 0.9662 0.2578 60.7762 481.7433)" class="st2" width="5.2" height="23.3"/>
	<rect x="314" y="171.6" transform="matrix(0.2578 -0.9662 0.9662 0.2578 57.8868 441.94)" class="st2" width="5.2" height="23.3"/>
	
		<rect x="325.2" y="224.6" transform="matrix(0.2578 -0.9662 0.9662 0.2578 25.7052 487.8656)" class="st2" width="10.4" height="5.2"/>
	
		<rect x="337.4" y="204.7" transform="matrix(0.2578 -0.9662 0.9662 0.2578 43.3196 489.0974)" class="st2" width="5.2" height="23.3"/>
	<path class="st2" d="M372.2,211.5l3.3-12.5c0.4-1.4-0.5-2.8-1.8-3.2l-25.1-6.7l-1.3,5l22.5,6l-2.7,10L372.2,211.5z"/>
	
		<rect x="354.3" y="175.3" transform="matrix(0.2578 -0.9662 0.9662 0.2578 93.0517 476.9094)" class="st2" width="5.2" height="5.2"/>
	
		<rect x="325.5" y="173" transform="matrix(0.2578 -0.9662 0.9662 0.2578 73.8816 447.3024)" class="st2" width="5.2" height="5.2"/>
	
		<rect x="414.9" y="256.3" transform="matrix(0.2578 -0.9662 0.9662 0.2578 64.5177 601.7908)" class="st2" width="18.2" height="5.2"/>
	
		<rect x="408.4" y="258.2" transform="matrix(0.2578 -0.9662 0.9662 0.2578 51.7887 591.6167)" class="st2" width="5.2" height="7.8"/>
	
		<rect x="407.9" y="246.6" transform="matrix(0.2578 -0.9662 0.9662 0.2578 65.8058 584.153)" class="st2" width="10.4" height="5.2"/>
	<path class="st2" d="M434.8,228.2c0.4-1.4-0.5-2.8-1.8-3.2l-27.6-7.4l-1.3,5l25.1,6.7l-4,15l5,1.3L434.8,228.2z"/>
	<path class="st2" d="M394.2,249.6l3.3-12.5c0.4-1.4-0.5-2.8-1.8-3.2l-27.6-7.4l-1.3,5l25.1,6.7l-2.7,10L394.2,249.6z"/>
	
		<rect x="410.7" y="224.1" transform="matrix(0.2578 -0.9662 0.9662 0.2578 81.3957 572.4466)" class="st2" width="5.2" height="18.2"/>
	
		<rect x="328.3" y="231.7" transform="matrix(0.2578 -0.9662 0.9662 0.2578 12.9575 498.3964)" class="st2" width="5.2" height="18.2"/>
	
		<rect x="340.3" y="234.4" transform="matrix(0.2578 -0.9662 0.9662 0.2578 32.2715 515.9639)" class="st2" width="23.3" height="5.2"/>
	
		<rect x="362.6" y="212.5" transform="matrix(0.2578 -0.9662 0.9662 0.2578 60.6465 514.4082)" class="st2" width="5.2" height="10.4"/>
	<path class="st2" d="M405.1,198.8l12.5,3.3l1.3-5l-10-2.7l4-15l-5-1.3l-4.7,17.5C402.9,197,403.7,198.4,405.1,198.8z"/>
	
		<rect x="419.6" y="183.5" transform="matrix(0.2578 -0.9662 0.9662 0.2578 129.8411 548.9427)" class="st2" width="5.2" height="13"/>
	
		<rect x="433.8" y="163" transform="matrix(0.2578 -0.9662 0.9662 0.2578 162.6248 545.4969)" class="st2" width="5.2" height="7.8"/>
	
		<rect x="440.2" y="171" transform="matrix(0.2578 -0.9662 0.9662 0.2578 163.7599 560.4677)" class="st2" width="13" height="5.2"/>
	
		<rect x="429.2" y="176.5" transform="matrix(0.2578 -0.9662 0.9662 0.2578 147.4322 550.1182)" class="st2" width="5.2" height="5.2"/>
	<path class="st2" d="M397.7,145.9l10,2.7c1.4,0.4,2.8-0.5,3.2-1.8l8.7-32.6l-5-1.3l-8,30.1l-7.5-2L397.7,145.9z"/>
	<path class="st2" d="M368.2,105.8l37.6,10l1.3-5L367,100.1c-1.4-0.4-2.8,0.5-3.2,1.8l-3.3,12.5l5,1.3L368.2,105.8z"/>
	<path class="st2" d="M358,154l17.5,4.7c1.4,0.4,2.8-0.5,3.2-1.8l5.3-20l-5-1.3l-4.7,17.5l-15-4L358,154z"/>
	
		<rect x="377.1" y="160.6" transform="matrix(0.2578 -0.9662 0.9662 0.2578 126.1044 490.523)" class="st2" width="10.4" height="5.2"/>
	
		<rect x="371" y="232.3" transform="matrix(0.2578 -0.9662 0.9662 0.2578 44.0561 540.1069)" class="st2" width="5.2" height="18.2"/>
	
		<rect x="370.8" y="240.4" transform="matrix(0.2578 -0.9662 0.9662 0.2578 33.5488 547.8488)" class="st2" width="5.2" height="23.3"/>
	<path class="st2" d="M397.9,255.9l-5-1.3l-1.3,5l7.5,2c1.4,0.4,2.8-0.5,3.2-1.8l5.3-20l-5-1.3L397.9,255.9z"/>
	
		<rect x="322.6" y="193.7" transform="matrix(0.2578 -0.9662 0.9662 0.2578 51.6912 459.9438)" class="st2" width="5.2" height="5.2"/>
	
		<rect x="382.8" y="207.1" transform="matrix(0.2578 -0.9662 0.9662 0.2578 80.9295 529.9761)" class="st2" width="5.2" height="10.4"/>
	
		<rect x="398.8" y="205" transform="matrix(0.2578 -0.9662 0.9662 0.2578 98.3205 543.2147)" class="st2" width="7.8" height="5.2"/>
	
		<rect x="394.6" y="215.6" transform="matrix(0.2578 -0.9662 0.9662 0.2578 83.9939 545.7474)" class="st2" width="5.2" height="5.2"/>
	
		<rect x="378.8" y="218.1" transform="matrix(0.2578 -0.9662 0.9662 0.2578 68.5323 533.3093)" class="st2" width="5.2" height="7.8"/>
	
		<rect x="410.5" y="206.4" transform="matrix(0.2578 -0.9662 0.9662 0.2578 104.6741 554.2302)" class="st2" width="5.2" height="5.2"/>
	
		<rect x="424.4" y="198.1" transform="matrix(0.2578 -0.9662 0.9662 0.2578 121.7555 562.5377)" class="st2" width="5.2" height="7.8"/>
	
		<rect x="379.4" y="183.5" transform="matrix(0.2578 -0.9662 0.9662 0.2578 99.9181 510.0743)" class="st2" width="5.2" height="13"/>
	
		<rect x="374.8" y="174.4" transform="matrix(0.2578 -0.9662 0.9662 0.2578 110.0456 497.2329)" class="st2" width="7.8" height="5.2"/>
</g>
<text transform="matrix(0.9846 0.1747 -0.1747 0.9846 295.5581 277.4932)" class="st3 st4">A124510</text>
<path class="st0" d="M376,490.4l-244.2-25.1c-8.8-0.9-15.2-8.8-14.3-17.6l41.3-402c0.9-8.8,8.8-15.2,17.6-14.3l244.2,25.1
	c8.8,0.9,15.2,8.8,14.3,17.6l-41.3,402C392.6,484.9,384.8,491.3,376,490.4z"/>
<path class="st1" d="M314.1,470.4l-117.8-12.1c-3-0.3-5.2-3-4.9-6.1c0.3-3,3-5.2,6.1-4.9l117.8,12.1c3,0.3,5.2,3,4.9,6.1
	S317.2,470.7,314.1,470.4z"/>
<path class="st1" d="M277.2,451.4l-40.9-4.2c-2.9-0.3-5.1-2.9-4.8-5.9s2.9-5.1,5.9-4.8l40.9,4.2c2.9,0.3,5.1,2.9,4.8,5.9
	S280.2,451.7,277.2,451.4z"/>
<g>
	
		<rect x="296.8" y="171.2" transform="matrix(0.1021 -0.9948 0.9948 0.1021 99.4261 457.7988)" class="st2" width="13" height="5.2"/>
	
		<rect x="307.2" y="172.2" transform="matrix(0.1021 -0.9948 0.9948 0.1021 107.7586 468.9914)" class="st2" width="13" height="5.2"/>
	
		<rect x="299.3" y="185.4" transform="matrix(0.1021 -0.9948 0.9948 0.1021 84.0788 469.0588)" class="st2" width="5.2" height="5.2"/>
	
		<rect x="309.6" y="186.4" transform="matrix(0.1021 -0.9948 0.9948 0.1021 92.3032 480.3305)" class="st2" width="5.2" height="5.2"/>
	
		<rect x="280.2" y="193.8" transform="matrix(0.1021 -0.9948 0.9948 0.1021 58.5405 457.6728)" class="st2" width="5.2" height="5.2"/>
	
		<rect x="261.9" y="244.1" transform="matrix(0.1021 -0.9948 0.9948 0.1021 -7.85 484.6472)" class="st2" width="5.2" height="5.2"/>
	
		<rect x="308.5" y="196.8" transform="matrix(0.1021 -0.9948 0.9948 0.1021 81.0315 488.5548)" class="st2" width="5.2" height="5.2"/>
	
		<rect x="297.1" y="206" transform="matrix(0.1021 -0.9948 0.9948 0.1021 61.6435 485.4282)" class="st2" width="5.2" height="5.2"/>
	
		<rect x="307.5" y="207" transform="matrix(0.1021 -0.9948 0.9948 0.1021 69.8677 496.6999)" class="st2" width="5.2" height="5.2"/>
	<path class="st2" d="M214.1,103.4l7.7,0.8l0.5-5.2l-10.2-1c-1.4-0.1-2.7,0.9-2.8,2.3l-1.1,10.3l5.2,0.5L214.1,103.4z"/>
	<path class="st2" d="M372,114.4l-10.3-1.1l-0.5,5.2l7.7,0.8l-0.8,7.7l5.2,0.5l1.1-10.3C374.4,115.8,373.4,114.5,372,114.4z"/>
	<path class="st2" d="M199,250.4l-5.2-0.5l-1.1,10.3c-0.1,1.4,0.9,2.7,2.3,2.8l10.3,1.1l0.5-5.2l-7.7-0.8L199,250.4z"/>
	<path class="st2" d="M353,274l-7.7-0.8l-0.5,5.2l10.3,1.1c1.4,0.1,2.7-0.9,2.8-2.3l1.1-10.3l-5.2-0.5L353,274z"/>
	<path class="st2" d="M218.5,111.7l-3.2,31c-0.1,1.4,0.9,2.7,2.3,2.8l31,3.2c1.4,0.1,2.7-0.9,2.8-2.3l3.2-31
		c0.1-1.4-0.9-2.7-2.3-2.8l-31-3.2C219.9,109.2,218.6,110.2,218.5,111.7z M223.4,114.8l25.8,2.6l-2.6,25.8l-25.8-2.6L223.4,114.8z"
		/>
	<path class="st2" d="M240.9,121.8l-10.3-1.1c-1.4-0.1-2.7,0.9-2.8,2.3l-1.1,10.3c-0.1,1.4,0.9,2.7,2.3,2.8l10.3,1.1
		c1.4,0.1,2.7-0.9,2.8-2.3l1.1-10.3C243.4,123.2,242.3,121.9,240.9,121.8z M237.3,131.8l-5.2-0.5l0.5-5.2l5.2,0.5L237.3,131.8z"/>
	<path class="st2" d="M325.9,156.6l31,3.2c1.4,0.1,2.7-0.9,2.8-2.3l3.2-31c0.1-1.4-0.9-2.7-2.3-2.8l-31-3.2
		c-1.4-0.1-2.7,0.9-2.8,2.3l-3.2,31C323.5,155.2,324.5,156.4,325.9,156.6z M331.7,125.9l25.8,2.6l-2.6,25.8l-25.8-2.6L331.7,125.9z"
		/>
	<path class="st2" d="M349.2,132.9l-10.3-1.1c-1.4-0.1-2.7,0.9-2.8,2.3l-1.1,10.3c-0.1,1.4,0.9,2.7,2.3,2.8l10.3,1.1
		c1.4,0.1,2.7-0.9,2.8-2.3l1.1-10.3C351.7,134.3,350.6,133.1,349.2,132.9z M345.6,143l-5.2-0.5l0.5-5.2l5.2,0.5L345.6,143z"/>
	<path class="st2" d="M241.1,220.9l-31-3.2c-1.4-0.1-2.7,0.9-2.8,2.3l-3.2,31c-0.1,1.4,0.9,2.7,2.3,2.8l31,3.2
		c1.4,0.1,2.7-0.9,2.8-2.3l3.2-31C243.6,222.3,242.6,221,241.1,220.9z M235.4,251.6l-25.8-2.6l2.6-25.8l25.8,2.6L235.4,251.6z"/>
	<path class="st2" d="M217.9,244.5l10.3,1.1c1.4,0.1,2.7-0.9,2.8-2.3l1.1-10.3c0.1-1.4-0.9-2.7-2.3-2.8l-10.3-1.1
		c-1.4-0.1-2.7,0.9-2.8,2.3l-1.1,10.3C215.4,243.1,216.4,244.4,217.9,244.5z M221.5,234.5l5.2,0.5l-0.5,5.2l-5.2-0.5L221.5,234.5z"
		/>
	<path class="st2" d="M317.9,158.4l-18.1-1.9l3.2-31l-5.2-0.5l-3.4,33.5c-0.1,1.4,0.9,2.7,2.3,2.8l20.6,2.1L317.9,158.4z"/>
	
		<rect x="269.2" y="128.9" transform="matrix(0.1021 -0.9948 0.9948 0.1021 106.7833 394.3025)" class="st2" width="5.2" height="18.2"/>
	
		<rect x="280.6" y="119.6" transform="matrix(0.1021 -0.9948 0.9948 0.1021 126.2793 397.3498)" class="st2" width="5.2" height="18.2"/>
	
		<rect x="204.6" y="157.1" transform="matrix(0.1021 -0.9948 0.9948 0.1021 35.31 358.4282)" class="st2" width="23.3" height="5.2"/>
	<path class="st2" d="M249.3,167l-25.8-2.6l-0.5,5.2l23.2,2.4l-1.1,10.3l5.2,0.5l1.3-12.9C251.7,168.4,250.7,167.1,249.3,167z"/>
	
		<rect x="227.1" y="151.9" transform="matrix(0.1021 -0.9948 0.9948 0.1021 52.5127 367.2388)" class="st2" width="5.2" height="5.2"/>
	
		<rect x="250.1" y="157.7" transform="matrix(0.1021 -0.9948 0.9948 0.1021 74.3353 403.0092)" class="st2" width="20.7" height="5.2"/>
	
		<rect x="265" y="167.6" transform="matrix(0.1021 -0.9948 0.9948 0.1021 61.952 427.0954)" class="st2" width="5.2" height="23.3"/>
	<path class="st2" d="M359.1,188.7l-5.2-0.5l-2.6,25.8l-7.7-0.8l-0.5,5.2l10.3,1.1c1.4,0.1,2.7-0.9,2.8-2.3L359.1,188.7z"/>
	
		<rect x="271.5" y="151.3" transform="matrix(0.1021 -0.9948 0.9948 0.1021 93.0841 410.8371)" class="st2" width="5.2" height="5.2"/>
	
		<rect x="202.3" y="191.9" transform="matrix(0.1021 -0.9948 0.9948 0.1021 -2.581 386.1366)" class="st2" width="20.7" height="5.2"/>
	
		<rect x="217.4" y="199.2" transform="matrix(0.1021 -0.9948 0.9948 0.1021 -12.2471 408.199)" class="st2" width="5.2" height="23.3"/>
	<path class="st2" d="M331,183.2l5.2,0.5l1.1-10.3c0.1-1.4-0.9-2.7-2.3-2.8l-12.9-1.3l-0.5,5.2l10.3,1.1L331,183.2z"/>
	
		<rect x="223.7" y="185.4" transform="matrix(0.1021 -0.9948 0.9948 0.1021 16.1678 393.9644)" class="st2" width="5.2" height="5.2"/>
	
		<rect x="243.7" y="193.6" transform="matrix(0.1021 -0.9948 0.9948 0.1021 32.9832 428.9044)" class="st2" width="20.7" height="5.2"/>
	
		<rect x="258.6" y="203.4" transform="matrix(0.1021 -0.9948 0.9948 0.1021 20.5999 452.9906)" class="st2" width="5.2" height="23.3"/>
	
		<rect x="228.7" y="189.9" transform="matrix(0.1021 -0.9948 0.9948 0.1021 7.1697 411.1383)" class="st2" width="5.2" height="23.3"/>
	
		<rect x="246.7" y="240.2" transform="matrix(0.1021 -0.9948 0.9948 0.1021 -15.381 468.6347)" class="st2" width="10.4" height="5.2"/>
	
		<rect x="257.1" y="218.9" transform="matrix(0.1021 -0.9948 0.9948 0.1021 3.7859 465.3415)" class="st2" width="5.2" height="23.3"/>
	<path class="st2" d="M290.7,220.7l1.3-12.9c0.1-1.4-0.9-2.7-2.3-2.8l-25.8-2.6l-0.5,5.2l23.2,2.4l-1.1,10.3L290.7,220.7z"/>
	
		<rect x="267.8" y="187.4" transform="matrix(0.1021 -0.9948 0.9948 0.1021 53.8347 439.5573)" class="st2" width="5.2" height="5.2"/>
	
		<rect x="238.9" y="189.6" transform="matrix(0.1021 -0.9948 0.9948 0.1021 25.6143 412.7732)" class="st2" width="5.2" height="5.2"/>
	
		<rect x="340.2" y="256.7" transform="matrix(0.1021 -0.9948 0.9948 0.1021 55.6551 580.2495)" class="st2" width="18.2" height="5.2"/>
	
		<rect x="334.4" y="260.7" transform="matrix(0.1021 -0.9948 0.9948 0.1021 39.4099 572.8369)" class="st2" width="5.2" height="7.8"/>
	
		<rect x="331.9" y="248.9" transform="matrix(0.1021 -0.9948 0.9948 0.1021 52.495 561.1512)" class="st2" width="10.4" height="5.2"/>
	<path class="st2" d="M355.2,227.4c0.1-1.4-0.9-2.7-2.3-2.8l-28.4-2.9l-0.5,5.2l25.8,2.6l-1.6,15.5l5.2,0.5L355.2,227.4z"/>
	<path class="st2" d="M318.5,254.9l1.3-12.9c0.1-1.4-0.9-2.7-2.3-2.8l-28.4-2.9l-0.5,5.2l25.8,2.6l-1.1,10.3L318.5,254.9z"/>
	
		<rect x="332.2" y="226.5" transform="matrix(0.1021 -0.9948 0.9948 0.1021 66.1943 544.6165)" class="st2" width="5.2" height="18.2"/>
	
		<rect x="251.9" y="247" transform="matrix(0.1021 -0.9948 0.9948 0.1021 -26.255 483.0664)" class="st2" width="5.2" height="18.2"/>
	
		<rect x="263.1" y="246.5" transform="matrix(0.1021 -0.9948 0.9948 0.1021 -1.0382 496.9704)" class="st2" width="23.3" height="5.2"/>
	
		<rect x="282.2" y="222.8" transform="matrix(0.1021 -0.9948 0.9948 0.1021 28.9311 487.9961)" class="st2" width="5.2" height="10.4"/>
	<path class="st2" d="M321.2,203l12.9,1.3l0.5-5.2l-10.3-1.1l1.6-15.5l-5.2-0.5l-1.9,18.1C318.7,201.6,319.8,202.9,321.2,203z"/>
	
		<rect x="334.1" y="185.1" transform="matrix(0.1021 -0.9948 0.9948 0.1021 111.7874 506.9496)" class="st2" width="5.2" height="13"/>
	
		<rect x="344.5" y="162.6" transform="matrix(0.1021 -0.9948 0.9948 0.1021 145.9945 494.8209)" class="st2" width="5.2" height="7.8"/>
	
		<rect x="351.7" y="169" transform="matrix(0.1021 -0.9948 0.9948 0.1021 150.9677 510.4578)" class="st2" width="13" height="5.2"/>
	
		<rect x="341.8" y="176.7" transform="matrix(0.1021 -0.9948 0.9948 0.1021 130.9147 503.6023)" class="st2" width="5.2" height="5.2"/>
	<path class="st2" d="M305.6,151.9l10.3,1.1c1.4,0.1,2.7-0.9,2.8-2.3l3.4-33.5l-5.2-0.5l-3.2,31l-7.7-0.8L305.6,151.9z"/>
	<path class="st2" d="M270.1,117l38.7,4l0.5-5.2l-41.3-4.2c-1.4-0.1-2.7,0.9-2.8,2.3l-1.3,12.9l5.2,0.5L270.1,117z"/>
	<path class="st2" d="M267.6,166.2l18.1,1.9c1.4,0.1,2.7-0.9,2.8-2.3l2.1-20.6l-5.2-0.5l-1.9,18.1l-15.5-1.6L267.6,166.2z"/>
	
		<rect x="288" y="168.8" transform="matrix(0.1021 -0.9948 0.9948 0.1021 92.7476 445.5443)" class="st2" width="10.4" height="5.2"/>
	
		<rect x="294.3" y="240.9" transform="matrix(0.1021 -0.9948 0.9948 0.1021 17.8347 519.821)" class="st2" width="5.2" height="18.2"/>
	
		<rect x="295.7" y="249" transform="matrix(0.1021 -0.9948 0.9948 0.1021 8.5472 530.7083)" class="st2" width="5.2" height="23.3"/>
	<path class="st2" d="M323.1,260.6l-5.2-0.5l-0.5,5.2l7.7,0.8c1.4,0.1,2.7-0.9,2.8-2.3l2.1-20.6l-5.2-0.5L323.1,260.6z"/>
	
		<rect x="239.3" y="210.5" transform="matrix(0.1021 -0.9948 0.9948 0.1021 5.2819 431.9678)" class="st2" width="5.2" height="5.2"/>
	
		<rect x="301.3" y="214.2" transform="matrix(0.1021 -0.9948 0.9948 0.1021 54.5776 499.3029)" class="st2" width="5.2" height="10.4"/>
	
		<rect x="316.3" y="209.4" transform="matrix(0.1021 -0.9948 0.9948 0.1021 76.6543 508.8754)" class="st2" width="7.8" height="5.2"/>
	
		<rect x="313.9" y="220.8" transform="matrix(0.1021 -0.9948 0.9948 0.1021 62.0004 515.3945)" class="st2" width="5.2" height="5.2"/>
	
		<rect x="298.9" y="225.8" transform="matrix(0.1021 -0.9948 0.9948 0.1021 42.2939 506.1686)" class="st2" width="5.2" height="7.8"/>
	
		<rect x="328.1" y="209.2" transform="matrix(0.1021 -0.9948 0.9948 0.1021 86.2372 519.1353)" class="st2" width="5.2" height="5.2"/>
	
		<rect x="340.8" y="198.7" transform="matrix(0.1021 -0.9948 0.9948 0.1021 106.7452 523.5413)" class="st2" width="5.2" height="7.8"/>
	
		<rect x="294.3" y="191.4" transform="matrix(0.1021 -0.9948 0.9948 0.1021 69.6923 473.0994)" class="st2" width="5.2" height="13"/>
	
		<rect x="287.8" y="183" transform="matrix(0.1021 -0.9948 0.9948 0.1021 77.2922 456.8832)" class="st2" width="7.8" height="5.2"/>
</g>
<text transform="matrix(0.9948 0.1021 -0.1021 0.9948 235.0938 291.6313)" class="st3 st4">A124510</text>
<path class="st0" d="M334.1,496.5l-245,15.8c-8.8,0.6-16.4-6.1-17-14.9l-26-403.3c-0.6-8.8,6.1-16.4,14.9-17l245-15.8
	c8.8-0.6,16.4,6.1,17,14.9l26,403.3C349.6,488.4,342.9,496,334.1,496.5z"/>
<path class="st5" d="M269.8,487.1l-118.2,7.6c-3,0.2-5.7-2.1-5.9-5.2c-0.2-3,2.1-5.7,5.2-5.9l118.2-7.6c3-0.2,5.7,2.1,5.9,5.2
	C275.2,484.3,272.9,486.9,269.8,487.1z"/>
<path class="st5" d="M230.3,474.5l-41,2.6c-2.9,0.2-5.5-2-5.7-5c-0.2-2.9,2-5.5,5-5.7l41-2.6c2.9-0.2,5.5,2,5.7,5
	C235.5,471.7,233.2,474.3,230.3,474.5z"/>
<g>
	
		<rect x="207.4" y="189.9" transform="matrix(0.9979 -6.423549e-02 6.423549e-02 0.9979 -12.1817 13.8947)" class="st2" width="5.2" height="13"/>
	
		<rect x="217.7" y="189.2" transform="matrix(0.9979 -6.423549e-02 6.423549e-02 0.9979 -12.1157 14.5547)" class="st2" width="5.2" height="13"/>
	
		<rect x="208.3" y="208" transform="matrix(0.9979 -6.423549e-02 6.423549e-02 0.9979 -13.092 13.9817)" class="st2" width="5.2" height="5.2"/>
	
		<rect x="218.7" y="207.3" transform="matrix(0.9979 -6.423549e-02 6.423549e-02 0.9979 -13.0254 14.6481)" class="st2" width="5.2" height="5.2"/>
	
		<rect x="190.9" y="219.5" transform="matrix(0.9979 -6.423549e-02 6.423549e-02 0.9979 -13.8664 12.8877)" class="st2" width="5.2" height="5.2"/>
	
		<rect x="181.3" y="272.1" transform="matrix(0.9979 -6.423549e-02 6.423549e-02 0.9979 -17.2649 12.3798)" class="st2" width="5.2" height="5.2"/>
	
		<rect x="219.3" y="217.7" transform="matrix(0.9979 -6.423549e-02 6.423549e-02 0.9979 -13.6924 14.7084)" class="st2" width="5.2" height="5.2"/>
	
		<rect x="209.6" y="228.7" transform="matrix(0.9979 -6.423549e-02 6.423549e-02 0.9979 -14.4191 14.108)" class="st2" width="5.2" height="5.2"/>
	
		<rect x="220" y="228" transform="matrix(0.9979 -6.423549e-02 6.423549e-02 0.9979 -14.3524 14.7744)" class="st2" width="5.2" height="5.2"/>
	<path class="st2" d="M110.3,141.7l7.8-0.5l-0.3-5.2l-10.4,0.7c-1.4,0.1-2.5,1.3-2.4,2.8l0.7,10.4l5.2-0.3L110.3,141.7z"/>
	<path class="st2" d="M267.8,126.4l-10.4,0.7l0.3,5.2l7.8-0.5l0.5,7.8l5.2-0.3l-0.7-10.4C270.5,127.4,269.3,126.3,267.8,126.4z"/>
	<path class="st2" d="M119.8,289.2l-5.2,0.3l0.7,10.4c0.1,1.4,1.3,2.5,2.8,2.4l10.4-0.7l-0.3-5.2l-7.8,0.5L119.8,289.2z"/>
	<path class="st2" d="M275.6,287l-7.8,0.5l0.3,5.2l10.4-0.7c1.4-0.1,2.5-1.3,2.4-2.8l-0.7-10.4l-5.2,0.3L275.6,287z"/>
	<path class="st2" d="M116,149.2l2,31.1c0.1,1.4,1.3,2.5,2.8,2.4l31.1-2c1.4-0.1,2.5-1.3,2.4-2.8l-2-31.1c-0.1-1.4-1.3-2.5-2.8-2.4
		l-31.1,2C117,146.5,115.9,147.7,116,149.2z M121.4,151.4l25.9-1.7l1.7,25.9l-25.9,1.7L121.4,151.4z"/>
	<path class="st2" d="M139.8,155.4l-10.4,0.7c-1.4,0.1-2.5,1.3-2.4,2.8l0.7,10.4c0.1,1.4,1.3,2.5,2.8,2.4l10.4-0.7
		c1.4-0.1,2.5-1.3,2.4-2.8l-0.7-10.4C142.5,156.4,141.2,155.3,139.8,155.4z M137.9,165.9l-5.2,0.3l-0.3-5.2l5.2-0.3L137.9,165.9z"/>
	<path class="st2" d="M229.4,175.6l31.1-2c1.4-0.1,2.5-1.3,2.4-2.8l-2-31.1c-0.1-1.4-1.3-2.5-2.8-2.4l-31.1,2
		c-1.4,0.1-2.5,1.3-2.4,2.8l2,31.1C226.8,174.6,228,175.7,229.4,175.6z M230,144.4l25.9-1.7l1.7,25.9l-25.9,1.7L230,144.4z"/>
	<path class="st2" d="M248.5,148.4l-10.4,0.7c-1.4,0.1-2.5,1.3-2.4,2.8l0.7,10.4c0.1,1.4,1.3,2.5,2.8,2.4l10.4-0.7
		c1.4-0.1,2.5-1.3,2.4-2.8l-0.7-10.4C251.1,149.4,249.9,148.3,248.5,148.4z M246.6,158.9l-5.2,0.3l-0.3-5.2l5.2-0.3L246.6,158.9z"/>
	<path class="st2" d="M156.5,253.1l-31.1,2c-1.4,0.1-2.5,1.3-2.4,2.8l2,31.1c0.1,1.4,1.3,2.5,2.8,2.4l31.1-2
		c1.4-0.1,2.5-1.3,2.4-2.8l-2-31.1C159.1,254.1,157.9,253,156.5,253.1z M155.9,284.3L130,286l-1.7-25.9l25.9-1.7L155.9,284.3z"/>
	<path class="st2" d="M137.4,280.3l10.4-0.7c1.4-0.1,2.5-1.3,2.4-2.8l-0.7-10.4c-0.1-1.4-1.3-2.5-2.8-2.4l-10.4,0.7
		c-1.4,0.1-2.5,1.3-2.4,2.8l0.7,10.4C134.8,279.3,136,280.4,137.4,280.3z M139.4,269.8l5.2-0.3l0.3,5.2l-5.2,0.3L139.4,269.8z"/>
	<path class="st2" d="M221.8,178.7l-18.1,1.2l-2-31.1l-5.2,0.3l2.2,33.6c0.1,1.4,1.3,2.5,2.8,2.4l20.7-1.3L221.8,178.7z"/>
	
		<rect x="163.9" y="163.7" transform="matrix(0.9979 -6.423549e-02 6.423549e-02 0.9979 -10.3246 11.4559)" class="st2" width="18.2" height="5.2"/>
	
		<rect x="173.6" y="152.7" transform="matrix(0.9979 -6.423549e-02 6.423549e-02 0.9979 -9.5979 12.0563)" class="st2" width="18.2" height="5.2"/>
	
		<rect x="119.1" y="185.2" transform="matrix(0.9979 -6.423549e-02 6.423549e-02 0.9979 -12.3929 8.2237)" class="st2" width="5.2" height="23.3"/>
	<path class="st2" d="M155.6,198.6l-25.9,1.7l0.3,5.2l23.3-1.5l0.7,10.4l5.2-0.3l-0.8-12.9C158.2,199.6,157,198.5,155.6,198.6z"/>
	
		<rect x="131.6" y="187" transform="matrix(0.9979 -6.423549e-02 6.423549e-02 0.9979 -11.9015 9.0118)" class="st2" width="5.2" height="5.2"/>
	
		<rect x="162.8" y="179.8" transform="matrix(0.9979 -6.423549e-02 6.423549e-02 0.9979 -11.8724 11.0169)" class="st2" width="5.2" height="20.7"/>
	
		<rect x="164" y="205.1" transform="matrix(0.9979 -6.423549e-02 6.423549e-02 0.9979 -12.9785 11.7116)" class="st2" width="23.3" height="5.2"/>
	<path class="st2" d="M267.5,201.8l-5.2,0.3L264,228l-7.8,0.5l0.3,5.2l10.4-0.7c1.4-0.1,2.5-1.3,2.4-2.8L267.5,201.8z"/>
	
		<rect x="175.3" y="179" transform="matrix(0.9979 -6.423549e-02 6.423549e-02 0.9979 -11.2972 11.8023)" class="st2" width="5.2" height="5.2"/>
	
		<rect x="121.3" y="221.4" transform="matrix(0.9979 -6.423549e-02 6.423549e-02 0.9979 -14.6303 8.4369)" class="st2" width="5.2" height="20.7"/>
	
		<rect x="122.3" y="244.1" transform="matrix(0.9979 -6.423549e-02 6.423549e-02 0.9979 -15.5699 9.1134)" class="st2" width="23.3" height="5.2"/>
	<path class="st2" d="M238.9,201l5.2-0.3l-0.7-10.4c-0.1-1.4-1.3-2.5-2.8-2.4l-12.9,0.8l0.3,5.2l10.4-0.7L238.9,201z"/>
	
		<rect x="133.8" y="220.6" transform="matrix(0.9979 -6.423549e-02 6.423549e-02 0.9979 -14.055 9.2224)" class="st2" width="5.2" height="5.2"/>
	
		<rect x="162.6" y="216.2" transform="matrix(0.9979 -6.423549e-02 6.423549e-02 0.9979 -14.2107 11.0792)" class="st2" width="5.2" height="20.7"/>
	
		<rect x="163.7" y="241.5" transform="matrix(0.9979 -6.423549e-02 6.423549e-02 0.9979 -15.3173 11.7676)" class="st2" width="23.3" height="5.2"/>
	
		<rect x="132" y="233.1" transform="matrix(0.9979 -6.423549e-02 6.423549e-02 0.9979 -14.8432 9.7138)" class="st2" width="23.3" height="5.2"/>
	
		<rect x="168.2" y="267.8" transform="matrix(0.9979 -6.423549e-02 6.423549e-02 0.9979 -17.1827 11.535)" class="st2" width="5.2" height="10.4"/>
	
		<rect x="164.7" y="257" transform="matrix(0.9979 -6.423549e-02 6.423549e-02 0.9979 -16.3109 11.8637)" class="st2" width="23.3" height="5.2"/>
	<path class="st2" d="M205.3,244.7l-0.8-12.9c-0.1-1.4-1.3-2.5-2.8-2.4l-25.9,1.7l0.3,5.2l23.3-1.5l0.7,10.4L205.3,244.7z"/>
	
		<rect x="177.6" y="215.2" transform="matrix(0.9979 -6.423549e-02 6.423549e-02 0.9979 -13.6178 12.0247)" class="st2" width="5.2" height="5.2"/>
	
		<rect x="149.5" y="222.2" transform="matrix(0.9979 -6.423549e-02 6.423549e-02 0.9979 -14.1253 10.2342)" class="st2" width="5.2" height="5.2"/>
	
		<rect x="266.9" y="264" transform="matrix(0.9979 -6.423549e-02 6.423549e-02 0.9979 -16.9855 17.8749)" class="st2" width="5.2" height="18.2"/>
	
		<rect x="254.4" y="277.7" transform="matrix(0.9979 -6.423549e-02 6.423549e-02 0.9979 -17.471 17.1703)" class="st2" width="7.8" height="5.2"/>
	
		<rect x="253.5" y="262.3" transform="matrix(0.9979 -6.423549e-02 6.423549e-02 0.9979 -16.6536 17.0028)" class="st2" width="5.2" height="10.4"/>
	<path class="st2" d="M270,240.6c-0.1-1.4-1.3-2.5-2.8-2.4l-28.5,1.8l0.3,5.2l25.9-1.7l1,15.5l5.2-0.3L270,240.6z"/>
	<path class="st2" d="M238.4,273.8l-0.8-12.9c-0.1-1.4-1.3-2.5-2.8-2.4l-28.5,1.8l0.3,5.2l25.9-1.7l0.7,10.4L238.4,273.8z"/>
	
		<rect x="242.2" y="249.6" transform="matrix(0.9979 -6.423549e-02 6.423549e-02 0.9979 -15.6805 16.6627)" class="st2" width="18.2" height="5.2"/>
	
		<rect x="166.4" y="283" transform="matrix(0.9979 -6.423549e-02 6.423549e-02 0.9979 -17.9824 11.8626)" class="st2" width="18.2" height="5.2"/>
	
		<rect x="191.7" y="263.7" transform="matrix(0.9979 -6.423549e-02 6.423549e-02 0.9979 -17.2853 13.0493)" class="st2" width="5.2" height="23.3"/>
	
		<rect x="195.4" y="250.2" transform="matrix(0.9979 -6.423549e-02 6.423549e-02 0.9979 -15.824 13.4071)" class="st2" width="10.4" height="5.2"/>
	<path class="st2" d="M232.4,222.2l12.9-0.8l-0.3-5.2l-10.4,0.7l-1-15.5l-5.2,0.3l1.2,18.1C229.8,221.2,231,222.3,232.4,222.2z"/>
	
		<rect x="239.4" y="205.8" transform="matrix(0.9979 -6.423549e-02 6.423549e-02 0.9979 -12.8781 16.2255)" class="st2" width="13" height="5.2"/>
	
		<rect x="248" y="179.4" transform="matrix(0.9979 -6.423549e-02 6.423549e-02 0.9979 -11.1704 16.5563)" class="st2" width="7.8" height="5.2"/>
	
		<rect x="261.2" y="178.6" transform="matrix(0.9979 -6.423549e-02 6.423549e-02 0.9979 -11.3449 17.327)" class="st2" width="5.2" height="13"/>
	
		<rect x="248.9" y="192.4" transform="matrix(0.9979 -6.423549e-02 6.423549e-02 0.9979 -12.006 16.5574)" class="st2" width="5.2" height="5.2"/>
	<path class="st2" d="M208.6,174.4l10.4-0.7c1.4-0.1,2.5-1.3,2.4-2.8l-2.2-33.6l-5.2,0.3l2,31.1l-7.8,0.5L208.6,174.4z"/>
	<path class="st2" d="M167.8,145.8l38.8-2.5l-0.3-5.2l-41.4,2.7c-1.4,0.1-2.5,1.3-2.4,2.8l0.8,12.9l5.2-0.3L167.8,145.8z"/>
	<path class="st2" d="M173.5,194.8l18.1-1.2c1.4-0.1,2.5-1.3,2.4-2.8l-1.3-20.7l-5.2,0.3l1.2,18.1l-15.5,1L173.5,194.8z"/>
	
		<rect x="197" y="190.6" transform="matrix(0.9979 -6.423549e-02 6.423549e-02 0.9979 -12.1645 13.2255)" class="st2" width="5.2" height="10.4"/>
	
		<rect x="207.1" y="270" transform="matrix(0.9979 -6.423549e-02 6.423549e-02 0.9979 -17.0635 14.4501)" class="st2" width="18.2" height="5.2"/>
	
		<rect x="207.8" y="280.2" transform="matrix(0.9979 -6.423549e-02 6.423549e-02 0.9979 -17.712 14.68)" class="st2" width="23.3" height="5.2"/>
	<path class="st2" d="M243.9,278.6l-5.2,0.3l0.3,5.2l7.8-0.5c1.4-0.1,2.5-1.3,2.4-2.8l-1.3-20.7l-5.2,0.3L243.9,278.6z"/>
	
		<rect x="153.4" y="242.7" transform="matrix(0.9979 -6.423549e-02 6.423549e-02 0.9979 -15.4342 10.5269)" class="st2" width="5.2" height="5.2"/>
	
		<rect x="212.9" y="238.7" transform="matrix(0.9979 -6.423549e-02 6.423549e-02 0.9979 -15.049 14.5075)" class="st2" width="10.4" height="5.2"/>
	
		<rect x="230.4" y="227.4" transform="matrix(0.9979 -6.423549e-02 6.423549e-02 0.9979 -14.376 15.4442)" class="st2" width="5.2" height="7.8"/>
	
		<rect x="228.6" y="240.5" transform="matrix(0.9979 -6.423549e-02 6.423549e-02 0.9979 -15.1376 15.3529)" class="st2" width="5.2" height="5.2"/>
	
		<rect x="213.6" y="249.2" transform="matrix(0.9979 -6.423549e-02 6.423549e-02 0.9979 -15.7245 14.4909)" class="st2" width="7.8" height="5.2"/>
	
		<rect x="240.7" y="226.7" transform="matrix(0.9979 -6.423549e-02 6.423549e-02 0.9979 -14.2262 16.1015)" class="st2" width="5.2" height="5.2"/>
	
		<rect x="250.4" y="215.6" transform="matrix(0.9979 -6.423549e-02 6.423549e-02 0.9979 -13.4904 16.7851)" class="st2" width="7.8" height="5.2"/>
	
		<rect x="201.2" y="218.6" transform="matrix(0.9979 -6.423549e-02 6.423549e-02 0.9979 -13.7794 13.7981)" class="st2" width="13" height="5.2"/>
	
		<rect x="197.9" y="206.1" transform="matrix(0.9979 -6.423549e-02 6.423549e-02 0.9979 -13.0748 13.3125)" class="st2" width="5.2" height="7.8"/>
</g>
<g class="st6">
	<path d="M170.3,320.3l-4.7,0.3l-0.8,3.2l-2.3,0.1l3.8-13.5l2.1-0.1l5.4,12.9l-2.3,0.1L170.3,320.3z M166.1,318.7l3.5-0.2l-2-5.1
		l-0.1,0L166.1,318.7z"/>
	<path d="M180.9,322.7l-2.2,0.1l-0.7-11.2l-2.8,0.2l-0.1-1.8l5-0.8L180.9,322.7z"/>
	<path d="M194.4,321.8l-8.5,0.5l-0.1-1.5l3.8-5c0.6-0.8,1-1.5,1.3-2.1c0.2-0.5,0.3-1,0.3-1.5c0-0.6-0.2-1-0.6-1.3s-0.8-0.5-1.4-0.4
		c-0.7,0-1.2,0.3-1.5,0.8c-0.3,0.5-0.5,1-0.4,1.7l-2.1,0.1l0-0.1c-0.1-1.1,0.2-2.1,0.9-2.9c0.7-0.8,1.8-1.3,3.1-1.4
		c1.3-0.1,2.3,0.2,3,0.8c0.8,0.6,1.2,1.5,1.2,2.6c0,0.7-0.1,1.5-0.5,2.1s-1,1.6-1.8,2.8l-2.6,3.4l0,0l5.7-0.4L194.4,321.8z"/>
	<path d="M203.3,316.5l1.7-0.1l0.1,1.8l-1.7,0.1l0.2,2.9l-2.2,0.1l-0.2-2.9l-5.5,0.4l-0.1-1.3l4.9-9.3l2.3-0.1L203.3,316.5z
		 M197.6,316.9l3.4-0.2l-0.3-5.4l-0.1,0l-0.2,0.5L197.6,316.9z"/>
	<path d="M206.8,315.1l0.3-7.4l7-0.4l0.1,1.9l-5.1,0.3l-0.2,3.4c0.2-0.2,0.5-0.4,0.9-0.5c0.4-0.1,0.7-0.2,1.2-0.3
		c1.2-0.1,2.2,0.2,2.9,1c0.7,0.7,1.1,1.8,1.2,3.2c0.1,1.3-0.2,2.4-0.9,3.3c-0.7,0.9-1.7,1.3-3.2,1.4c-1.2,0.1-2.2-0.2-3-0.8
		c-0.8-0.6-1.3-1.4-1.3-2.6l0,0l2.1-0.2c0,0.6,0.3,1.1,0.7,1.4c0.4,0.3,0.9,0.5,1.5,0.4c0.7,0,1.2-0.3,1.5-0.8
		c0.3-0.5,0.5-1.1,0.4-2c-0.1-0.8-0.3-1.4-0.7-1.9c-0.4-0.5-0.9-0.7-1.6-0.6c-0.6,0-1,0.2-1.3,0.4c-0.3,0.2-0.5,0.5-0.6,0.9
		L206.8,315.1z"/>
	<path d="M223.1,320l-2.2,0.1l-0.7-11.2l-2.8,0.2l-0.1-1.8l5-0.8L223.1,320z"/>
	<path d="M236.2,314.4c0.1,1.5-0.2,2.8-0.9,3.7c-0.7,0.9-1.7,1.4-3.1,1.5c-1.3,0.1-2.4-0.3-3.2-1.1c-0.8-0.8-1.3-2-1.4-3.5l-0.2-3.8
		c-0.1-1.5,0.2-2.7,0.9-3.7c0.7-0.9,1.8-1.4,3.1-1.5c1.3-0.1,2.4,0.3,3.2,1.1c0.8,0.8,1.3,2,1.4,3.5L236.2,314.4z M233.7,310.4
		c-0.1-0.9-0.3-1.6-0.7-2c-0.4-0.5-0.9-0.7-1.6-0.6c-0.7,0-1.2,0.3-1.5,0.9c-0.3,0.5-0.5,1.2-0.4,2.1l0.3,4.4
		c0.1,0.9,0.3,1.6,0.7,2.1c0.4,0.5,1,0.7,1.6,0.6c0.7,0,1.2-0.3,1.5-0.8c0.3-0.5,0.5-1.2,0.4-2.1L233.7,310.4z"/>
</g>
<path class="st1" d="M258.9,349.5l-133.2,9.2c-3.1,0.2-5.8-2.1-6-5.2s2.1-5.8,5.2-6l133.2-9.2c3.1-0.2,5.8,2.1,6,5.2
	C264.4,346.6,262,349.3,258.9,349.5z"/>
<path class="st1" d="M283.4,366.9L127,377.7c-3.1,0.2-5.8-2.1-6-5.2s2.1-5.8,5.2-6l156.4-10.8c3.1-0.2,5.8,2.1,6,5.2
	C288.8,364,286.5,366.7,283.4,366.9z"/>
</svg>
