<?xml version="1.0" encoding="utf-8"?>
<!-- Generator: Adobe Illustrator 23.0.1, SVG Export Plug-In . SVG Version: 6.00 Build 0)  -->
<svg version="1.1" id="b52d7e2d-d80f-4111-b6ed-d15502ee1edd"
	 xmlns="http://www.w3.org/2000/svg" xmlns:xlink="http://www.w3.org/1999/xlink" x="0px" y="0px" viewBox="0 0 711.2 413.7"
	 style="enable-background:new 0 0 711.2 413.7;" xml:space="preserve">
<style type="text/css">
	.st0{fill:#E6E6E6;}
	.st1{opacity:0.1;enable-background:new    ;}
	.st2{fill:#3F3D56;}
</style>
<title>feeling_proud</title>
<polygon class="st0" points="498.3,114.8 498.3,299.8 529.3,350.2 531.6,354 653.7,354 656.2,114.8 "/>
<polygon class="st1" points="498.3,114.8 498.3,299.8 529.3,350.2 531.2,114.8 "/>
<polygon class="st0" points="203.6,109.8 203.6,294.8 172.6,345.3 170.3,349.1 48.2,349.1 45.7,109.8 "/>
<polygon class="st1" points="203.6,109.8 203.6,294.8 172.6,345.3 170.7,109.8 "/>
<polygon class="st0" points="693.2,106.1 693.2,117.2 29.7,117.2 29.7,101.2 91.3,69.1 638.9,69.1 "/>
<polygon class="st1" points="693.2,106.1 693.2,117.2 29.7,117.2 29.7,101.2 "/>
<polygon class="st2" points="124.6,161.6 95,161.6 82.7,153 138.2,153 "/>
<polygon class="st2" points="124.6,197.4 95,197.4 82.7,188.8 138.2,188.8 "/>
<polygon class="st2" points="124.6,248 95,248 82.7,239.3 138.2,239.3 "/>
<polygon class="st2" points="124.6,298.5 95,298.5 82.7,289.9 138.2,289.9 "/>
<polygon class="st2" points="577.3,166.6 606.9,166.6 619.2,157.9 563.7,157.9 "/>
<polygon class="st2" points="577.3,202.3 606.9,202.3 619.2,193.7 563.7,193.7 "/>
<polygon class="st2" points="577.3,252.9 606.9,252.9 619.2,244.3 563.7,244.3 "/>
<polygon class="st2" points="577.3,303.5 606.9,303.5 619.2,294.8 563.7,294.8 "/>
</svg>
