<?xml version="1.0" encoding="utf-8"?>
<!-- Generator: Adobe Illustrator 23.0.1, SVG Export Plug-In . SVG Version: 6.00 Build 0)  -->
<svg version="1.1" id="Capa_1" xmlns="http://www.w3.org/2000/svg" xmlns:xlink="http://www.w3.org/1999/xlink" x="0px" y="0px"
	 viewBox="0 0 1200 100" style="enable-background:new 0 0 1200 100;" xml:space="preserve">
<style type="text/css">
	.st0{fill:url(#SVGID_1_);}
	.st1{opacity:0.4;}
	.st2{fill:url(#SVGID_2_);}
	.st3{fill:url(#SVGID_3_);}
	.st4{fill:url(#SVGID_4_);}
	.st5{fill:url(#SVGID_5_);}
	.st6{fill:url(#SVGID_6_);}
	.st7{fill:url(#SVGID_7_);}
	.st8{fill:url(#SVGID_8_);}
	.st9{fill:url(#SVGID_9_);}
	.st10{fill:url(#SVGID_10_);}
	.st11{fill:url(#SVGID_11_);}
	.st12{fill:#B1001B;}
</style>
<radialGradient id="SVGID_1_" cx="240.1387" cy="307.0495" r="734.0382" gradientTransform="matrix(1.2477 0 0 0.1646 0.4403 -3.1254)" gradientUnits="userSpaceOnUse">
	<stop  offset="0" style="stop-color:#1C1C1E"/>
	<stop  offset="1" style="stop-color:#000000"/>
</radialGradient>
<rect x="-1.8" y="-3.7" class="st0" width="1201.8" height="103.7"/>
<g class="st1">
	<radialGradient id="SVGID_2_" cx="154.1118" cy="-184.2958" r="127.8645" gradientUnits="userSpaceOnUse">
		<stop  offset="0" style="stop-color:#1C1C1E"/>
		<stop  offset="1" style="stop-color:#000000"/>
	</radialGradient>
	<path class="st2" d="M94.9-230.9c-7.9,11.2-21,18.5-35.8,18.5s-27.9-7.3-35.8-18.5c-1.5-2.2-2.9-4.5-4-6.9c-2.6-5.6-4-11.8-4-18.4
		c0-4.2,0.6-8.4,1.7-12.2c0.9-3,2.1-5.9,3.6-8.6c7.4-13.7,21.9-23,38.6-23s31.2,9.3,38.6,23c1.5,2.7,2.7,5.6,3.5,8.6
		c1.4,0.3,2.7,0.6,4.1,1c1.3,0.3,2.7,0.7,4,1s2.7,0.7,4,1.1c1.3,0.4,2.6,0.8,3.9,1.2s2.6,0.8,3.9,1.3s2.6,0.9,3.8,1.4
		c1.3,0.5,2.5,1,3.8,1.4c15,5.9,29,13.7,41.8,23c12.8,9.3,24.6,20.3,34.8,32.7c2.8-0.8,5.7-1.3,8.5-1.7
		c32.8-4.5,65.1,14.9,75.7,47.5c10.6,32.6-4.1,67.3-33.3,83c0.1-1.4,0.1-2.9,0.1-4.3c0-1.4,0-2.9,0-4.3c0-1.5,0-2.9-0.1-4.4
		c0-1.5-0.1-2.9-0.2-4.4c-0.1-1.5-0.2-3-0.3-4.5c15.7-13,22.8-34.8,16.1-55.3s-25.2-34-45.5-35.3c-3-0.2-6-0.1-9,0.2
		c-3.3,0.4-6.7,1.1-10,2.2c-6.9,2.2-13,5.8-18.1,10.3c-2,1.7-3.8,3.6-5.5,5.6c-10.9,13.1-15,31.3-9.3,48.6
		c5.6,17.4,19.6,29.6,36.1,33.8c0,1.3,0,2.5,0,3.8c0,1.3,0,2.5,0,3.8c0,1.2-0.1,2.5-0.1,3.7c-0.1,1.2-0.1,2.5-0.2,3.7
		c-0.1,1.2-0.2,2.5-0.3,3.7c-24-4.7-44.9-22-53-46.9c-8.1-24.9-1.4-51.1,15.3-69.1c1.7-1.9,3.6-3.7,5.6-5.3
		c-7.6-8.5-16-16.1-25.1-22.7c-9.1-6.6-18.9-12.3-29.3-16.9c-1.1-0.5-2.3-1-3.4-1.4c-1.1-0.5-2.3-0.9-3.4-1.4
		c-1.1-0.4-2.3-0.9-3.5-1.3c-1.2-0.4-2.3-0.8-3.5-1.2s-2.4-0.8-3.5-1.1c-1.2-0.4-2.4-0.7-3.6-1.1c-1.2-0.3-2.4-0.7-3.6-1
		C97.8-235.4,96.4-233.1,94.9-230.9L94.9-230.9z"/>
	<radialGradient id="SVGID_3_" cx="178.9798" cy="-27.493" r="125.0529" gradientUnits="userSpaceOnUse">
		<stop  offset="0" style="stop-color:#1C1C1E"/>
		<stop  offset="1" style="stop-color:#000000"/>
	</radialGradient>
	<path class="st3" d="M210.3-95c-13.1-4.1-24.1-14.3-28.7-28.3c-4.6-14.1-1.6-28.8,6.6-39.8c1.6-2.1,3.4-4.1,5.4-6
		c4.5-4.2,10-7.5,16.2-9.5c4-1.3,8.1-2,12.2-2.1c3.2-0.1,6.3,0.1,9.3,0.7c15.3,2.8,28.6,13.7,33.8,29.6c5.1,15.8,0.8,32.5-9.9,43.8
		c-2.1,2.2-4.5,4.3-7.1,6c0.1,1.4,0.2,2.8,0.3,4.2c0.1,1.4,0.2,2.8,0.2,4.1c0.1,1.4,0.1,2.8,0.1,4.1c0,1.4,0.1,2.7,0.1,4.1
		s0,2.7,0,4.1c0,1.4-0.1,2.7-0.1,4.1c-0.1,1.4-0.1,2.7-0.2,4.1c-1,16.1-4,31.8-9,46.9C234.5-9.9,227.7,4.7,219,18.2
		c1.6,2.5,3,5,4.3,7.6c14.4,29.8,5.9,66.6-21.8,86.7c-27.7,20.1-65.3,16.9-89.2-6c1.4-0.4,2.8-0.8,4.1-1.2c1.4-0.4,2.8-0.9,4.1-1.3
		c1.4-0.5,2.8-0.9,4.1-1.4c1.4-0.5,2.8-1,4.2-1.5c1.4-0.5,2.8-1.1,4.2-1.6c17.2,10.9,40.1,10.9,57.6-1.8
		c17.5-12.7,24.6-34.5,19.5-54.2c-0.7-2.9-1.7-5.7-3-8.5c-1.4-3.1-3.1-6-5.2-8.9c-4.3-5.8-9.5-10.5-15.4-14
		c-2.3-1.3-4.6-2.5-7.1-3.5c-15.8-6.3-34.4-4.6-49.1,6.1c-14.8,10.7-22.1,27.9-21,44.8c-1.2,0.4-2.4,0.8-3.6,1.2
		c-1.2,0.4-2.4,0.8-3.6,1.1c-1.2,0.4-2.4,0.7-3.6,1c-1.2,0.3-2.4,0.6-3.6,0.9c-1.2,0.3-2.4,0.6-3.6,0.8c-3-24.3,7-49.5,28.2-64.9
		c21.2-15.4,48.2-17.1,70.4-6.8c2.3,1.1,4.6,2.3,6.8,3.6c5.7-9.8,10.3-20.2,13.8-30.9c3.5-10.7,5.8-21.8,7-33.1
		c0.1-1.2,0.2-2.5,0.3-3.7c0.1-1.2,0.2-2.5,0.2-3.7s0.1-2.5,0.2-3.7c0-1.2,0.1-2.5,0.1-3.7c0-1.2,0-2.5,0-3.7s-0.1-2.5-0.1-3.7
		c0-1.2-0.1-2.5-0.2-3.7C215.5-93.7,212.8-94.3,210.3-95L210.3-95z"/>
	<radialGradient id="SVGID_4_" cx="46.1392" cy="56.1414" r="122.2974" gradientUnits="userSpaceOnUse">
		<stop  offset="0" style="stop-color:#1C1C1E"/>
		<stop  offset="1" style="stop-color:#000000"/>
	</radialGradient>
	<path class="st4" d="M186.3,91.6c-13.5,9.8-30.7,10.8-44.7,4.1c-2.8-1.3-5.5-3-7.9-4.9c-1.3,0.6-2.6,1.1-3.9,1.6
		c-1.3,0.5-2.6,1-3.9,1.5c-1.3,0.5-2.6,1-3.9,1.4c-1.3,0.5-2.6,0.9-3.9,1.3c-1.3,0.4-2.6,0.8-3.9,1.2c-1.3,0.4-2.6,0.8-3.9,1.1
		c-1.3,0.4-2.6,0.7-3.9,1.1c-15.6,4-31.5,6-47.4,6c-15.9,0-31.8-2-47.4-6c-1.8,2.3-3.8,4.4-5.9,6.4c-23.9,22.9-61.5,26.2-89.2,6
		c-27.7-20.1-36.2-56.9-21.8-86.7c0.8,1.2,1.6,2.4,2.4,3.6c0.8,1.2,1.7,2.4,2.5,3.5c0.9,1.2,1.7,2.4,2.6,3.5
		c0.9,1.2,1.8,2.3,2.7,3.5c0.9,1.2,1.9,2.3,2.9,3.5c-5.1,19.8,2,41.5,19.5,54.2s40.4,12.8,57.6,1.8c2.5-1.6,4.9-3.4,7.2-5.5
		c2.5-2.3,4.8-4.8,6.8-7.7c4.3-5.9,7.1-12.3,8.6-19c0.6-2.6,0.9-5.2,1.1-7.8c1.1-17-6.3-34.1-21-44.8C-27.1,4-45.7,2.2-61.4,8.5
		c-0.8-1-1.5-2-2.3-3.1s-1.5-2-2.2-3.1c-0.7-1-1.4-2.1-2.1-3.1s-1.3-2.1-2-3.2S-71.3-6-71.9-7c22.2-10.3,49.2-8.6,70.4,6.8
		s31.2,40.6,28.2,64.9c-0.3,2.6-0.8,5.1-1.3,7.6c11.1,2.4,22.4,3.6,33.7,3.6c11.2,0,22.5-1.2,33.7-3.6c1.2-0.3,2.4-0.5,3.6-0.8
		c1.2-0.3,2.4-0.6,3.6-0.9s2.4-0.6,3.6-1c1.2-0.3,2.4-0.7,3.5-1.1c1.2-0.4,2.4-0.8,3.5-1.2c1.2-0.4,2.3-0.8,3.5-1.2
		c1.2-0.4,2.3-0.9,3.5-1.3c-0.5-2.6-0.8-5.3-0.8-8c-0.2-13.7,6.1-27.4,18.1-36.1s26.9-10.5,39.9-6c2.5,0.9,5,1.9,7.3,3.3
		c5.4,3,10.2,7.2,14,12.5c2.5,3.4,4.4,7.1,5.8,10.9c1.1,3,1.8,6,2.2,9.1C206.1,65.8,199.8,81.8,186.3,91.6L186.3,91.6z"/>
	<radialGradient id="SVGID_5_" cx="-86.7487" cy="-53.3374" r="125.0459" gradientUnits="userSpaceOnUse">
		<stop  offset="0" style="stop-color:#1C1C1E"/>
		<stop  offset="1" style="stop-color:#000000"/>
	</radialGradient>
	<path class="st5" d="M-23.5,95.7c-14.1,6.7-31.2,5.7-44.7-4.1S-88,65.8-85.9,50.3c0.4-3.1,1.1-6.1,2.2-9.1
		c-0.9-1.1-1.8-2.1-2.7-3.2s-1.8-2.1-2.6-3.2c-0.9-1.1-1.7-2.1-2.5-3.2c-0.8-1.1-1.6-2.2-2.5-3.3c-0.8-1.1-1.6-2.2-2.4-3.3
		c-0.8-1.1-1.5-2.2-2.3-3.4c-0.7-1.1-1.5-2.3-2.2-3.4c-8.6-13.6-15.4-28.1-20.3-43.2c-4.9-15.1-8-30.8-9-46.9
		c-2.7-1.1-5.4-2.3-7.9-3.6c-29.2-15.6-43.9-50.4-33.3-83s42.9-52,75.7-47.5c-0.9,1.1-1.8,2.2-2.6,3.4c-0.9,1.1-1.7,2.3-2.6,3.5
		c-0.8,1.2-1.7,2.4-2.5,3.6c-0.8,1.2-1.7,2.4-2.5,3.7c-0.8,1.2-1.6,2.5-2.4,3.8c-20.4,1.3-38.9,14.7-45.5,35.3s0.4,42.3,16.1,55.3
		c2.3,1.9,4.8,3.6,7.4,5.1c2.9,1.6,6.1,3,9.4,4.1c6.9,2.2,13.9,2.9,20.7,2.3c2.6-0.3,5.2-0.7,7.7-1.3c16.5-4.2,30.5-16.5,36.1-33.8
		c5.6-17.4,1.5-35.5-9.3-48.6c0.7-1,1.5-2.1,2.2-3.1c0.7-1,1.5-2,2.3-3c0.8-1,1.5-2,2.3-2.9c0.8-1,1.6-1.9,2.4-2.9
		c0.8-0.9,1.6-1.9,2.4-2.8c16.7,17.9,23.4,44.1,15.3,69.1s-28.9,42.2-53,46.9c-2.5,0.5-5.1,0.8-7.6,1.1c1.2,11.3,3.5,22.4,7,33.1
		c3.5,10.7,8.1,21.1,13.8,30.9c0.6,1.1,1.2,2.1,1.9,3.2s1.3,2.1,2,3.1s1.3,2.1,2,3.1c0.7,1,1.4,2,2.1,3c0.7,1,1.4,2,2.2,3
		c0.7,1,1.5,2,2.3,3s1.5,1.9,2.4,2.9c2.4-1.3,4.8-2.4,7.3-3.3c13-4.4,27.9-2.7,39.9,6S1.5,42.9,1.4,56.7c0,2.7-0.3,5.3-0.8,8
		c-1.2,6-3.7,11.9-7.5,17.2c-2.5,3.4-5.4,6.4-8.6,8.9C-18,92.7-20.7,94.4-23.5,95.7L-23.5,95.7z"/>
	<radialGradient id="SVGID_6_" cx="-10.6831" cy="-209.5006" r="127.8624" gradientUnits="userSpaceOnUse">
		<stop  offset="0" style="stop-color:#1C1C1E"/>
		<stop  offset="1" style="stop-color:#000000"/>
	</radialGradient>
	<path class="st6" d="M-92.2-95c-2.6,0.8-5.2,1.4-7.8,1.7c-6.1,0.7-12.5,0.2-18.7-1.8c-4-1.3-7.8-3.2-11.1-5.4c-2.6-1.8-5-3.8-7.1-6
		c-10.7-11.3-15.1-27.9-9.9-43.8c5.1-15.8,18.5-26.8,33.8-29.6c3-0.6,6.2-0.8,9.3-0.7c0.7-1.2,1.4-2.4,2.2-3.6
		c0.7-1.2,1.5-2.3,2.2-3.5c0.8-1.1,1.5-2.3,2.3-3.4c0.8-1.1,1.6-2.2,2.4-3.4c0.8-1.1,1.6-2.2,2.4-3.3c0.8-1.1,1.6-2.2,2.5-3.2
		c0.8-1.1,1.7-2.1,2.6-3.2c10.3-12.4,22-23.4,34.8-32.7c12.8-9.3,26.9-17.1,41.8-23c0.2-2.9,0.5-5.8,1-8.6
		c5.8-32.6,34.3-57.3,68.6-57.3s62.8,24.7,68.6,57.3c-1.3-0.5-2.7-1-4-1.4c-1.4-0.5-2.7-0.9-4.1-1.4c-1.4-0.4-2.8-0.9-4.2-1.3
		c-1.4-0.4-2.8-0.8-4.3-1.2c-1.4-0.4-2.9-0.8-4.4-1.1c-7.5-19-26-32.4-47.7-32.4c-21.7,0-40.2,13.4-47.7,32.4
		c-1.1,2.8-2,5.7-2.6,8.6c-0.7,3.3-1,6.7-1,10.2c0,7.3,1.5,14.1,4.2,20.4c1,2.4,2.3,4.7,3.7,6.9c9.1,14.4,25.1,23.9,43.4,23.9
		c18.2,0,34.3-9.5,43.4-23.9c1.2,0.4,2.4,0.7,3.6,1.1c1.2,0.4,2.4,0.8,3.6,1.2s2.4,0.8,3.5,1.3c1.2,0.4,2.3,0.9,3.5,1.4
		c1.1,0.5,2.3,1,3.4,1.4c-11.9,21.4-34.7,35.9-61,35.9S10-201-1.9-222.4c-1.2-2.2-2.4-4.6-3.4-6.9c-10.4,4.6-20.2,10.3-29.3,16.9
		c-9.1,6.6-17.5,14.2-25.1,22.7c-0.8,0.9-1.6,1.8-2.4,2.8c-0.8,0.9-1.6,1.9-2.4,2.8c-0.8,0.9-1.5,1.9-2.3,2.9c-0.8,1-1.5,2-2.2,3
		c-0.7,1-1.5,2-2.2,3c-0.7,1-1.4,2-2.1,3.1c-0.7,1-1.4,2.1-2,3.1c2,1.8,3.8,3.8,5.4,6c8.2,11,11.1,25.7,6.6,39.8
		C-68-109.3-79-99.1-92.2-95L-92.2-95L-92.2-95z"/>
</g>
<g class="st1">
	<radialGradient id="SVGID_7_" cx="727.6014" cy="181.3989" r="203.2748" gradientUnits="userSpaceOnUse">
		<stop  offset="0" style="stop-color:#1C1C1E"/>
		<stop  offset="1" style="stop-color:#000000"/>
	</radialGradient>
	<path class="st7" d="M633.4,107.3c-12.6,17.9-33.4,29.5-56.9,29.5c-23.5,0-44.3-11.6-56.9-29.5c-2.5-3.5-4.6-7.1-6.4-11.1
		c-4.1-8.9-6.4-18.8-6.4-29.2c0-6.8,1-13.3,2.8-19.4c1.4-4.8,3.3-9.4,5.6-13.7C526.9,12.1,550-2.7,576.5-2.7
		c26.5,0,49.6,14.8,61.3,36.5c2.4,4.3,4.2,8.9,5.6,13.7c2.2,0.5,4.3,1,6.5,1.5c2.1,0.5,4.2,1.1,6.4,1.7c2.1,0.6,4.2,1.2,6.3,1.8
		c2.1,0.6,4.2,1.3,6.2,1.9c2.1,0.7,4.1,1.4,6.1,2.1s4.1,1.4,6.1,2.2s4.1,1.5,6,2.3c23.8,9.4,46.1,21.8,66.5,36.6s39.1,32.2,55.4,52
		c4.5-1.2,9-2.1,13.6-2.8c52.1-7.2,103.6,23.7,120.4,75.6c16.8,51.8-6.6,107-52.9,131.9c0.1-2.3,0.1-4.5,0.2-6.9c0-2.3,0-4.6,0-6.9
		c0-2.3,0-4.6-0.1-6.9c0-2.3-0.1-4.7-0.2-7s-0.2-4.8-0.4-7.1c25-20.7,36.2-55.3,25.6-88c-10.6-32.7-40-54.1-72.4-56.2
		c-4.7-0.3-9.5-0.2-14.3,0.4c-5.3,0.6-10.7,1.7-15.9,3.5c-11,3.6-20.7,9.2-28.8,16.4c-3.1,2.8-6,5.8-8.7,9
		c-17.3,20.8-23.8,49.7-14.9,77.3s31.3,47.1,57.4,53.8c0,2,0.1,4.1,0,6.1c0,2,0,4-0.1,6c0,2-0.1,4-0.2,5.9c-0.1,2-0.2,4-0.4,5.9
		c-0.1,2-0.3,3.9-0.5,5.9c-38.2-7.5-71.4-34.9-84.3-74.6s-2.2-81.3,24.3-109.8c2.8-3,5.7-5.8,8.8-8.5c-12.1-13.5-25.5-25.5-40-36
		s-30.1-19.5-46.6-26.9c-1.8-0.8-3.6-1.5-5.4-2.3c-1.8-0.7-3.6-1.5-5.5-2.2c-1.8-0.7-3.7-1.4-5.5-2.1c-1.8-0.7-3.7-1.3-5.5-1.9
		c-1.9-0.6-3.7-1.2-5.6-1.8c-1.9-0.6-3.8-1.2-5.7-1.7c-1.9-0.5-3.8-1.1-5.7-1.5C638,100.1,635.8,103.8,633.4,107.3L633.4,107.3z"/>
	<radialGradient id="SVGID_8_" cx="767.2095" cy="430.7516" r="198.8254" gradientUnits="userSpaceOnUse">
		<stop  offset="0" style="stop-color:#1C1C1E"/>
		<stop  offset="1" style="stop-color:#000000"/>
	</radialGradient>
	<path class="st8" d="M816.9,323.4c-20.9-6.5-38.4-22.7-45.7-45.1c-7.3-22.4-2.6-45.7,10.5-63.3c2.5-3.4,5.4-6.6,8.5-9.5
		c7.2-6.7,15.9-11.9,25.8-15.1c6.4-2.1,12.9-3.2,19.4-3.4c5-0.1,9.9,0.2,14.8,1.1c24.4,4.5,45.6,21.9,53.7,47.1
		c8.2,25.2,1.3,51.7-15.8,69.6c-3.4,3.6-7.2,6.8-11.3,9.6c0.2,2.2,0.4,4.4,0.5,6.7c0.1,2.2,0.3,4.4,0.4,6.6c0.1,2.2,0.2,4.4,0.2,6.6
		c0,2.2,0.1,4.3,0.1,6.5s0,4.3,0,6.5c0,2.2-0.1,4.3-0.2,6.5s-0.2,4.3-0.3,6.5c-1.6,25.6-6.4,50.6-14.2,74.6
		c-7.8,24-18.6,47.1-32.3,68.7c2.6,3.9,4.8,8,6.8,12.1c22.9,47.4,9.4,105.8-34.7,137.8c-44.1,32-103.9,26.8-141.8-9.6
		c2.2-0.6,4.4-1.3,6.6-1.9c2.2-0.7,4.4-1.4,6.6-2.1c2.2-0.7,4.4-1.4,6.6-2.2c2.2-0.8,4.4-1.6,6.6-2.4c2.2-0.9,4.4-1.7,6.7-2.6
		c27.4,17.4,63.7,17.4,91.6-2.9c27.8-20.2,39.1-54.8,31-86.2c-1.2-4.6-2.8-9.1-4.8-13.5c-2.2-4.9-5-9.6-8.2-14.1
		c-6.8-9.3-15.2-16.8-24.5-22.3c-3.6-2.1-7.4-4-11.2-5.5c-25.1-10-54.6-7.3-78.1,9.7c-23.5,17-35.2,44.3-33.4,71.3
		c-1.9,0.7-3.8,1.3-5.7,1.9c-1.9,0.6-3.8,1.2-5.7,1.8c-1.9,0.6-3.8,1.1-5.7,1.6s-3.8,1-5.7,1.5c-1.9,0.5-3.8,0.9-5.7,1.3
		c-4.7-38.7,11.1-78.7,44.9-103.2s76.7-27.2,112-10.8c3.7,1.7,7.3,3.6,10.8,5.8c9.1-15.6,16.4-32.1,21.9-49.2
		c5.5-17,9.3-34.6,11.1-52.6c0.2-1.9,0.4-3.9,0.5-5.8c0.1-1.9,0.3-3.9,0.4-5.8c0.1-1.9,0.2-3.9,0.2-5.9c0-2,0.1-3.9,0.1-5.9
		s0-3.9,0-5.9c0-2-0.1-4-0.1-5.9c-0.1-2-0.2-4-0.3-5.9C825.1,325.5,820.9,324.6,816.9,323.4L816.9,323.4z"/>
	<radialGradient id="SVGID_9_" cx="555.8646" cy="563.7961" r="194.4509" gradientUnits="userSpaceOnUse">
		<stop  offset="0" style="stop-color:#1C1C1E"/>
		<stop  offset="1" style="stop-color:#000000"/>
	</radialGradient>
	<path class="st9" d="M778.8,620.2c-21.4,15.6-48.8,17.2-71.1,6.5c-4.4-2.1-8.7-4.7-12.6-7.8c-2,0.9-4.1,1.7-6.2,2.6
		c-2,0.8-4.1,1.6-6.1,2.4c-2,0.8-4.1,1.5-6.2,2.3c-2,0.7-4.1,1.4-6.2,2.1c-2.1,0.7-4.1,1.3-6.2,1.9c-2.1,0.6-4.2,1.3-6.2,1.8
		c-2.1,0.6-4.2,1.2-6.2,1.7c-24.8,6.4-50.1,9.5-75.3,9.5c-25.2,0-50.6-3.1-75.3-9.5c-2.9,3.6-6.1,7-9.4,10.2
		c-38,36.4-97.7,41.6-141.8,9.6c-44.1-32-57.6-90.5-34.7-137.8c1.3,1.9,2.6,3.8,3.9,5.6c1.3,1.9,2.7,3.8,4,5.6
		c1.4,1.9,2.8,3.7,4.2,5.5c1.4,1.9,2.8,3.7,4.3,5.5c1.5,1.8,3,3.7,4.5,5.5c-8.1,31.4,3.2,66,31,86.2c27.8,20.2,64.2,20.3,91.6,2.9
		c4-2.6,7.8-5.5,11.3-8.7c4-3.6,7.6-7.7,10.9-12.2c6.8-9.3,11.3-19.6,13.7-30.2c0.9-4.1,1.5-8.2,1.7-12.4c1.7-27-9.9-54.2-33.4-71.3
		c-23.5-17-53-19.7-78.1-9.7c-1.2-1.6-2.5-3.2-3.6-4.9c-1.2-1.6-2.3-3.3-3.5-4.9c-1.1-1.6-2.2-3.3-3.3-5c-1.1-1.6-2.1-3.3-3.2-5
		c-1-1.7-2-3.4-3-5.1c35.3-16.4,78.2-13.7,112,10.8s49.6,64.5,44.9,103.1c-0.5,4.1-1.2,8.1-2.2,12.1c17.7,3.8,35.6,5.7,53.5,5.7
		c17.9,0,35.9-1.9,53.5-5.7c1.9-0.4,3.8-0.9,5.7-1.3c1.9-0.4,3.8-0.9,5.7-1.4c1.9-0.5,3.8-1,5.6-1.6c1.9-0.5,3.8-1.1,5.6-1.7
		c1.9-0.6,3.7-1.2,5.6-1.8c1.9-0.6,3.7-1.3,5.6-2c1.8-0.7,3.7-1.4,5.5-2.1c-0.8-4.2-1.3-8.4-1.3-12.7c-0.3-21.9,9.7-43.5,28.8-57.3
		c19.1-13.8,42.7-16.6,63.4-9.6c4,1.4,7.9,3.1,11.7,5.2c8.5,4.8,16.2,11.4,22.3,19.9c4,5.5,7,11.3,9.2,17.3
		c1.7,4.7,2.8,9.6,3.5,14.4C810.2,579,800.2,604.6,778.8,620.2L778.8,620.2z"/>
	<radialGradient id="SVGID_10_" cx="344.4804" cy="389.679" r="198.7924" gradientUnits="userSpaceOnUse">
		<stop  offset="0" style="stop-color:#1C1C1E"/>
		<stop  offset="1" style="stop-color:#000000"/>
	</radialGradient>
	<path class="st10" d="M445.2,626.6c-22.3,10.7-49.7,9.1-71.1-6.5c-21.4-15.6-31.4-41.1-28.1-65.6c0.6-4.9,1.8-9.7,3.5-14.4
		c-1.4-1.7-2.9-3.4-4.3-5.1c-1.4-1.7-2.8-3.4-4.2-5.1c-1.4-1.7-2.7-3.4-4.1-5.2c-1.3-1.7-2.6-3.5-3.9-5.2c-1.3-1.7-2.6-3.5-3.8-5.3
		c-1.3-1.8-2.5-3.6-3.7-5.4c-1.2-1.8-2.4-3.6-3.5-5.4c-13.8-21.6-24.6-44.7-32.3-68.7c-7.8-24-12.6-49-14.2-74.6
		c-4.3-1.7-8.5-3.6-12.6-5.7c-46.4-24.9-69.8-80.1-52.9-131.9c16.8-51.8,68.2-82.8,120.4-75.6c-1.4,1.8-2.8,3.6-4.2,5.4
		c-1.4,1.8-2.8,3.7-4.1,5.5c-1.4,1.9-2.7,3.8-4,5.7c-1.4,1.9-2.7,3.9-3.9,5.8c-1.3,2-2.6,4-3.9,6c-32.4,2-61.8,23.4-72.4,56.2
		c-10.6,32.7,0.6,67.3,25.6,88c3.7,3,7.6,5.7,11.8,8.1c4.7,2.6,9.7,4.8,14.9,6.6c11,3.6,22.1,4.7,32.9,3.7c4.2-0.4,8.3-1.1,12.3-2.1
		c26.2-6.7,48.5-26.2,57.4-53.8c9-27.6,2.4-56.5-14.9-77.3c1.2-1.7,2.3-3.3,3.5-4.9c1.2-1.6,2.4-3.2,3.6-4.8
		c1.2-1.6,2.5-3.1,3.7-4.7c1.3-1.5,2.5-3,3.8-4.6c1.3-1.5,2.6-3,3.9-4.4c26.5,28.5,37.2,70.2,24.3,109.8
		c-12.9,39.7-46,67.1-84.3,74.6c-4,0.8-8.1,1.4-12.2,1.7c1.8,18,5.6,35.7,11.1,52.6c5.5,17,12.8,33.5,21.9,49.1c1,1.7,2,3.4,3,5
		c1,1.7,2.1,3.3,3.1,5c1.1,1.6,2.1,3.3,3.2,4.9c1.1,1.6,2.2,3.2,3.4,4.8s2.3,3.2,3.5,4.8c1.2,1.6,2.4,3.1,3.6,4.7
		c1.2,1.5,2.5,3.1,3.7,4.6c3.7-2.1,7.6-3.8,11.6-5.2c20.7-7,44.4-4.2,63.4,9.6c19,13.8,29,35.5,28.8,57.3c0,4.2-0.5,8.5-1.3,12.7
		c-1.9,9.6-5.9,18.9-12,27.4c-4,5.5-8.6,10.2-13.7,14.1C453.8,621.9,449.6,624.5,445.2,626.6L445.2,626.6z"/>
	<radialGradient id="SVGID_11_" cx="465.4732" cy="141.3964" r="203.282" gradientUnits="userSpaceOnUse">
		<stop  offset="0" style="stop-color:#1C1C1E"/>
		<stop  offset="1" style="stop-color:#000000"/>
	</radialGradient>
	<path class="st11" d="M335.9,323.4c-4.1,1.3-8.2,2.2-12.5,2.7c-9.7,1.2-19.8,0.3-29.7-2.9c-6.4-2.1-12.3-5-17.7-8.6
		c-4.2-2.8-7.9-6-11.3-9.6c-17-18-24-44.4-15.8-69.6c8.2-25.2,29.4-42.6,53.7-47.1c4.8-0.9,9.8-1.3,14.8-1.1
		c1.2-1.9,2.3-3.8,3.5-5.7c1.2-1.9,2.4-3.7,3.6-5.5s2.4-3.6,3.7-5.5c1.3-1.8,2.5-3.6,3.8-5.3c1.3-1.7,2.6-3.5,3.9-5.2
		c1.3-1.7,2.6-3.4,4-5.1c1.4-1.7,2.7-3.4,4.1-5c16.3-19.7,34.9-37.2,55.4-52c20.4-14.9,42.7-27.2,66.5-36.6
		c0.2-4.7,0.8-9.2,1.6-13.8c9.3-51.8,54.6-91.1,109.1-91.1c54.5,0,99.8,39.3,109.1,91.1c-2.1-0.8-4.3-1.5-6.4-2.3
		c-2.2-0.8-4.3-1.4-6.5-2.2c-2.2-0.7-4.4-1.4-6.7-2c-2.3-0.7-4.5-1.3-6.8-1.9c-2.3-0.6-4.6-1.2-6.9-1.8
		C640.3,7,610.8-14.3,576.4-14.3c-34.4,0-63.8,21.3-75.8,51.5c-1.7,4.4-3.1,9-4.1,13.8c-1.1,5.3-1.6,10.7-1.6,16.2
		c0,11.5,2.4,22.5,6.7,32.4c1.7,3.9,3.6,7.5,5.8,11.1c14.4,22.8,39.9,38,68.9,38c29,0,54.5-15.2,68.9-38c1.9,0.6,3.9,1.2,5.8,1.8
		c1.9,0.6,3.8,1.3,5.7,1.9c1.9,0.7,3.8,1.4,5.6,2.1c1.8,0.7,3.7,1.4,5.5,2.2c1.8,0.8,3.6,1.5,5.5,2.3c-18.9,34-55.3,57.1-96.9,57.1
		s-78-23-96.9-57.1c-2-3.6-3.8-7.2-5.4-11.1c-16.6,7.3-32.2,16.4-46.6,26.9c-14.5,10.5-27.9,22.6-40,36c-1.3,1.4-2.6,2.9-3.9,4.4
		c-1.3,1.5-2.5,3-3.8,4.5c-1.3,1.5-2.5,3-3.7,4.6c-1.2,1.5-2.4,3.1-3.6,4.7c-1.2,1.6-2.3,3.2-3.5,4.8c-1.1,1.6-2.3,3.2-3.3,4.9
		c-1.1,1.6-2.2,3.3-3.2,5c3.1,2.9,6,6.1,8.5,9.5c13.1,17.5,17.7,40.9,10.5,63.3C374.4,300.7,356.8,316.9,335.9,323.4L335.9,323.4
		L335.9,323.4z"/>
</g>
<g>
	<path class="st12" d="M1215.2-201c-6.6,9.3-17.3,15.3-29.5,15.3s-23-6-29.5-15.3c-1.3-1.8-2.4-3.7-3.3-5.7
		c-2.1-4.6-3.3-9.7-3.3-15.1c0-3.5,0.5-6.9,1.4-10.1c0.7-2.5,1.7-4.9,2.9-7.1c6.1-11.3,18.1-19,31.8-19s25.7,7.7,31.8,19
		c1.2,2.2,2.2,4.6,2.9,7.1c1.1,0.2,2.2,0.5,3.4,0.8c1.1,0.3,2.2,0.6,3.3,0.9c1.1,0.3,2.2,0.6,3.3,0.9s2.2,0.7,3.2,1
		c1.1,0.3,2.1,0.7,3.2,1.1c1.1,0.4,2.1,0.7,3.2,1.1c1,0.4,2.1,0.8,3.1,1.2c12.4,4.9,23.9,11.3,34.5,19c10.6,7.7,20.3,16.7,28.7,26.9
		c2.3-0.6,4.7-1.1,7-1.4c27-3.7,53.7,12.3,62.4,39.2c8.7,26.9-3.4,55.5-27.5,68.4c0.1-1.2,0.1-2.4,0.1-3.6c0-1.2,0-2.4,0-3.6
		s0-2.4-0.1-3.6c0-1.2-0.1-2.4-0.1-3.6c-0.1-1.2-0.1-2.5-0.2-3.7c13-10.7,18.8-28.6,13.2-45.6c-5.5-17-20.7-28.1-37.5-29.1
		c-2.5-0.2-4.9-0.1-7.4,0.2c-2.8,0.3-5.5,0.9-8.3,1.8c-5.7,1.9-10.7,4.8-14.9,8.5c-1.6,1.4-3.1,3-4.5,4.6
		c-9,10.8-12.4,25.8-7.7,40.1c4.6,14.3,16.2,24.5,29.8,27.9c0,1.1,0,2.1,0,3.1c0,1,0,2.1,0,3.1c0,1-0.1,2.1-0.1,3.1
		c-0.1,1-0.1,2-0.2,3.1c-0.1,1-0.2,2-0.3,3c-19.8-3.9-37-18.1-43.7-38.7c-6.7-20.6-1.2-42.2,12.6-56.9c1.4-1.5,3-3,4.6-4.4
		c-6.3-7-13.2-13.2-20.7-18.7c-7.5-5.5-15.6-10.1-24.2-13.9c-0.9-0.4-1.9-0.8-2.8-1.2c-0.9-0.4-1.9-0.8-2.8-1.1
		c-0.9-0.4-1.9-0.7-2.9-1.1c-1-0.3-1.9-0.7-2.9-1s-1.9-0.6-2.9-0.9c-1-0.3-1.9-0.6-2.9-0.9c-1-0.3-2-0.5-3-0.8
		C1217.6-204.7,1216.5-202.8,1215.2-201L1215.2-201z"/>
	<path class="st12" d="M1310.3-88.9c-10.8-3.4-19.9-11.8-23.7-23.4s-1.4-23.7,5.4-32.8c1.3-1.8,2.8-3.4,4.4-4.9
		c3.7-3.4,8.2-6.2,13.4-7.8c3.3-1.1,6.7-1.6,10-1.8c2.6-0.1,5.2,0.1,7.7,0.6c12.6,2.3,23.6,11.3,27.9,24.4
		c4.3,13.1,0.6,26.8-8.2,36.1c-1.8,1.9-3.7,3.5-5.9,5c0.1,1.2,0.2,2.3,0.3,3.4c0.1,1.2,0.2,2.3,0.2,3.4c0.1,1.1,0.1,2.3,0.1,3.4
		c0,1.1,0,2.2,0.1,3.4c0,1.1,0,2.2,0,3.4c0,1.1-0.1,2.2-0.1,3.3c0,1.1-0.1,2.2-0.2,3.3c-0.8,13.2-3.3,26.2-7.4,38.7
		s-9.6,24.4-16.8,35.6c1.3,2,2.5,4.1,3.5,6.3c11.9,24.6,4.9,54.9-18,71.5c-22.8,16.6-53.9,13.9-73.5-5c1.1-0.3,2.3-0.6,3.4-1
		c1.1-0.3,2.3-0.7,3.4-1.1s2.3-0.8,3.4-1.2c1.2-0.4,2.3-0.8,3.4-1.2s2.3-0.9,3.5-1.4c14.2,9,33,9,47.5-1.5
		c14.4-10.5,20.3-28.4,16.1-44.7c-0.6-2.4-1.4-4.7-2.5-7c-1.2-2.5-2.6-5-4.3-7.3c-3.5-4.8-7.9-8.7-12.7-11.6
		c-1.9-1.1-3.8-2.1-5.8-2.9c-13-5.2-28.3-3.8-40.5,5.1c-12.2,8.8-18.2,23-17.3,37c-1,0.3-2,0.7-3,1c-1,0.3-2,0.6-3,0.9
		c-1,0.3-2,0.6-3,0.9s-2,0.5-3,0.8s-2,0.5-3,0.7c-2.4-20,5.8-40.8,23.3-53.5c17.5-12.7,39.8-14.1,58-5.6c1.9,0.9,3.8,1.9,5.6,3
		c4.7-8.1,8.5-16.7,11.4-25.5c2.9-8.8,4.8-18,5.8-27.3c0.1-1,0.2-2,0.3-3c0.1-1,0.2-2,0.2-3c0.1-1,0.1-2,0.1-3c0-1,0.1-2,0.1-3
		c0-1,0-2,0-3.1c0-1,0-2-0.1-3.1c0-1-0.1-2.1-0.2-3.1C1314.6-87.8,1312.4-88.3,1310.3-88.9L1310.3-88.9z"/>
	<path class="st12" d="M1290.6,64.9c-11.1,8.1-25.3,8.9-36.9,3.4c-2.3-1.1-4.5-2.5-6.6-4c-1.1,0.5-2.1,0.9-3.2,1.3
		c-1.1,0.4-2.1,0.9-3.2,1.2c-1.1,0.4-2.1,0.8-3.2,1.2c-1.1,0.4-2.1,0.7-3.2,1.1c-1.1,0.3-2.1,0.7-3.2,1c-1.1,0.3-2.2,0.6-3.2,0.9
		c-1.1,0.3-2.2,0.6-3.2,0.9c-12.8,3.3-26,5-39.1,4.9c-13.1,0-26.2-1.6-39.1-4.9c-1.5,1.9-3.2,3.6-4.9,5.3
		c-19.7,18.9-50.7,21.6-73.5,5c-22.8-16.6-29.9-46.9-18-71.5c0.7,1,1.3,1.9,2,2.9c0.7,1,1.4,1.9,2.1,2.9c0.7,1,1.4,1.9,2.2,2.9
		c0.7,1,1.5,1.9,2.2,2.9c0.8,1,1.5,1.9,2.3,2.9c-4.2,16.3,1.6,34.2,16.1,44.7c14.4,10.5,33.3,10.5,47.5,1.5c2.1-1.3,4-2.8,5.9-4.5
		c2-1.9,3.9-4,5.6-6.3c3.5-4.8,5.9-10.2,7.1-15.6c0.5-2.1,0.8-4.3,0.9-6.4c0.9-14-5.2-28.1-17.3-37c-12.2-8.8-27.5-10.2-40.5-5.1
		c-0.6-0.8-1.3-1.7-1.9-2.5c-0.6-0.9-1.2-1.7-1.8-2.6c-0.6-0.9-1.2-1.7-1.7-2.6c-0.5-0.9-1.1-1.7-1.6-2.6c-0.5-0.9-1.1-1.7-1.6-2.6
		c18.3-8.5,40.5-7.1,58,5.6c17.5,12.7,25.7,33.4,23.3,53.5c-0.2,2.1-0.6,4.2-1.1,6.3c9.2,2,18.5,2.9,27.8,2.9c9.3,0,18.6-1,27.8-2.9
		c1-0.2,2-0.4,3-0.7c1-0.2,2-0.5,2.9-0.8s2-0.5,2.9-0.8c1-0.3,1.9-0.6,2.9-0.9c1-0.3,1.9-0.6,2.9-0.9c1-0.3,1.9-0.7,2.9-1
		c1-0.4,1.9-0.7,2.9-1.1c-0.4-2.2-0.7-4.4-0.7-6.6c-0.2-11.3,5-22.6,14.9-29.7c9.9-7.2,22.1-8.6,32.9-5c2.1,0.7,4.1,1.6,6,2.7
		c4.4,2.5,8.4,5.9,11.6,10.3c2.1,2.8,3.6,5.9,4.8,9c0.9,2.4,1.5,5,1.8,7.5C1306.9,43.6,1301.7,56.9,1290.6,64.9L1290.6,64.9z"/>
	<path class="st12" d="M1117.6,68.3c-11.6,5.5-25.8,4.7-36.9-3.4s-16.3-21.3-14.6-34c0.3-2.5,0.9-5,1.8-7.5
		c-0.8-0.9-1.5-1.7-2.2-2.6c-0.7-0.9-1.5-1.8-2.2-2.6c-0.7-0.9-1.4-1.8-2.1-2.7c-0.7-0.9-1.4-1.8-2-2.7c-0.7-0.9-1.3-1.8-1.9-2.7
		c-0.6-0.9-1.3-1.9-1.9-2.8c-0.6-0.9-1.2-1.9-1.8-2.8c-7.1-11.2-12.7-23.2-16.8-35.6c-4-12.4-6.6-25.4-7.4-38.7
		c-2.2-0.9-4.4-1.9-6.5-3c-24.1-12.9-36.2-41.5-27.5-68.4c8.7-26.9,35.4-42.9,62.4-39.2c-0.7,0.9-1.5,1.9-2.2,2.8
		c-0.7,0.9-1.4,1.9-2.1,2.9c-0.7,1-1.4,1.9-2.1,2.9c-0.7,1-1.4,2-2,3s-1.3,2.1-2,3.1c-16.8,1.1-32,12.1-37.5,29.1
		c-5.5,17,0.3,34.9,13.2,45.6c1.9,1.6,3.9,3,6.1,4.2c2.4,1.4,5,2.5,7.7,3.4c5.7,1.9,11.5,2.4,17.1,1.9c2.2-0.2,4.3-0.6,6.4-1.1
		c13.6-3.5,25.1-13.6,29.8-27.9c4.6-14.3,1.2-29.3-7.7-40.1c0.6-0.9,1.2-1.7,1.8-2.6c0.6-0.9,1.2-1.7,1.9-2.5
		c0.6-0.8,1.3-1.6,1.9-2.4s1.3-1.6,1.9-2.4c0.7-0.8,1.3-1.5,2-2.3c13.8,14.8,19.3,36.4,12.6,56.9c-6.7,20.6-23.9,34.8-43.7,38.7
		c-2.1,0.4-4.2,0.7-6.3,0.9c0.9,9.3,2.9,18.5,5.8,27.3c2.9,8.8,6.7,17.4,11.4,25.5c0.5,0.9,1,1.8,1.5,2.6c0.5,0.9,1.1,1.7,1.6,2.6
		s1.1,1.7,1.7,2.6c0.6,0.9,1.2,1.7,1.7,2.5c0.6,0.8,1.2,1.6,1.8,2.5c0.6,0.8,1.2,1.6,1.9,2.4c0.6,0.8,1.3,1.6,1.9,2.4
		c1.9-1.1,3.9-2,6-2.7c10.7-3.6,23-2.2,32.9,5c9.9,7.2,15,18.4,14.9,29.7c0,2.2-0.2,4.4-0.7,6.6c-1,5-3,9.8-6.2,14.2
		c-2.1,2.8-4.4,5.3-7.1,7.3C1122.1,65.8,1119.9,67.2,1117.6,68.3L1117.6,68.3z"/>
	<path class="st12" d="M1061-88.9c-2.1,0.7-4.3,1.1-6.5,1.4c-5,0.6-10.3,0.2-15.4-1.5c-3.3-1.1-6.4-2.6-9.1-4.5
		c-2.2-1.5-4.1-3.1-5.9-5c-8.8-9.3-12.5-23.1-8.2-36.1c4.3-13.1,15.2-22.1,27.9-24.4c2.5-0.5,5.1-0.7,7.7-0.6c0.6-1,1.2-2,1.8-2.9
		c0.6-1,1.2-1.9,1.9-2.9c0.6-0.9,1.2-1.9,1.9-2.8c0.6-0.9,1.3-1.9,1.9-2.8s1.3-1.8,2-2.7c0.7-0.9,1.4-1.8,2.1-2.6
		c0.7-0.9,1.4-1.7,2.1-2.6c8.4-10.2,18.1-19.3,28.7-26.9c10.6-7.7,22.1-14.1,34.5-19c0.1-2.4,0.4-4.8,0.8-7.1
		c4.8-26.8,28.3-47.3,56.6-47.3s51.8,20.4,56.6,47.3c-1.1-0.4-2.2-0.8-3.3-1.2c-1.1-0.4-2.2-0.8-3.4-1.1c-1.2-0.4-2.3-0.7-3.4-1.1
		c-1.2-0.3-2.3-0.7-3.5-1c-1.2-0.3-2.4-0.6-3.6-0.9c-6.2-15.6-21.4-26.7-39.3-26.7s-33.1,11.1-39.3,26.7c-0.9,2.3-1.6,4.7-2.1,7.1
		c-0.5,2.7-0.9,5.5-0.9,8.4c0,6,1.2,11.7,3.5,16.8c0.9,2,1.9,3.9,3,5.7c7.5,11.8,20.7,19.7,35.7,19.7c15,0,28.2-7.9,35.7-19.7
		c1,0.3,2,0.6,3,0.9c1,0.3,2,0.7,2.9,1s1.9,0.7,2.9,1.1c1,0.4,1.9,0.7,2.9,1.1c0.9,0.4,1.9,0.8,2.8,1.2
		c-9.8,17.6-28.6,29.6-50.3,29.6c-21.6,0-40.5-11.9-50.3-29.6c-1-1.9-1.9-3.8-2.8-5.7c-8.6,3.8-16.7,8.5-24.2,13.9
		c-7.5,5.4-14.5,11.7-20.7,18.7c-0.7,0.8-1.3,1.5-2,2.3c-0.7,0.8-1.3,1.5-1.9,2.3s-1.3,1.6-1.9,2.4c-0.6,0.8-1.2,1.6-1.9,2.4
		c-0.6,0.8-1.2,1.6-1.8,2.5c-0.6,0.9-1.2,1.7-1.7,2.5c-0.6,0.9-1.1,1.7-1.7,2.6c1.6,1.5,3.1,3.2,4.4,4.9c6.8,9.1,9.2,21.2,5.4,32.8
		C1080.9-100.7,1071.8-92.3,1061-88.9L1061-88.9L1061-88.9z"/>
</g>
</svg>
