<?xml version="1.0" encoding="utf-8"?>
<!-- Generator: Adobe Illustrator 23.0.1, SVG Export Plug-In . SVG Version: 6.00 Build 0)  -->
<svg version="1.1" id="ab415205-3fab-4e47-acc0-4eae005b7b6b"
	 xmlns="http://www.w3.org/2000/svg" xmlns:xlink="http://www.w3.org/1999/xlink" x="0px" y="0px" viewBox="0 0 550 300"
	 style="enable-background:new 0 0 550 300;" xml:space="preserve">
<style type="text/css">
	.st0{fill:#F2F2F2;}
	.st1{fill:#CCCCCC;}
	.st2{fill:#3F3D56;}
	.st3{fill:#FFFFFF;}
	.st4{fill:#FF003D;}
	.st5{fill:#FF6584;}
	.st6{fill:#A0616A;}
	.st7{fill:#2F2E41;}
	.st8{fill:#FFB8B8;}
</style>
<path class="st0" d="M542.2,179c0-26.4-19.6-89-43.9-89s-43.9,62.7-43.9,89c0,26.4,19.7,47.8,44,47.8
	C522.6,226.8,542.2,205.5,542.2,179L542.2,179z"/>
<path class="st1" d="M498.3,276.4c-0.3,0-0.5-0.2-0.5-0.5v-99.1c0-0.3,0.2-0.5,0.5-0.5s0.5,0.2,0.5,0.5V276
	C498.7,276.2,498.5,276.4,498.3,276.4L498.3,276.4z"/>
<path class="st1" d="M498.3,195.4c-0.1,0-0.3-0.1-0.4-0.2L473.5,167c-0.2-0.2-0.1-0.5,0-0.7c0.2-0.2,0.5-0.1,0.7,0l24.4,28.2
	c0.2,0.2,0.1,0.5,0,0.7C498.5,195.3,498.4,195.4,498.3,195.4z"/>
<path class="st1" d="M498.3,211.6c-0.3,0-0.5-0.2-0.5-0.5c0-0.1,0-0.2,0.1-0.3l13.8-13.8c0.2-0.2,0.5-0.2,0.7,0s0.2,0.5,0,0.7
	l-13.8,13.7C498.5,211.5,498.4,211.6,498.3,211.6z"/>
<path class="st0" d="M56.7,223.5c0-13.2-10.7-44.6-23.9-44.6S8.9,210.3,8.9,223.5s10.7,23.9,23.9,23.9
	C45.9,247.4,56.6,236.7,56.7,223.5L56.7,223.5z"/>
<path class="st1" d="M32.7,276.4c-0.1,0-0.3-0.1-0.3-0.3v-55.9c0-0.1,0.1-0.3,0.3-0.3c0.1,0,0.3,0.1,0.3,0.3l0,0v55.9
	C33,276.3,32.9,276.4,32.7,276.4z"/>
<path class="st1" d="M32.7,230.8c-0.1,0-0.1,0-0.2-0.1l-13.7-15.8c-0.1-0.1-0.1-0.3,0-0.4c0.1-0.1,0.3-0.1,0.4,0l13.7,15.8
	c0.1,0.1,0.1,0.3,0,0.4C32.9,230.7,32.8,230.8,32.7,230.8L32.7,230.8z"/>
<path class="st1" d="M32.7,239.9c-0.1,0-0.3-0.1-0.3-0.3c0-0.1,0-0.1,0.1-0.2l7.9-7.9c0.1-0.1,0.3-0.1,0.4,0s0.1,0.3,0,0.4l-7.9,7.9
	C32.9,239.9,32.8,239.9,32.7,239.9z"/>
<path class="st0" d="M6.8,276.1c0-5.6,4.5-10,10-10s10,4.5,10,10"/>
<path class="st1" d="M16.8,276.1c-0.1,0-0.3-0.1-0.3-0.3v-5.2c0-0.1,0.1-0.3,0.3-0.3c0.1,0,0.3,0.1,0.3,0.3v5.2
	C17.1,276,17,276.1,16.8,276.1z"/>
<path class="st1" d="M16.8,274.3c-0.1,0-0.1,0-0.2-0.1l-3.3-2.8c-0.1-0.1-0.1-0.3,0-0.4s0.3-0.1,0.4,0l0,0l3.3,2.8
	c0.1,0.1,0.1,0.3,0,0.4C17,274.2,16.9,274.3,16.8,274.3z"/>
<path class="st0" d="M37.6,276.1c0-5.6,4.5-10,10-10c5.6,0,10,4.5,10,10"/>
<path class="st1" d="M47.6,276.1c-0.1,0-0.3-0.1-0.3-0.3v-5.2c0-0.1,0.1-0.3,0.3-0.3c0.1,0,0.3,0.1,0.3,0.3l0,0v5.2
	C47.9,276,47.7,276.1,47.6,276.1z"/>
<path class="st1" d="M47.6,274.3c-0.1,0-0.1,0-0.2-0.1l-3.3-2.8c-0.1-0.1-0.1-0.3,0-0.4s0.3-0.1,0.4,0l0,0l3.3,2.8
	c0.1,0.1,0.1,0.3,0,0.4C47.7,274.2,47.7,274.3,47.6,274.3z"/>
<path class="st1" d="M234.4,236.4c-61,0-110.7-49.6-110.7-110.7S173.4,15,234.4,15s110.7,49.6,110.7,110.7S295.5,236.4,234.4,236.4z
	 M234.4,16.5c-60.2,0-109.2,49-109.2,109.2s49,109.2,109.2,109.2s109.2-49,109.2-109.2S294.6,16.5,234.4,16.5L234.4,16.5z"/>
<path class="st1" d="M234.4,117.5c-0.4,0-0.7-0.3-0.7-0.7v-101c0-0.4,0.3-0.7,0.7-0.7s0.7,0.3,0.7,0.7v101
	C235.2,117.2,234.8,117.5,234.4,117.5z"/>
<path class="st1" d="M344.4,126.4h-101c-0.4,0-0.7-0.3-0.7-0.7s0.3-0.7,0.7-0.7h101c0.4,0,0.7,0.3,0.7,0.7S344.8,126.4,344.4,126.4z
	"/>
<path class="st1" d="M225.5,126.4h-101c-0.4,0-0.7-0.3-0.7-0.7s0.3-0.7,0.7-0.7h101c0.4,0,0.7,0.3,0.7,0.7S225.9,126.4,225.5,126.4z
	"/>
<path class="st1" d="M234.4,236.4c-0.4,0-0.7-0.3-0.7-0.7v-101c0-0.4,0.3-0.7,0.7-0.7s0.7,0.3,0.7,0.7v101
	C235.2,236.1,234.8,236.4,234.4,236.4z"/>
<path class="st1" d="M241,120.5c-0.4,0-0.7-0.3-0.7-0.7c0-0.2,0.1-0.4,0.2-0.5l71.1-71.1c0.3-0.3,0.7-0.3,1,0s0.3,0.7,0,1l0,0
	l-71.1,71.1C241.3,120.4,241.1,120.5,241,120.5z"/>
<path class="st1" d="M227.9,120.5c-0.2,0-0.4-0.1-0.5-0.2l-71.1-71.1c-0.3-0.3-0.3-0.7,0-1s0.7-0.3,1,0l71.1,71.1
	c0.3,0.3,0.3,0.7,0,1C228.2,120.4,228.1,120.5,227.9,120.5L227.9,120.5z"/>
<path class="st1" d="M312.1,203.6c-0.2,0-0.4-0.1-0.5-0.2l-71.1-71.1c-0.3-0.3-0.3-0.7,0-1s0.7-0.3,1,0l0,0l71.1,71.1
	c0.3,0.3,0.3,0.7,0,1C312.5,203.5,312.3,203.6,312.1,203.6L312.1,203.6z"/>
<path class="st1" d="M156.8,203.6c-0.4,0-0.7-0.3-0.7-0.7c0-0.2,0.1-0.4,0.2-0.5l71.1-71.1c0.3-0.3,0.7-0.3,1,0s0.3,0.7,0,1
	l-71.1,71.1C157.1,203.5,157,203.6,156.8,203.6z"/>
<path class="st1" d="M234.4,201.9c-42.1,0-76.2-34.1-76.2-76.2s34.1-76.2,76.2-76.2s76.2,34.1,76.2,76.2
	C310.6,167.8,276.5,201.9,234.4,201.9z M234.4,51.1c-41.2,0-74.7,33.5-74.7,74.7s33.5,74.7,74.7,74.7s74.7-33.5,74.7-74.7
	C309,84.6,275.6,51.1,234.4,51.1z"/>
<circle class="st2" cx="234.4" cy="125.7" r="8.9"/>
<polygon class="st2" points="199.9,276.3 192.1,276.5 230.3,122.2 237.5,124.4 "/>
<polygon class="st2" points="268.9,276.3 276.8,276.5 238.5,122.2 231.5,124.4 "/>
<rect x="221.8" y="38.1" class="st1" width="24.5" height="13.3"/>
<rect x="223.3" y="41.1" class="st3" width="9.7" height="10.4"/>
<rect x="235.2" y="41.1" class="st3" width="9.7" height="10.4"/>
<path class="st1" d="M234.1,65.9c-7.8,0-14.1-6.3-14.2-14.2v-0.4c0-1.9,1.5-3.4,3.4-3.4h21.5c1.9,0,3.4,1.5,3.4,3.4v0.4
	C248.2,59.6,241.9,65.9,234.1,65.9z"/>
<path class="st4" d="M245.4,41.5h-22.7c-1,0-1.9-0.8-1.9-1.9c0-0.3,0.1-0.5,0.2-0.8l4.4-8.9c0.3-0.6,0.9-1,1.7-1h13.7
	c0.7,0,1.4,0.4,1.7,1l4.4,8.9c0.4,0.9,0.1,2-0.8,2.5C246,41.4,245.6,41.5,245.4,41.5z"/>
<rect x="287.9" y="67.8" class="st1" width="24.5" height="13.3"/>
<rect x="289.4" y="70.7" class="st3" width="9.7" height="10.4"/>
<rect x="301.2" y="70.7" class="st3" width="9.7" height="10.4"/>
<path class="st1" d="M300.2,95.7c-7.8,0-14.1-6.3-14.2-14.2v-0.4c0-1.9,1.5-3.4,3.4-3.4h21.5c1.9,0,3.4,1.5,3.4,3.4v0.4
	C314.2,89.3,308,95.6,300.2,95.7z"/>
<path class="st4" d="M293.3,59.3c-0.4,0-0.8,0.2-0.9,0.6l-4.4,8.9c-0.3,0.5,0,1.3,0.5,1.5c0.1,0.1,0.3,0.1,0.5,0.1h22.7
	c0.6,0,1.2-0.5,1.2-1.2c0-0.2,0-0.3-0.1-0.5l-4.4-8.9c-0.2-0.4-0.5-0.6-0.9-0.6h-14.1v0.1H293.3z"/>
<rect x="313.9" y="134.6" class="st1" width="24.5" height="13.3"/>
<rect x="315.4" y="137.7" class="st3" width="9.7" height="10.4"/>
<rect x="327.3" y="137.7" class="st3" width="9.7" height="10.4"/>
<path class="st1" d="M326.2,162.5c-7.8,0-14.1-6.3-14.2-14.2v-0.4c0-1.9,1.5-3.4,3.4-3.4h21.5c1.9,0,3.4,1.5,3.4,3.4v0.4
	C340.3,156.2,334,162.5,326.2,162.5z"/>
<path class="st4" d="M337.5,138h-22.7c-1,0-1.9-0.8-1.9-1.9c0-0.3,0.1-0.5,0.2-0.8l4.4-8.9c0.3-0.6,0.9-1,1.7-1H333
	c0.7,0,1.4,0.4,1.7,1l4.4,8.9c0.4,0.9,0.1,2-0.8,2.5C338.1,138,337.7,138,337.5,138z"/>
<rect x="286.4" y="197" class="st1" width="24.5" height="13.3"/>
<rect x="287.9" y="200" class="st3" width="9.7" height="10.4"/>
<rect x="299.8" y="200" class="st3" width="9.7" height="10.4"/>
<path class="st1" d="M298.7,224.9c-7.8,0-14.1-6.3-14.2-14.2v-0.4c0-1.9,1.5-3.4,3.4-3.4h21.5c1.9,0,3.4,1.5,3.4,3.4v0.4
	C312.8,218.5,306.5,224.9,298.7,224.9z"/>
<path class="st4" d="M310.1,200.4h-22.7c-1,0-1.9-0.8-1.9-1.9c0-0.3,0.1-0.5,0.2-0.8l4.4-8.9c0.3-0.6,0.9-1,1.7-1h13.7
	c0.7,0,1.4,0.4,1.7,1l4.4,8.9c0.4,0.9,0.1,2-0.8,2.5C310.6,200.3,310.3,200.4,310.1,200.4z"/>
<rect x="156.5" y="67.8" class="st1" width="24.5" height="13.3"/>
<rect x="169.8" y="70.7" class="st3" width="9.7" height="10.4"/>
<rect x="158" y="70.7" class="st3" width="9.7" height="10.4"/>
<path class="st1" d="M168.8,95.7c-7.8,0-14.1-6.3-14.2-14.2v-0.4c0-1.9,1.5-3.4,3.4-3.4h21.5c1.9,0,3.4,1.5,3.4,3.4v0.4
	C182.8,89.3,176.5,95.6,168.8,95.7z"/>
<path class="st4" d="M180.1,71.2h-22.7c-1,0-1.9-0.8-1.9-1.9c0-0.3,0.1-0.5,0.2-0.8l4.4-8.9c0.3-0.6,0.9-1,1.7-1h13.7
	c0.7,0,1.4,0.4,1.7,1l4.4,8.9c0.4,0.9,0.1,2-0.8,2.5C180.6,71.1,180.3,71.2,180.1,71.2z"/>
<rect x="130.5" y="134.6" class="st1" width="24.5" height="13.3"/>
<rect x="143.8" y="137.7" class="st3" width="9.7" height="10.4"/>
<rect x="131.9" y="137.7" class="st3" width="9.7" height="10.4"/>
<path class="st1" d="M142.7,162.5c-7.8,0-14.1-6.3-14.2-14.2v-0.4c0-1.9,1.5-3.4,3.4-3.4h21.5c1.9,0,3.4,1.5,3.4,3.4v0.4
	C156.8,156.2,150.5,162.5,142.7,162.5z"/>
<path class="st4" d="M154.1,138h-22.7c-1,0-1.9-0.8-1.9-1.9c0-0.3,0.1-0.5,0.2-0.8l4.4-8.9c0.3-0.6,0.9-1,1.7-1h13.7
	c0.7,0,1.4,0.4,1.7,1l4.4,8.9c0.4,0.9,0.1,2-0.8,2.5C154.6,138,154.4,138,154.1,138z"/>
<rect x="158" y="197" class="st1" width="24.5" height="13.3"/>
<rect x="171.3" y="200" class="st3" width="9.7" height="10.4"/>
<rect x="159.4" y="200" class="st3" width="9.7" height="10.4"/>
<path class="st1" d="M170.2,224.9c-7.8,0-14.1-6.3-14.2-14.2v-0.4c0-1.9,1.5-3.4,3.4-3.4h21.5c1.9,0,3.4,1.5,3.4,3.4v0.4
	C184.3,218.5,178,224.9,170.2,224.9z"/>
<path class="st4" d="M181.6,200.4h-22.7c-1,0-1.9-0.8-1.9-1.9c0-0.3,0.1-0.5,0.2-0.8l4.4-8.9c0.3-0.6,0.9-1,1.7-1H177
	c0.7,0,1.4,0.4,1.7,1l4.4,8.9c0.4,0.9,0.1,2-0.8,2.5C182.1,200.3,181.9,200.4,181.6,200.4z"/>
<rect x="221.8" y="225.3" class="st1" width="24.5" height="13.3"/>
<rect x="223.3" y="228.3" class="st3" width="9.7" height="10.4"/>
<rect x="235.2" y="228.3" class="st3" width="9.7" height="10.4"/>
<path class="st1" d="M223.3,236.1c-1.5,0-2.6,1.2-2.6,2.6v0.4c0,7.3,6,13.3,13.3,13.3s13.3-6,13.3-13.3v-0.4c0-1.5-1.2-2.6-2.6-2.6
	H223.3z"/>
<path class="st4" d="M227.2,216.8c-0.4,0-0.8,0.2-0.9,0.6l-4.4,8.9c-0.3,0.5,0,1.3,0.5,1.5c0.1,0.1,0.3,0.1,0.5,0.1h22.7
	c0.6,0,1.2-0.5,1.2-1.2c0-0.2,0-0.3-0.1-0.5l-4.4-8.9c-0.2-0.4-0.5-0.6-0.9-0.6h-14.1v0.1H227.2z"/>
<path class="st2" d="M418.8,254.2c0.4,0,0.7-0.3,0.7-0.7s-0.3-0.7-0.7-0.7h-7v-2.9h7c0.4,0,0.7-0.3,0.7-0.7s-0.3-0.7-0.7-0.7h-60.2
	c-0.4,0-0.7,0.3-0.7,0.7s0.3,0.7,0.7,0.7h7v2.9h-7c-0.4,0-0.7,0.3-0.7,0.7s0.3,0.7,0.7,0.7h7v2.9h-7c-0.4,0-0.7,0.3-0.7,0.7
	s0.3,0.7,0.7,0.7h7v2.9h-6.3c-0.8,0-1.5,0.6-1.5,1.5c0,0.8,0.6,1.5,1.5,1.5h6c0,0.1-0.1,0.2-0.1,0.4v10.4c0,0.6,0.5,1.2,1.2,1.2
	c0.6,0,1.2-0.5,1.2-1.2v-10.4c0-0.1,0-0.2-0.1-0.4H410c0,0.1-0.1,0.2-0.1,0.4v10.4c0,0.6,0.5,1.2,1.2,1.2c0.6,0,1.2-0.5,1.2-1.2
	v-10.4c0-0.1,0-0.2-0.1-0.4h6c0.8,0,1.5-0.6,1.5-1.5s-0.6-1.5-1.5-1.5h-6.3v-2.9h7c0.4,0,0.7-0.3,0.7-0.7c0-0.4-0.3-0.7-0.7-0.7h-7
	v-2.9L418.8,254.2L418.8,254.2z M367.2,249.8h43.1v2.9h-43.1V249.8z M410.2,261.7h-43.1v-2.9h43.1V261.7z M410.2,257.2h-43.1v-2.9
	h43.1V257.2z"/>
<path class="st1" d="M400.3,250.1h-2.2c-0.6,0-1.2-0.5-1.2-1.2v-2.2c0-0.6,0.5-1.2,1.2-1.2h2.2c0.6,0,1.2,0.5,1.2,1.2v2.2
	C401.3,249.7,400.9,250.1,400.3,250.1z"/>
<path class="st1" d="M399.2,247.7h-0.1c-0.4-0.1-0.6-0.4-0.6-0.8l0,0l7.3-42.7c0.1-0.4,0.4-0.6,0.8-0.6c0.4,0.1,0.6,0.4,0.6,0.8
	l-7.3,42.7C399.8,247.5,399.5,247.7,399.2,247.7z"/>
<path class="st1" d="M399.2,247.7c-0.3,0-0.6-0.2-0.7-0.6l-7.3-42.7c-0.1-0.4,0.2-0.8,0.6-0.8c0.4-0.1,0.8,0.2,0.8,0.6l0,0l7.3,42.7
	C400,247.3,399.7,247.7,399.2,247.7L399.2,247.7C399.2,247.7,399.2,247.7,399.2,247.7z"/>
<path class="st5" d="M414.9,196.7c0.7-5-2-9.7-6.1-10.2s-8,3-8.6,8.2c-0.6,4.3,1.3,8.2,4.3,9.7l-0.2,1.3l3.7,0.5l0.2-1.3
	C411.5,204.3,414.4,201,414.9,196.7z"/>
<path class="st1" d="M398,194.4c-0.8-5-4.8-8.6-8.9-7.9c-4,0.7-6.6,5.3-5.8,10.4c0.7,4.3,3.7,7.4,7,7.9l0.2,1.3l3.7-0.6l-0.2-1.3
	C396.9,202.7,398.7,198.7,398,194.4z"/>
<path class="st1" d="M399.1,246.9c-0.4,0-0.7-0.3-0.7-0.7v-44c0-0.4,0.3-0.7,0.7-0.7c0.4,0,0.7,0.3,0.7,0.7V246
	C399.8,246.4,399.5,246.9,399.1,246.9z"/>
<path class="st4" d="M406,193.7c0-5.1-3.4-9.2-7.4-9.2s-7.4,4.2-7.4,9.2c0,4.3,2.4,8,5.6,9v1.3h3.7v-1.3
	C403.7,201.7,406,198,406,193.7z"/>
<path class="st1" d="M550.2,278.4H0.9c-0.5,0-0.9-0.4-0.9-0.9s0.4-1.1,0.9-1.1l0,0h549.3c0.5,0,0.9,0.4,0.9,0.9
	S550.7,278.4,550.2,278.4L550.2,278.4z"/>
<polygon class="st6" points="437,276.1 435.3,276.1 434.5,269.5 437,269.5 "/>
<path class="st7" d="M433.8,275.6h3.5l0,0v2.1l0,0H432l0,0v-0.2C432,276.4,432.8,275.6,433.8,275.6L433.8,275.6z"/>
<polygon class="st6" points="449.2,274.1 447.7,274.9 444.2,269.3 446.5,268.3 "/>
<path class="st7" d="M446.1,275.1l3.1-1.5l0,0l0.8,1.9l0,0l-4.8,2.2l0,0l-0.1-0.2C444.8,276.5,445.3,275.5,446.1,275.1L446.1,275.1z
	"/>
<path class="st7" d="M436.9,274.3h-1.6c-0.3,0-0.6-0.2-0.6-0.5l-0.8-23.5c0-0.3,0.2-0.6,0.5-0.6h0.1l9.3,0.9c0.3,0,0.5,0.3,0.5,0.6
	l0.2,10.4c0,0.1,0,0.1,0,0.2l3.9,10c0.1,0.3,0,0.6-0.3,0.8l0,0l-1.7,0.6c-0.3,0.1-0.6,0-0.7-0.3l-4.7-9.1c0,0,0-0.1-0.1-0.2
	l-0.8-3.9c-0.1-0.2-0.3-0.4-0.5-0.4s-0.3,0.2-0.4,0.4l-1.6,14.2C437.4,274.1,437.2,274.3,436.9,274.3z"/>
<circle class="st6" cx="437.6" cy="228.5" r="3.4"/>
<path class="st4" d="M440,252.4c-2.2,0-4.3-0.6-6.2-1.8l0,0c-0.2-0.1-0.3-0.3-0.3-0.5l0.8-11.7c0.1-1.6,0.9-3,2.3-4
	c1.3-0.8,2.9-1,4.4-0.5c0.3,0.1,0.6,0.3,0.8,0.4c1.8,1.3,2.7,3.5,2.4,5.6c-0.6,4.6,0.1,10.8,0.2,11.4l0,0l0,0
	C443.1,252.1,441.5,252.4,440,252.4z"/>
<path class="st6" d="M444.3,254.1c0.6-0.4,0.7-1.4,0.3-1.9c0-0.1-0.1-0.1-0.2-0.2l2-4.5l-2.5,0.4l-1.5,4.2c-0.5,0.6-0.4,1.5,0.2,2
	C443.1,254.5,443.8,254.5,444.3,254.1z"/>
<path class="st4" d="M444.5,251.4c-0.2,0-0.3-0.1-0.4-0.2l-0.7-0.8c-0.1-0.2-0.2-0.4-0.1-0.6l1.7-5.8l-2.6-5.5
	c-0.1-0.2-0.1-0.5-0.1-0.7c0.1-0.6,0.7-0.9,1.4-0.8c0.3,0.1,0.6,0.3,0.7,0.5l3.5,5.7c0.3,0.4,0.3,1,0.1,1.5l-2.8,6.3
	C444.9,251.2,444.7,251.3,444.5,251.4L444.5,251.4z"/>
<path class="st7" d="M440.4,231.5c-0.3,0.1-0.6-0.4-0.7-0.7c0-0.3,0-0.6,0.1-1c0-0.3-0.2-0.7-0.5-0.8c-0.4-0.1-0.7,0.2-1,0.1
	c-0.5,0-0.8-0.6-0.8-1.2c-0.1-0.5-0.1-1-0.5-1.4c-0.4-0.3-1-0.1-1.6-0.1c-0.9,0-1.8-0.6-2-1.5c0.2,0.1,0.4,0,0.5-0.2s0-0.4-0.1-0.6
	l1,0.5c-0.1-0.3,0-0.6,0.3-0.7l0,0c0.3-0.1,0.6-0.1,0.9,0c1.6,0.2,3.4,0.1,4.4,1.4c0.8,0.9,1.3,2.2,1.3,3.5
	C441.4,229.7,441,230.6,440.4,231.5z"/>
<path class="st6" d="M422.5,237.3c0.6-0.4,1.5-0.1,1.9,0.5c0,0.1,0.1,0.1,0.1,0.2h4.9l-1.4,2.1l-4.5-0.3c-0.7,0.2-1.5-0.2-1.7-0.9
	C421.7,238.3,422,237.6,422.5,237.3z"/>
<path class="st4" d="M425,239.6c0-0.2,0-0.3,0.1-0.5l0.6-0.8c0.1-0.2,0.3-0.3,0.5-0.2l5.8-0.2l4.9-2.9c0.2-0.2,0.4-0.2,0.7-0.2
	c0.6,0,1.2,0.5,1.2,1.2c0,0.3-0.2,0.6-0.4,0.8l-4.8,4.6c-0.4,0.3-0.9,0.5-1.5,0.4l-6.7-1.5C425.3,240,425.1,239.9,425,239.6
	C425,239.7,425,239.6,425,239.6z"/>
<path class="st8" d="M328.8,273.3c0.3-0.7-0.1-1.6-0.8-1.8c-0.1,0-0.2,0-0.2-0.1l-0.8-5l-1.9,1.8l1.2,4.5c-0.1,0.8,0.5,1.5,1.3,1.6
	C328,274.3,328.6,273.9,328.8,273.3z"/>
<path class="st4" d="M327.6,270.9l-1.9,0.5c-0.2,0-0.4-0.1-0.4-0.2l-3.4-12.1l-1-3c-0.3-0.9,0.2-2,1.2-2.3c0.2-0.1,0.5-0.1,0.8-0.1
	l0,0c0.7,0.1,1.4,0.6,1.6,1.3l2.7,9.1l0.7,6.4C327.9,270.7,327.8,270.8,327.6,270.9L327.6,270.9z"/>
<circle class="st8" cx="320.6" cy="248.1" r="3.5"/>
<polygon class="st8" points="310.4,295.9 308.7,295.3 309.8,288.6 312.4,289.3 "/>
<path class="st7" d="M310.4,297.5L305,296v-0.1c0.3-1.2,1.6-1.8,2.7-1.5l0,0l0,0l3.3,0.9L310.4,297.5z"/>
<polygon class="st8" points="328.6,295.7 326.9,295.7 326.1,289 327.8,289 "/>
<path class="st7" d="M329.1,297.4h-5.6v-0.1c0-1.2,0.9-2.2,2.2-2.2l0,0l0,0h3.5L329.1,297.4z"/>
<path class="st7" d="M311,293.9h-1.8c-0.3,0-0.6-0.3-0.6-0.6v-0.1c-1.2-0.5,4.9-29.3,6.3-28.7v-0.1l7.1,0.6c3.1,6.4,5.2,17,7.1,28
	c0.1,0.3-0.1,0.7-0.4,0.7h-0.1l-2,0.1c-0.3,0-0.5-0.1-0.6-0.4l-7.6-18.8c0-0.1-0.1-0.1-0.2-0.1s-0.2,0.1-0.2,0.1l-6.5,18.8
	C311.5,293.6,311.3,293.9,311,293.9z"/>
<path class="st4" d="M322.3,265.4L322.3,265.4l-7.7-0.6l1.4-8.5c0.3-2,1.9-3.5,3.8-3.7l0,0c0.1,0,0.1,0,0.2,0c1.5-0.2,3,0.4,4,1.6
	c0.9,1.2,1.3,2.8,0.7,4.3L322.3,265.4z"/>
<path class="st7" d="M327.5,252.1c-2.4,1-5.7,0.9-9.3,0c0.5-1.4,0.9-2.7,0.4-3.8c-0.4-0.7-0.4-1.7-0.1-2.4c0.7-1.8,2.4-2.8,4.3-2.8
	l0,0c2.6,0,4.7,2.1,4.7,4.7l0,0V252.1z"/>
<path class="st7" d="M319.7,243.4h2.6l0,0v3.7l0,0H316l0,0l0,0C316,245,317.7,243.4,319.7,243.4L319.7,243.4z"/>
<path class="st8" d="M314.5,274.1c0.6-0.5,0.6-1.5,0.1-2c-0.1-0.1-0.1-0.1-0.2-0.2l1.6-4.8l-2.5,0.7l-1.2,4.5
	c-0.4,0.6-0.2,1.6,0.4,2C313.3,274.6,314,274.6,314.5,274.1z"/>
<path class="st4" d="M314.5,271.4l-1.9-0.4c-0.2,0-0.3-0.2-0.3-0.4l2.6-12.2l0.5-3.1c0.2-1,1.2-1.7,2.1-1.5c0.3,0,0.5,0.1,0.7,0.3
	l0,0c0.6,0.4,0.9,1.2,0.7,1.9l-1.9,9.3l-2.3,6C314.9,271.3,314.7,271.4,314.5,271.4C314.6,271.4,314.5,271.4,314.5,271.4z"/>
<path class="st8" d="M384.7,244.9c-0.1,0-0.1,0-0.2,0.1l-5.7-3.7l0.1-1.7l-2.5-0.4l-0.4,2.9c-0.1,0.5,0.2,0.9,0.6,1.2l7,3.3
	c0.1,0.8,0.8,1.4,1.6,1.3c0.8-0.1,1.4-0.8,1.3-1.6s-0.8-1.4-1.6-1.3C384.8,244.9,384.8,244.9,384.7,244.9L384.7,244.9z"/>
<path class="st2" d="M378.5,241.1l-3-0.5c-0.3-0.1-0.5-0.4-0.5-0.7v-0.1l1-2.9c0.2-0.9,1-1.6,2-1.4c0.9,0.2,1.6,1,1.4,2l0,0l-0.1,3
	C379.3,240.9,379,241.2,378.5,241.1C378.7,241.1,378.7,241.1,378.5,241.1z"/>
<path class="st8" d="M389.2,233.1c0,0.1,0,0.1,0,0.2l-5.9,3.4l-1.5-0.8l-1.6,2l2.4,1.7c0.4,0.3,0.9,0.3,1.4,0l6.1-4.8
	c0.7,0.3,1.6-0.1,1.9-0.8s-0.1-1.6-0.8-1.9c-0.7-0.3-1.6,0.1-1.9,0.8C389.2,233,389.2,233.1,389.2,233.1L389.2,233.1z"/>
<path class="st1" d="M383.1,237l-1.9,2.4c-0.2,0.3-0.6,0.3-0.8,0.1c0,0,0,0-0.1-0.1l-2.2-2.2c-0.7-0.6-0.8-1.7-0.3-2.4
	c0.6-0.7,1.7-0.8,2.4-0.3l0,0l2.7,1.5C383.3,236.2,383.4,236.6,383.1,237C383.2,236.9,383.2,236.9,383.1,237L383.1,237z"/>
<circle class="st8" cx="375.3" cy="227.7" r="3.4"/>
<polygon class="st8" points="378.5,275.9 380.2,275.9 381,269.4 378.5,269.4 "/>
<path class="st7" d="M378,275.3h3.4l0,0c1.2,0,2.1,0.9,2.1,2.1l0,0v0.1H378V275.3z"/>
<polygon class="st8" points="372.8,275.9 374.5,275.9 375.2,269.4 372.8,269.4 "/>
<path class="st7" d="M372.4,275.3h3.4l0,0c1.2,0,2.1,0.9,2.1,2.1l0,0v0.1h-5.5V275.3z"/>
<path class="st7" d="M378,273.4l-1.7-13.2c0,0,0-0.1-0.1-0.1c0,0-0.1,0-0.1,0.1l0,0l-0.5,13.1c0,0.3-0.3,0.6-0.6,0.6h-2
	c-0.3,0-0.6-0.3-0.6-0.6l-0.5-21.7l9.1,0.1l0.2,21.8c0,0.2-0.1,0.3-0.2,0.4s-0.3,0.2-0.5,0.1h-2C378.2,273.9,378,273.7,378,273.4z"
	/>
<path class="st1" d="M371.7,252c-0.2-0.1-0.3-0.3-0.4-0.5l-0.1-12c-0.4-2.6-0.8-5.2,1.5-6.6l0.2-0.6c0-0.1,0.2-0.2,0.3-0.2l4.4-0.1
	c0.1,0,0.3,0.1,0.3,0.2l0.3,0.7l0.1,0.1c2.3,1.3,3.6,3.8,3.3,6.4l-0.2,2.1l-0.2,10c0,0.2-0.1,0.4-0.3,0.5c-1.3,0.6-2.6,0.9-4.1,0.9
	C375.1,253.1,373.3,252.6,371.7,252z"/>
<path class="st7" d="M375.2,231.2c-2,0-3.7-1.6-3.7-3.5c0-2,1.6-3.7,3.5-3.7c0.3,0,0.5,0,0.8,0.1c0.7-0.5,1.6-0.7,2.4-0.6
	c0.8,0.1,1.7,0.6,2,1.4c0.3,0.8,0,1.8-0.8,2.2c-0.5,0.1-1.2,0.2-1.7,0c-0.5-0.1-1.2-0.1-1.6,0.1c-0.5,0.3-0.7,1-0.3,1.4
	c0.4,0.4,0.6,1,0.4,1.6C376.2,230.7,375.8,231.1,375.2,231.2z"/>
<polygon class="st8" points="162.3,295.6 163.9,295.6 164.7,289.3 162.3,289.3 "/>
<path class="st7" d="M161.5,297.5v-2.7h3.6c1.3,0,2.3,1,2.3,2.3v0.4L161.5,297.5L161.5,297.5z"/>
<polygon class="st8" points="153.4,295.6 155.1,295.6 155.9,289.3 153.4,289.3 "/>
<path class="st7" d="M152.7,297.5v-2.7h3.6c1.3,0,2.3,1,2.3,2.3v0.4L152.7,297.5L152.7,297.5z"/>
<circle class="st8" cx="158.3" cy="247.3" r="3.6"/>
<path class="st8" d="M170.2,270.3c-0.1-0.7-0.7-1.3-1.5-1.2c-0.1,0-0.1,0-0.2,0l-2-2.3l-1.7,0.8l2.8,3.3c0.3,0.7,1,1,1.8,0.7
	C170,271.4,170.3,270.8,170.2,270.3L170.2,270.3z"/>
<path class="st8" d="M153.3,272.6c0.3-0.6,0-1.5-0.6-1.8c-0.1,0-0.1-0.1-0.2-0.1l-0.4-3l-1.9-0.2l0.6,4.3c-0.1,0.7,0.3,1.5,1,1.6
	C152.5,273.5,153.1,273.2,153.3,272.6L153.3,272.6z"/>
<path class="st1" d="M155.3,253.9L155.3,253.9c-0.6-0.7-1.7-0.8-2.4-0.3c-0.2,0.2-0.4,0.4-0.5,0.7l-2.8,7.2
	c-0.3,0.7-0.4,1.6-0.3,2.3l0.9,6.3c0,0.3,0.3,0.5,0.6,0.5h0.1l1.3-0.4c0.3-0.1,0.4-0.3,0.4-0.6l0,0c-0.4-3.7,0.1-7.4,1.7-10.9l1.4-3
	C155.7,255.2,155.6,254.4,155.3,253.9z"/>
<path class="st7" d="M157.4,250.7c-2.1,0-3.8-1.6-3.9-3.7c0-2.1,1.6-3.8,3.7-3.9c0.3,0,0.6,0,0.8,0.1c0.7-0.5,1.7-0.7,2.6-0.7
	c0.9,0.1,1.8,0.6,2.1,1.5c0.3,0.8,0,1.9-0.8,2.3c-0.5,0.2-1.2,0.2-1.7,0c-0.5-0.1-1.2-0.1-1.7,0.1c-0.5,0.3-0.7,1-0.3,1.5
	c0.5,0.4,0.6,1,0.4,1.7C158.5,250.3,158,250.6,157.4,250.7z"/>
<path class="st7" d="M153,270l-0.6,23.7c0,0.3,0.2,0.6,0.5,0.6l0,0l2.1-0.1c0.3,0,0.5-0.2,0.5-0.5l2.4-15.4c0-0.1,0.2-0.3,0.3-0.2
	c0.1,0,0.2,0.1,0.2,0.2l3.4,14.8c0.1,0.3,0.4,0.5,0.7,0.4c0,0,0,0,0.1,0l2-0.1c0.2-0.1,0.4-0.3,0.4-0.6l-1.8-23L153,270z"/>
<path class="st1" d="M152,258.8c-0.3-3.6,2.2-6.7,5.8-7h0.1c1.6-0.1,4-0.1,4.7,1.9c2.4,6.1-1.8,6-0.3,11.2c1.5,5.3,2.7,5.6,0.7,6
	s-10.9,2.6-10.5-1C152.7,267.5,152.4,262.4,152,258.8z"/>
<path class="st1" d="M162.3,252.9L162.3,252.9c-0.8-0.3-1.9,0.1-2.2,0.9c-0.1,0.3-0.1,0.6-0.1,0.9l1.2,7c0.2,1.2,0.7,2.3,1.5,3.3
	l3.7,4.4c0.2,0.2,0.5,0.3,0.8,0.1c0,0,0,0,0.1-0.1l0.8-0.9c0.2-0.2,0.2-0.5,0-0.7l-0.2-0.3c-2.1-2.7-3.5-6-3.9-9.4l-0.4-3.7
	C163.2,253.8,162.8,253.3,162.3,252.9z"/>
<path class="st6" d="M170.4,271.8c0.7-0.3,0.9-1.2,0.6-1.9c0-0.1-0.1-0.1-0.1-0.2l1-10.1h-2.2l-0.8,9.9c-0.6,0.5-0.6,1.4-0.2,2
	C169.2,271.9,169.8,272.1,170.4,271.8L170.4,271.8z"/>
<circle class="st6" cx="172.4" cy="251" r="3.1"/>
<path class="st4" d="M173.1,265.5c-0.2,0-0.5-0.2-0.5-0.4c-0.5-1.6-1.2-3.1-2-4.6c-0.9-1.9-0.1-4.2,1.8-5.1c0.1-0.1,0.3-0.1,0.4-0.2
	l0,0c2-0.7,4.2,0.3,4.8,2.3v0.1c0.6,2,0.8,4.2,0.7,6.3c0,0.2-0.2,0.5-0.4,0.5l-4.7,1C173.2,265.5,173.1,265.5,173.1,265.5z"/>
<polygon class="st6" points="177.7,295.5 179.2,295.5 180,289.5 177.7,289.5 "/>
<path class="st7" d="M182.6,297.3h-5.7v-2.6h3.4c1.3,0,2.3,1,2.3,2.3l0,0V297.3z"/>
<polygon class="st6" points="161.8,293.4 163.3,294.3 166.9,289.2 164.8,288.2 "/>
<path class="st7" d="M165.4,297.4l-5-2.7l1.3-2.3l2.9,1.7c1.2,0.6,1.5,2,0.9,3.1L165.4,297.4z"/>
<path class="st7" d="M177.6,292.2c-0.3,0-0.5-0.2-0.5-0.5l-2-15.2c0-0.2-0.2-0.3-0.3-0.3s-0.2,0.1-0.2,0.2l-8.2,14.9
	c-0.1,0.2-0.4,0.3-0.7,0.2l-1.8-0.6c-0.3-0.1-0.4-0.4-0.3-0.7l0,0l5.7-14V276c0.7-6,2.7-9,3.4-9.8c0.1-0.1,0.1-0.3,0.1-0.4l-0.1-0.2
	c-0.1-0.2,0-0.4,0.1-0.5c2.1-2.4,5.8-1,5.8-1l0,0l0,0c4.1,5.7,2.6,23.9,2.2,27.5c0,0.3-0.2,0.5-0.5,0.5L177.6,292.2L177.6,292.2z"/>
<path class="st6" d="M184.7,254.6c0,0.1,0,0.1,0,0.2l-5.6,3.1l-1.4-0.7l-1.5,1.9l2.2,1.6c0.4,0.3,0.8,0.2,1.3,0l5.7-4.5
	c0.7,0.2,1.5-0.1,1.8-0.8c0.2-0.7-0.1-1.5-0.8-1.8c-0.7-0.2-1.5,0.1-1.8,0.8C184.8,254.5,184.7,254.6,184.7,254.6z"/>
<path class="st4" d="M179,258.2l-1.8,2.3c-0.2,0.2-0.5,0.3-0.8,0.1c0,0,0,0-0.1-0.1l-2-2.1c-0.7-0.5-0.8-1.6-0.3-2.2
	c0.5-0.7,1.6-0.8,2.2-0.3l2.5,1.4C179.1,257.5,179.2,257.9,179,258.2C179,258.1,179,258.2,179,258.2L179,258.2z"/>
<path class="st4" d="M172.1,262.2l-2.8-0.5c-0.3-0.1-0.5-0.3-0.4-0.6V261l0.9-2.7c0.2-0.8,1-1.5,1.9-1.3c0.8,0.2,1.5,0.9,1.3,1.9
	l-0.1,2.9C172.7,262,172.5,262.2,172.1,262.2L172.1,262.2z"/>
<path class="st7" d="M173,250.2c0.8,0.5,1.9,1.2,2.7,0.5c0.5-0.4,0.7-1.2,0.5-1.8c-0.4-1.2-1.5-1.7-2.5-2c-1.4-0.6-2.8-0.7-4.2-0.5
	c-1.4,0.3-2.6,1.7-2.4,3.1c0.2,1.2,1.3,2.1,1.2,3.3s-1.5,1.8-2.6,2s-2.4,0.3-3.3,1c-1,1-0.8,2.9,0.2,4.1c1,1,2.4,1.7,4,2
	c1.9,0.4,4,0.7,5.8-0.1s3.3-2.8,2.7-4.7c-0.3-0.8-0.7-1.5-1.3-2.1c-0.5-0.6-0.9-1.4-1.3-2.2c-0.2-0.7,0-1.4,0.4-2
	C173.1,250.7,173.1,250.4,173,250.2L173,250.2z"/>
<g>
	<path class="st2" d="M124.9,254.5c0.4,0,0.7-0.3,0.7-0.7s-0.3-0.7-0.7-0.7l0,0h-7.1v-2.9h7c0.4,0,0.7-0.3,0.7-0.7s-0.3-0.7-0.7-0.7
		l0,0h-60c-0.4,0-0.7,0.3-0.7,0.7s0.3,0.7,0.7,0.7h7v2.9h-7c-0.4,0-0.7,0.3-0.7,0.7s0.3,0.7,0.7,0.7h7v2.9h-7
		c-0.4,0-0.7,0.3-0.7,0.7c0,0.4,0.3,0.7,0.7,0.7h7v2.9h-6.3c-0.8,0-1.5,0.6-1.5,1.5c0,0.8,0.6,1.5,1.5,1.5h6c0,0.1-0.1,0.2-0.1,0.4
		v10.4c0,0.6,0.5,1.2,1.2,1.2c0.6,0,1.2-0.5,1.2-1.2v-10.4c0-0.1,0-0.2-0.1-0.4H116c0,0.1-0.1,0.2-0.1,0.4v10.4
		c0,0.6,0.5,1.2,1.2,1.2c0.6,0,1.2-0.5,1.2-1.2v-10.4c0-0.1,0-0.2-0.1-0.4h6c0.8,0,1.5-0.6,1.5-1.5c0-0.8-0.6-1.5-1.5-1.5l0,0h-6.3
		v-2.9h7c0.4,0,0.7-0.3,0.7-0.7c0-0.4-0.3-0.7-0.7-0.7h-7v-2.9H124.9z M73.3,250.1h43v2.9h-43V250.1z M116.3,262h-43v-3h43V262z
		 M116.3,257.5h-43v-2.9h43V257.5z"/>
	<circle class="st7" cx="97.8" cy="240.8" r="4"/>
	<polygon class="st6" points="87.8,275.3 86.1,275.3 85.3,268.5 87.8,268.5 	"/>
	<path class="st7" d="M84.8,274.8h3.4l0,0v2.1l0,0h-5.6l0,0l0,0C82.6,275.7,83.6,274.8,84.8,274.8L84.8,274.8z"/>
	<polygon class="st6" points="85,274.3 83.4,273.8 84.6,267 87.1,267.8 	"/>
	<path class="st7" d="M82.3,273l3.3,1l0,0l-0.6,2l0,0l-5.2-1.7l0,0l0,0C80,273.2,81.2,272.6,82.3,273L82.3,273z"/>
	<path class="st7" d="M85.7,271.6c-0.1,0-0.1,0-0.2,0l-1.3-0.5c-0.3-0.1-0.5-0.4-0.4-0.7c0.3-1.5,1.5-6.5,2.1-9.1
		c0.7-3.1,11.3-3.8,11.7-3.8l0,0l1.2,1.5c0.4,1.4,0.3,2.4-0.4,3.1c-2,2.2-8.1,0.8-8.8,0.6l-3.3,8.5
		C86.1,271.4,85.9,271.6,85.7,271.6z"/>
	<path class="st7" d="M87.5,272.6c-0.1,0-0.1,0-0.2,0L86,272c-0.3-0.1-0.5-0.4-0.4-0.7c0.3-1.5,1.5-6.5,2.1-9.1
		c0.7-3.1,11.3-3.8,11.7-3.8l0,0l1.2,1.5c0.4,1.4,0.3,2.4-0.4,3.1c-2,2.2-8.1,0.8-8.8,0.6l-3.3,8.5C88,272.5,87.8,272.6,87.5,272.6z
		"/>
	<path class="st6" d="M83.8,251.9c0,0.1,0.1,0.1,0.1,0.2l7.1,0.7l1-1.4l2.3,1.3l-2,3.4l-8.7-2.2c-0.6,0.6-1.6,0.5-2.1,0
		c-0.6-0.6-0.5-1.6,0-2.1c0.6-0.6,1.6-0.5,2.1,0C83.7,251.8,83.7,251.8,83.8,251.9L83.8,251.9z"/>
	<path class="st1" d="M100.3,260.4c-0.1,0-0.2,0-0.3-0.1c-1.5-0.7-4.2-2-6.7-2.2c-0.2,0-0.3-0.1-0.4-0.2s-0.1-0.3-0.1-0.5
		c0.2-1.3,0.7-4.5,0.7-7.1c0-1.7,1-3.1,2.7-3.6l0,0c0.4-0.1,0.9-0.2,1.5-0.3c2-0.2,3.8,1.2,4,3c0,0.3,0,0.7,0,1
		c-0.4,2.7-0.9,6.5-0.5,9.1c0,0.2-0.1,0.5-0.2,0.6C100.5,260.4,100.4,260.4,100.3,260.4z"/>
	<path class="st1" d="M93.4,253.6c-0.1,0-0.2,0-0.2-0.1l-1.9-0.8c-0.3-0.1-0.5-0.5-0.3-0.8l1.5-3.3c0.3-0.8,1.4-1.3,2.2-0.8
		c0.8,0.3,1.3,1.4,0.8,2.2l0,0l-1.5,3.3C94,253.4,93.8,253.6,93.4,253.6z"/>
	<circle class="st6" cx="97.7" cy="241.7" r="3.6"/>
	<path class="st7" d="M94.1,240c1.7,1,3.6,1.7,5.6,1.8l-0.6-0.7c0.4,0.1,0.8,0.2,1.4,0.2c0.4,0,0.9-0.2,1.2-0.5
		c0.2-0.4,0.3-0.8,0.1-1.3c-0.2-0.4-0.4-0.7-0.8-1c-1.3-0.9-2.9-1.3-4.4-0.8c-0.5,0.1-0.9,0.4-1.4,0.8c-0.3,0.4-0.9,0.7-0.8,1.3
		L94.1,240z"/>
	<path class="st7" d="M98.3,237.1c-1.2-1.2-2.5-2-4-2.5c-0.9-0.4-2-0.5-3-0.4c-1,0.2-2,0.9-2.2,1.9c-0.2,0.8,0,1.7,0.3,2.4
		s0.8,1.5,1.2,2.2c0.9,2.6-0.4,5.6-3,6.5c-0.6,0.2-1.4,0.3-2.1,0.3c0.9,0.1,1.9,0.6,2.8,0.8s2.1,0.2,2.8-0.4
		c0.7-0.7,0.7-1.9,0.7-2.9l-0.2-4.7c0-0.8,0-1.6,0.2-2.3c0.3-0.7,0.9-1.4,1.8-1.4c0.6,0,1.2,0.4,1.6,0.7c0.5,0.3,0.9,0.7,1.6,0.8
		s1.3-0.4,1.3-0.9"/>
	<path class="st6" d="M91.8,259.6c-0.8,0-1.6-0.7-1.6-1.6s0.7-1.6,1.6-1.6c0.2,0,0.4,0,0.6,0.1l0,0c0.1,0,0.1,0.1,0.2,0.1l6.4-2.9
		l0.2-1.8l2.7-0.1v2.9c0,0.7-0.4,1.3-1.2,1.5l-7.6,2.1v0.1C93,259.1,92.4,259.6,91.8,259.6L91.8,259.6z"/>
	<path class="st1" d="M101.7,253.3c-0.1,0-0.2,0.1-0.2,0.1l-2,0.1c-0.3,0-0.6-0.2-0.7-0.6l-0.2-3.6c-0.1-0.9,0.6-1.7,1.6-1.8
		c0.9-0.1,1.7,0.6,1.8,1.6l0,0l0.2,3.6C102,252.9,101.9,253.2,101.7,253.3L101.7,253.3z"/>
	<path class="st2" d="M97.3,259.9H86c-0.3,0-0.5-0.2-0.5-0.5l0,0c0-0.3,0.2-0.5,0.5-0.5h11.3c0.3,0,0.5,0.2,0.5,0.5l0,0
		C97.8,259.7,97.6,259.9,97.3,259.9z"/>
	<path class="st2" d="M81,258.9v-7c0-0.5,0.4-0.9,0.9-0.9h12.8c0.5,0,0.9,0.4,0.9,0.9v7c0,0.5-0.4,0.9-0.9,0.9H81.9
		C81.4,259.9,81,259.5,81,258.9z"/>
	<path class="st3" d="M88.3,254.7c0.4,0,0.8,0.4,0.8,0.8s-0.4,0.8-0.8,0.8s-0.8-0.4-0.8-0.8S87.9,254.7,88.3,254.7z"/>
</g>
</svg>
