<?xml version="1.0" encoding="utf-8"?>
<!-- Generator: Adobe Illustrator 23.0.1, SVG Export Plug-In . SVG Version: 6.00 Build 0)  -->
<svg version="1.1" id="Capa_1" xmlns="http://www.w3.org/2000/svg" xmlns:xlink="http://www.w3.org/1999/xlink" x="0px" y="0px"
	 viewBox="0 0 960 315" style="enable-background:new 0 0 960 315;" xml:space="preserve">
<style type="text/css">
	.st0{fill:#1E1E1E;}
	.st1{fill:#910417;}
	.st2{fill:#FF003D;}
	.st3{fill:#262626;}
</style>
<path class="st0" d="M0,0.1v320.7l960-3.3c0,0,0-245.2,0-318.7L0,0.1z"/>
<g>
	<polygon class="st1" points="1045.2,118 779.7,337 937.6,56.1 	"/>
	<polygon class="st2" points="923.2,-43.6 842.9,9.5 1045.2,118 	"/>
	<polygon class="st2" points="830.2,247.2 955.5,324.5 779.7,337 	"/>
</g>
<g>
	<path class="st3" d="M109.1,189.5c-1.8-4.7-3.8-9.3-6.2-13.6C97,165.4,89.3,156,80.1,148.3l-0.7-0.6l11.9-36.9l0.9-0.1
		c17.2-1.2,33.7-6.9,47.9-16.5l1.1-0.8l18.1,25.1l-1,0.8c-5,4.1-9.3,9.1-12.8,14.6c2.9-1.5,6.2-2.4,9.6-2.4c11,0,20.2,9,20.3,20v0.3
		c0,11.2-9.1,20.3-20.3,20.3c-7.5,0-14.5-4.1-18-10.8c-0.1-0.2-0.3-0.5-0.4-0.7c0,0.4-0.1,0.8-0.1,1.2v0.1c-0.1,1.1-0.1,2.1-0.1,3.2
		c0,4.9,0.6,9.9,1.8,14.7l0.4,1.3l-29,9.7L109.1,189.5z"/>
	<path class="st3" d="M112,248.1l0.2-0.9c1.9-7.7,2.9-15.7,2.9-23.8c0-9.1-1.3-18.1-3.7-26.6l-0.4-1.3l29.2-9.6l0.5,1.3
		c2.4,6,5.6,11.5,9.8,16.4c-0.2-1.1-0.3-2.3-0.3-3.4c0-11.2,9.1-20.3,20.3-20.3s20.3,9.1,20.3,20.3c0,10.3-7.7,18.8-17.7,20.2
		c6,2.5,12.4,4,19.1,4.4l1.3,0.1v30.5l-1.3,0.1c-17.2,0.6-33.9,5.8-48.3,14.8l-0.8,0.5L112,248.1z"/>
	<path class="st3" d="M248.1,270.1c-14.5-9.1-31.1-14.2-48.1-14.8l-1.3-0.1v-30.5l1.3-0.1c6.7-0.4,13.1-1.9,19.2-4.4
		c-10.1-1.3-17.8-9.8-17.8-20.2c0-11.2,9.1-20.3,20.3-20.3S242,188.8,242,200c0,1.3-0.1,2.5-0.4,3.7c4.1-4.9,7.6-10.5,10-16.5
		l0.5-1.3l29,9.6l-0.4,1.3c-1,3.6-1.8,7.3-2.4,11c-0.8,5.1-1.2,10.2-1.2,15.4c0,8,1,16,3,23.9l0.2,0.9L249,270.7L248.1,270.1z"/>
	<path class="st3" d="M253.6,181.2l0.4-1.3c1.2-4.8,1.8-9.8,1.8-14.8c0-1.5-0.1-3.1-0.1-4.6c-3.3,6.9-10.3,11.6-18.4,11.6
		c-11.2,0-20.3-9.1-20.3-20.3c0-1.8,0.2-3.2,0.6-4.6c2.1-9.3,10.3-15.7,19.8-15.7c3.4,0,6.8,0.8,9.8,2.5
		c-3.4-5.6-7.7-10.5-12.9-14.7l-1-0.8l18.1-25.1l1.1,0.8c14.1,9.6,30.6,15.3,47.7,16.5l0.9,0.1l11.9,36.7l-0.7,0.6
		c-4.8,4.1-9.3,8.6-13.3,13.6c-6.8,8.5-12.2,17.9-15.8,28l-0.5,1.3L253.6,181.2z"/>
	<path class="st3" d="M196.2,142.2c-11.2,0-20.3-9.1-20.3-20.3c0-5.6,2.2-10.7,5.9-14.4c-6.1,1.5-11.9,4-17.3,7.5l-1.1,0.7
		l-18.1-25.2l1.1-0.8c13.2-10.5,23.6-24.4,29.9-40l0.4-0.8h39.2l0.4,0.8c6.4,15.6,16.7,29.5,30,40l1.1,0.8l-18.1,25.2l-1.1-0.7
		c-5.4-3.4-11.2-5.9-17.4-7.4c3.7,3.7,5.9,8.9,5.9,14.4C216.5,133.1,207.4,142.2,196.2,142.2z"/>
</g>
</svg>
